<svg width="17" height="16" viewBox="0 0 17 16" fill="none" xmlns="http://www.w3.org/2000/svg">
<path d="M14.5002 7.43629H2.50021C2.26807 7.43629 2.06717 7.35378 1.89753 7.18876C1.72789 7.02374 1.64307 6.82305 1.64307 6.58667C1.64307 6.35029 1.72566 6.14737 1.89083 5.97789C2.05601 5.80841 2.25914 5.72367 2.50021 5.72367H3.25021C3.42878 5.99127 3.65869 6.20089 3.93994 6.35252C4.22119 6.50416 4.52699 6.57998 4.85735 6.57998C5.18771 6.57998 5.49351 6.50416 5.77476 6.35252C6.05601 6.20089 6.28592 5.99127 6.46449 5.72367H10.5359C10.7145 5.99127 10.9444 6.20089 11.2257 6.35252C11.5069 6.50416 11.8127 6.57998 12.1431 6.57998C12.4734 6.57998 12.7792 6.50416 13.0605 6.35252C13.3417 6.20089 13.5716 5.99127 13.7502 5.72367H14.5002C14.7413 5.72367 14.9444 5.80841 15.1096 5.97789C15.2748 6.14737 15.3574 6.35029 15.3574 6.58667C15.3574 6.82305 15.2725 7.02374 15.1029 7.18876C14.9332 7.35378 14.7324 7.43629 14.5002 7.43629ZM12.4377 5.64339C12.2681 5.74151 12.0895 5.76381 11.902 5.71029C11.7145 5.65677 11.5716 5.54528 11.4734 5.3758L9.4511 1.65622C9.35289 1.48674 9.32833 1.30611 9.37744 1.11433C9.42655 0.922558 9.53592 0.77761 9.70557 0.679492C9.87521 0.581373 10.0538 0.559074 10.2413 0.612593C10.4288 0.666112 10.5716 0.77761 10.6699 0.947087L12.6922 4.66667C12.7904 4.83615 12.8149 5.01677 12.7658 5.20855C12.7167 5.40033 12.6074 5.54528 12.4377 5.64339ZM5.52699 5.3758C5.42878 5.54528 5.28592 5.65677 5.09842 5.71029C4.91092 5.76381 4.73235 5.74151 4.56271 5.64339C4.39307 5.54528 4.28369 5.40033 4.23458 5.20855C4.18548 5.01677 4.21003 4.83615 4.30824 4.66667L6.33057 0.947087C6.42878 0.77761 6.57164 0.666112 6.75914 0.612593C6.94664 0.559074 7.12521 0.581373 7.29485 0.679492C7.46449 0.77761 7.57387 0.922558 7.62298 1.11433C7.67208 1.30611 7.64753 1.48674 7.54932 1.65622L5.52699 5.3758ZM13.6431 13.4304C13.5716 13.7872 13.4399 14.0191 13.248 14.1262C13.056 14.2332 12.7636 14.2867 12.3707 14.2867H4.68324C4.28146 14.2867 3.97789 14.2332 3.77253 14.1262C3.56717 14.0191 3.42878 13.7872 3.35735 13.4304L2.50021 8.29259H14.5002L13.6431 13.4304ZM11.5002 10.8615H10.2145V9.57705C10.2145 9.46109 10.1721 9.36075 10.0873 9.27601C10.0024 9.19127 9.90199 9.1489 9.78592 9.1489C9.66985 9.1489 9.56941 9.19127 9.48458 9.27601C9.39976 9.36075 9.35735 9.46109 9.35735 9.57705V10.8615H8.07164C7.95557 10.8615 7.85512 10.9039 7.7703 10.9886C7.68548 11.0734 7.64307 11.1737 7.64307 11.2897C7.64307 11.4056 7.68548 11.506 7.7703 11.5907C7.85512 11.6755 7.95557 11.7178 8.07164 11.7178H9.35735V13.0023C9.35735 13.1182 9.39976 13.2186 9.48458 13.3033C9.56941 13.3881 9.66985 13.4304 9.78592 13.4304C9.90199 13.4304 10.0024 13.3881 10.0873 13.3033C10.1721 13.2186 10.2145 13.1182 10.2145 13.0023V11.7178H11.5002C11.6163 11.7178 11.7167 11.6755 11.8015 11.5907C11.8864 11.506 11.9288 11.4056 11.9288 11.2897C11.9288 11.1737 11.8864 11.0734 11.8015 10.9886C11.7167 10.9039 11.6163 10.8615 11.5002 10.8615Z" fill="#EB5757"/>
</svg>
