<svg width="16" height="14" viewBox="0 0 16 14" fill="none" xmlns="http://www.w3.org/2000/svg">
<path fill-rule="evenodd" clip-rule="evenodd" d="M0.666504 1C0.666504 0.631813 0.964981 0.333336 1.33317 0.333336H5.33317C6.21723 0.333336 7.06507 0.684525 7.69019 1.30965C8.31531 1.93477 8.6665 2.78261 8.6665 3.66667V13C8.6665 13.3682 8.36803 13.6667 7.99984 13.6667C7.63165 13.6667 7.33317 13.3682 7.33317 13C7.33317 12.6464 7.19269 12.3072 6.94265 12.0572C6.6926 11.8071 6.35346 11.6667 5.99984 11.6667H1.33317C0.964981 11.6667 0.666504 11.3682 0.666504 11V1ZM7.33317 10.6906V3.66667C7.33317 3.13624 7.12246 2.62753 6.74738 2.25246C6.37231 1.87738 5.8636 1.66667 5.33317 1.66667H1.99984V10.3333H5.99984C6.47199 10.3333 6.93123 10.4586 7.33317 10.6906Z" fill="#D4B26B"/>
<path fill-rule="evenodd" clip-rule="evenodd" d="M8.30948 1.30965C8.9346 0.684525 9.78245 0.333336 10.6665 0.333336H14.6665C15.0347 0.333336 15.3332 0.631813 15.3332 1V11C15.3332 11.3682 15.0347 11.6667 14.6665 11.6667H9.99984C9.64621 11.6667 9.30708 11.8071 9.05703 12.0572C8.80698 12.3072 8.6665 12.6464 8.6665 13C8.6665 13.3682 8.36803 13.6667 7.99984 13.6667C7.63165 13.6667 7.33317 13.3682 7.33317 13V3.66667C7.33317 2.78261 7.68436 1.93477 8.30948 1.30965ZM8.6665 10.6906C9.06844 10.4586 9.52768 10.3333 9.99984 10.3333H13.9998V1.66667H10.6665C10.1361 1.66667 9.62736 1.87738 9.25229 2.25246C8.87722 2.62753 8.6665 3.13624 8.6665 3.66667V10.6906Z" fill="#D4B26B"/>
</svg>
