<svg width="12" height="14" viewBox="0 0 12 14" fill="none" xmlns="http://www.w3.org/2000/svg">
<path fill-rule="evenodd" clip-rule="evenodd" d="M2.79167 10.5C2.5596 10.5 2.33704 10.5922 2.17295 10.7563C2.00885 10.9204 1.91667 11.1429 1.91667 11.375C1.91667 11.6972 1.6555 11.9583 1.33333 11.9583C1.01117 11.9583 0.75 11.6972 0.75 11.375C0.75 10.8335 0.965103 10.3142 1.34799 9.93132C1.73088 9.54844 2.25018 9.33334 2.79167 9.33334H10.6667C10.9888 9.33334 11.25 9.5945 11.25 9.91667C11.25 10.2388 10.9888 10.5 10.6667 10.5H2.79167Z" fill="white"/>
<path fill-rule="evenodd" clip-rule="evenodd" d="M2.79167 1.75C2.5596 1.75 2.33704 1.84219 2.17295 2.00628C2.00885 2.17038 1.91667 2.39294 1.91667 2.625V11.375C1.91667 11.6071 2.00885 11.8296 2.17295 11.9937C2.33704 12.1578 2.5596 12.25 2.79167 12.25H10.0833V1.75H2.79167ZM2.79167 0.583336H10.6667C10.9888 0.583336 11.25 0.844503 11.25 1.16667V12.8333C11.25 13.1555 10.9888 13.4167 10.6667 13.4167H2.79167C2.25018 13.4167 1.73088 13.2016 1.34799 12.8187C0.965103 12.4358 0.75 11.9165 0.75 11.375V2.625C0.75 2.08352 0.965103 1.56421 1.34799 1.18133C1.73088 0.798439 2.25018 0.583336 2.79167 0.583336Z" fill="white"/>
</svg>
