<svg width="10" height="12" viewBox="0 0 10 12" fill="none" xmlns="http://www.w3.org/2000/svg">
<path fill-rule="evenodd" clip-rule="evenodd" d="M2.17391 7.05467C2.17391 7.31442 2.36857 7.52499 2.6087 7.52499H10V8.46561H2.6087C1.88832 8.46561 1.30435 7.83391 1.30435 7.05467V0.940623H0V0H1.73913C1.97925 0 2.17391 0.210566 2.17391 0.470312V1.88125H9.13043C9.26435 1.88125 9.3908 1.94801 9.47319 2.06222C9.55558 2.17642 9.58472 2.32532 9.55217 2.46584L8.68261 6.22834C8.63415 6.43759 8.46029 6.58436 8.26087 6.58436H2.17391V7.05467ZM2.70834 11.4284C3.28364 11.4284 3.75001 10.9547 3.75001 10.3702C3.75001 9.78582 3.28364 9.31205 2.70834 9.31205C2.13304 9.31205 1.66667 9.78582 1.66667 10.3702C1.66667 10.9547 2.13304 11.4284 2.70834 11.4284ZM8.95832 11.4284C9.53362 11.4284 9.99999 10.9547 9.99999 10.3702C9.99999 9.78582 9.53362 9.31205 8.95832 9.31205C8.38302 9.31205 7.91665 9.78582 7.91665 10.3702C7.91665 10.9547 8.38302 11.4284 8.95832 11.4284Z" fill="white"/>
</svg>
