<svg width="14" height="14" viewBox="0 0 14 14" fill="none" xmlns="http://www.w3.org/2000/svg">
<path fill-rule="evenodd" clip-rule="evenodd" d="M0.583496 7.00065C0.583496 3.45682 3.45634 0.583984 7.00016 0.583984C10.544 0.583984 13.4168 3.45682 13.4168 7.00065C13.4168 10.5445 10.544 13.4173 7.00016 13.4173C3.45634 13.4173 0.583496 10.5445 0.583496 7.00065Z" fill="white"/>
<path fill-rule="evenodd" clip-rule="evenodd" d="M10.0981 4.69238C10.3259 4.92019 10.3259 5.28953 10.0981 5.51734L6.47726 9.309C6.24945 9.53681 5.88011 9.53681 5.6523 9.309L3.9023 7.55901C3.67449 7.3312 3.67449 6.96186 3.9023 6.73405C4.13011 6.50624 4.49945 6.50624 4.72726 6.73405L6.06478 8.07157L9.27311 4.69238C9.50092 4.46458 9.87026 4.46458 10.0981 4.69238Z" fill="#27AE34"/>
</svg>
