<svg width="14" height="14" viewBox="0 0 14 14" fill="none" xmlns="http://www.w3.org/2000/svg">
<path fill-rule="evenodd" clip-rule="evenodd" d="M0.583496 6.99998C0.583496 3.45615 3.45634 0.583313 7.00016 0.583313C10.544 0.583313 13.4168 3.45615 13.4168 6.99998C13.4168 10.5438 10.544 13.4166 7.00016 13.4166C3.45634 13.4166 0.583496 10.5438 0.583496 6.99998Z" fill="#828282"/>
<path fill-rule="evenodd" clip-rule="evenodd" d="M10.0981 4.69168C10.3259 4.91949 10.3259 5.28883 10.0981 5.51664L6.47726 9.3083C6.24945 9.53611 5.88011 9.53611 5.6523 9.3083L3.9023 7.55831C3.67449 7.3305 3.67449 6.96115 3.9023 6.73335C4.13011 6.50554 4.49945 6.50554 4.72726 6.73335L6.06478 8.07087L9.27311 4.69168C9.50092 4.46388 9.87026 4.46388 10.0981 4.69168Z" fill="white"/>
</svg>
