<svg width="12" height="12" viewBox="0 0 12 12" fill="none" xmlns="http://www.w3.org/2000/svg">
<path fill-rule="evenodd" clip-rule="evenodd" d="M5.99984 1.33333C4.76216 1.33333 3.57518 1.825 2.70001 2.70017C1.82484 3.57534 1.33317 4.76232 1.33317 6V9.5C1.33317 9.82216 1.072 10.0833 0.749837 10.0833C0.427671 10.0833 0.166504 9.82216 0.166504 9.5V6C0.166504 4.4529 0.781085 2.96917 1.87505 1.87521C2.96901 0.781246 4.45274 0.166664 5.99984 0.166664C7.54693 0.166664 9.03066 0.781246 10.1246 1.87521C11.2186 2.96917 11.8332 4.4529 11.8332 6V9.5C11.8332 9.82216 11.572 10.0833 11.2498 10.0833C10.9277 10.0833 10.6665 9.82216 10.6665 9.5V6C10.6665 4.76232 10.1748 3.57534 9.29967 2.70017C8.4245 1.825 7.23751 1.33333 5.99984 1.33333Z" fill="white"/>
<path fill-rule="evenodd" clip-rule="evenodd" d="M0.166504 7.16666C0.166504 6.8445 0.427671 6.58333 0.749837 6.58333H2.49984C2.96397 6.58333 3.40909 6.76771 3.73727 7.09589C4.06546 7.42408 4.24984 7.8692 4.24984 8.33333V10.0833C4.24984 10.5475 4.06546 10.9926 3.73727 11.3208C3.40909 11.649 2.96397 11.8333 2.49984 11.8333H1.9165C1.45237 11.8333 1.00726 11.649 0.679067 11.3208C0.350878 10.9926 0.166504 10.5475 0.166504 10.0833V7.16666ZM1.33317 7.75V10.0833C1.33317 10.238 1.39463 10.3864 1.50402 10.4958C1.61342 10.6052 1.76179 10.6667 1.9165 10.6667H2.49984C2.65455 10.6667 2.80292 10.6052 2.91232 10.4958C3.02171 10.3864 3.08317 10.238 3.08317 10.0833V8.33333C3.08317 8.17862 3.02171 8.03025 2.91232 7.92085C2.80292 7.81146 2.65455 7.75 2.49984 7.75H1.33317ZM9.49984 7.75C9.34513 7.75 9.19676 7.81146 9.08736 7.92085C8.97796 8.03025 8.9165 8.17862 8.9165 8.33333V10.0833C8.9165 10.238 8.97796 10.3864 9.08736 10.4958C9.19676 10.6052 9.34513 10.6667 9.49984 10.6667H10.0832C10.2379 10.6667 10.3863 10.6052 10.4956 10.4958C10.605 10.3864 10.6665 10.238 10.6665 10.0833V7.75H9.49984ZM8.2624 7.09589C8.59059 6.76771 9.03571 6.58333 9.49984 6.58333H11.2498C11.572 6.58333 11.8332 6.8445 11.8332 7.16666V10.0833C11.8332 10.5475 11.6488 10.9926 11.3206 11.3208C10.9924 11.649 10.5473 11.8333 10.0832 11.8333H9.49984C9.03571 11.8333 8.59059 11.649 8.2624 11.3208C7.93421 10.9926 7.74984 10.5475 7.74984 10.0833V8.33333C7.74984 7.8692 7.93421 7.42408 8.2624 7.09589Z" fill="white"/>
</svg>
