<svg width="16" height="16" viewBox="0 0 16 16" fill="none" xmlns="http://www.w3.org/2000/svg">
<path fill-rule="evenodd" clip-rule="evenodd" d="M8.00033 2.00008C4.68662 2.00008 2.00033 4.68637 2.00033 8.00008C2.00033 11.3138 4.68662 14.0001 8.00033 14.0001C11.314 14.0001 14.0003 11.3138 14.0003 8.00008C14.0003 4.68637 11.314 2.00008 8.00033 2.00008ZM0.666992 8.00008C0.666992 3.94999 3.95024 0.666748 8.00033 0.666748C12.0504 0.666748 15.3337 3.94999 15.3337 8.00008C15.3337 12.0502 12.0504 15.3334 8.00033 15.3334C3.95024 15.3334 0.666992 12.0502 0.666992 8.00008Z" fill="white"/>
<path fill-rule="evenodd" clip-rule="evenodd" d="M6.35209 4.74563C6.56887 4.62962 6.8319 4.64234 7.03647 4.77872L11.0365 7.44538C11.2219 7.56903 11.3333 7.77718 11.3333 8.00008C11.3333 8.22299 11.2219 8.43114 11.0365 8.55478L7.03647 11.2215C6.8319 11.3578 6.56887 11.3705 6.35209 11.2545C6.13532 11.1385 6 10.9126 6 10.6668V5.33342C6 5.08755 6.13532 4.86165 6.35209 4.74563ZM7.33333 6.57909V9.42107L9.46482 8.00008L7.33333 6.57909Z" fill="white"/>
</svg>
