<svg width="18" height="18" viewBox="0 0 18 18" fill="none" xmlns="http://www.w3.org/2000/svg">
<path fill-rule="evenodd" clip-rule="evenodd" d="M17.25 15.6669L12.973 11.3899C15.0033 8.53653 14.5081 4.60333 11.834 2.34218C9.1598 0.0810216 5.199 0.246459 2.72272 2.72274C0.246436 5.19902 0.0809987 9.15982 2.34215 11.834C4.60331 14.5081 8.53651 15.0033 11.3899 12.973L15.6669 17.25L17.25 15.6669ZM2.28385 7.5061C2.28385 4.62194 4.62192 2.28387 7.50608 2.28387C10.3902 2.28387 12.7283 4.62194 12.7283 7.5061C12.7283 10.3903 10.3902 12.7283 7.50608 12.7283C4.62329 12.725 2.28714 10.3889 2.28385 7.5061Z" fill="white"/>
</svg>
