<svg width="16" height="16" viewBox="0 0 16 16" fill="none" xmlns="http://www.w3.org/2000/svg">
<path d="M8 1C6.61553 1 5.26216 1.41054 4.11101 2.17971C2.95987 2.94888 2.06266 4.04213 1.53285 5.32122C1.00303 6.6003 0.86441 8.00776 1.13451 9.36563C1.4046 10.7235 2.07129 11.9708 3.05026 12.9497C4.02922 13.9287 5.2765 14.5954 6.63437 14.8655C7.99224 15.1356 9.3997 14.997 10.6788 14.4672C11.9579 13.9373 13.0511 13.0401 13.8203 11.889C14.5895 10.7378 15 9.38447 15 8C15 6.14348 14.2625 4.36301 12.9497 3.05025C11.637 1.7375 9.85652 1 8 1ZM12 12.4595V12.1555C12.0139 11.4737 11.7598 10.8136 11.2924 10.3171C10.8249 9.8206 10.1814 9.52722 9.5 9.5H6.5C5.81918 9.52735 5.1763 9.82087 4.7097 10.3174C4.24309 10.8139 3.99004 11.4738 4.005 12.155C4.005 12.1605 4 12.166 4 12.1715V12.464C3.09296 11.6543 2.45317 10.5883 2.16534 9.40703C1.8775 8.22574 1.95518 6.9849 2.3881 5.84874C2.82102 4.71257 3.58876 3.73467 4.58971 3.04446C5.59066 2.35424 6.77761 1.98427 7.99345 1.98351C9.2093 1.98275 10.3967 2.35124 11.3985 3.0402C12.4003 3.72916 13.1693 4.70611 13.6036 5.84173C14.038 6.97735 14.1172 8.21809 13.8308 9.39974C13.5445 10.5814 12.906 11.6482 12 12.459V12.4595Z" fill="#D4B26B"/>
<path d="M8 3.5C7.50555 3.5 7.0222 3.64662 6.61108 3.92133C6.19995 4.19603 5.87952 4.58648 5.6903 5.04329C5.50108 5.50011 5.45157 6.00277 5.54804 6.48773C5.6445 6.97268 5.8826 7.41814 6.23223 7.76777C6.58187 8.1174 7.02732 8.3555 7.51228 8.45196C7.99723 8.54843 8.49989 8.49892 8.95671 8.3097C9.41353 8.12048 9.80397 7.80005 10.0787 7.38893C10.3534 6.9778 10.5 6.49445 10.5 6C10.5 5.33696 10.2366 4.70107 9.76777 4.23223C9.29893 3.76339 8.66304 3.5 8 3.5Z" fill="#D4B26B"/>
</svg>
