<svg width="22" height="22" viewBox="0 0 22 22" fill="none" xmlns="http://www.w3.org/2000/svg">
<path fill-rule="evenodd" clip-rule="evenodd" d="M11 12.8333C14.0332 12.8333 16.5 10.3666 16.5 7.33333V5.5C16.5 2.46675 14.0332 0 11 0C7.96675 0 5.5 2.46675 5.5 5.5V7.33333C5.5 10.3666 7.96675 12.8333 11 12.8333ZM19.2803 19.0128C15.9371 19.0128 14.078 16.7585 13.6536 14.6667H6.41667C2.87925 14.6667 0 17.545 0 21.0833V22H22V21.0833C22 20.0068 21.7564 19.5843 21.2883 18.7726C21.2542 18.7134 21.2189 18.6521 21.1824 18.5884C20.6021 18.8551 19.9614 19.0128 19.2803 19.0128ZM17.5 11.5H19.5V13.5H21.5V15.5H19.5V17.5H17.5V15.5H15.5V13.5H17.5V11.5Z" fill="#C1C0C8"/>
</svg>
