<svg width="19" height="17" viewBox="0 0 19 17" fill="none" xmlns="http://www.w3.org/2000/svg">
<path fill-rule="evenodd" clip-rule="evenodd" d="M17.2772 0.231734C16.9802 -0.0772445 16.4991 -0.0772445 16.2021 0.231734L13.1143 3.44903C11.8898 2.76016 10.5226 2.39253 9.13101 2.37792C3.75068 2.37792 0.262705 8.05696 0.116612 8.29877C-0.0388708 8.55663 -0.0388708 8.88449 0.116612 9.14234C1.11299 10.6917 2.3647 12.0451 3.81383 13.1398L1.74494 15.2955C1.54244 15.4933 1.45943 15.7904 1.52834 16.0706C1.59725 16.3508 1.80715 16.5697 2.07602 16.6417C2.34489 16.7137 2.63006 16.6274 2.82009 16.4165L17.2772 1.35279C17.5743 1.04319 17.5743 0.541333 17.2772 0.231734ZM6.08741 8.72055C6.08741 6.96908 7.45008 5.54924 9.13101 5.54924C9.67166 5.5522 10.2012 5.70961 10.6619 6.00432L6.52416 10.3149C6.24177 9.83491 6.09074 9.28357 6.08741 8.72055ZM15.7027 5C16.6598 5.90875 17.5043 6.94245 18.216 8.07636C18.3725 8.34029 18.3725 8.67586 18.216 8.93979C18.0689 9.18729 14.5587 15 9.14392 15C8.30248 14.9944 7.4669 14.8513 6.66667 14.5756L15.7027 5Z" fill="#C1C0C8"/>
</svg>
