<svg width="22" height="22" viewBox="0 0 22 22" fill="none" xmlns="http://www.w3.org/2000/svg">
<path fill-rule="evenodd" clip-rule="evenodd" d="M13.6163 22.0009C13.2194 22.0008 12.8564 21.7767 12.6783 21.4219L9.56935 15.2009C9.39857 14.8584 9.42729 14.4502 9.64435 14.1349L14.6643 7.33494L7.86435 12.3529C7.54949 12.57 7.14151 12.5988 6.79935 12.4279L0.576345 9.31894C0.204262 9.13141 -0.0213876 8.74128 0.00160487 8.32524C0.0245973 7.90921 0.291863 7.54632 0.682345 7.40094L20.5873 0.0649362C20.9708 -0.0767431 21.4016 0.0176586 21.6906 0.306689C21.9796 0.59572 22.074 1.02652 21.9323 1.40994L14.5973 21.3159C14.453 21.7079 14.0894 21.9764 13.6723 21.9989L13.6163 22.0009Z" fill="#C1C0C8"/>
</svg>
