<svg width="20" height="20" viewBox="0 0 20 20" fill="none" xmlns="http://www.w3.org/2000/svg">
<path fill-rule="evenodd" clip-rule="evenodd" d="M13.3081 12.1889L11.1669 14.2994L5.7002 8.83144L7.8102 6.68976C8.07118 6.42422 8.14584 6.02724 7.99918 5.68499L5.80203 0.555616C5.62252 0.137546 5.16382 -0.0858033 4.7241 0.0307497L0.687595 1.097C0.2722 1.2045 -0.0132081 1.58564 0.000471286 2.0146C0.257191 6.70709 2.20783 11.1469 5.49012 14.5095C8.85303 17.7931 13.2933 19.7439 17.9859 19.9995C18.4147 20.0132 18.7958 19.7277 18.9033 19.3122L19.9693 15.2748C20.0858 14.835 19.8625 14.3762 19.4445 14.1966L14.3163 11.999C13.9729 11.8509 13.5741 11.926 13.3081 12.1889Z" fill="#C1C0C8"/>
</svg>
