<svg width="16" height="17" viewBox="0 0 16 17" fill="none" xmlns="http://www.w3.org/2000/svg">
<path fill-rule="evenodd" clip-rule="evenodd" d="M4.33333 12.4686C4.06812 12.4686 3.81376 12.5739 3.62623 12.7615C3.43869 12.949 3.33333 13.2034 3.33333 13.4686C3.33333 13.8368 3.03486 14.1353 2.66667 14.1353C2.29848 14.1353 2 13.8368 2 13.4686C2 12.8497 2.24583 12.2563 2.68342 11.8187C3.121 11.3811 3.71449 11.1353 4.33333 11.1353H13.3333C13.7015 11.1353 14 11.4337 14 11.8019C14 12.1701 13.7015 12.4686 13.3333 12.4686H4.33333Z" fill="#828282"/>
<path fill-rule="evenodd" clip-rule="evenodd" d="M4.33333 2.46859C4.06812 2.46859 3.81376 2.57394 3.62623 2.76148C3.43869 2.94902 3.33333 3.20337 3.33333 3.46859V13.4686C3.33333 13.7338 3.43869 13.9882 3.62623 14.1757C3.81376 14.3632 4.06812 14.4686 4.33333 14.4686H12.6667V2.46859H4.33333ZM4.33333 1.13525H13.3333C13.7015 1.13525 14 1.43373 14 1.80192V15.1353C14 15.5034 13.7015 15.8019 13.3333 15.8019H4.33333C3.71449 15.8019 3.121 15.5561 2.68342 15.1185C2.24583 14.6809 2 14.0874 2 13.4686V3.46859C2 2.84975 2.24583 2.25626 2.68342 1.81867C3.121 1.38109 3.71449 1.13525 4.33333 1.13525Z" fill="#828282"/>
</svg>
