<svg width="16" height="17" viewBox="0 0 16 17" fill="none" xmlns="http://www.w3.org/2000/svg">
<path fill-rule="evenodd" clip-rule="evenodd" d="M14 0.53125H2C0.89543 0.53125 0 1.42668 0 2.53125V14.5312C0 15.6358 0.89543 16.5312 2 16.5312H14C15.1046 16.5312 16 15.6358 16 14.5312V2.53125C16 1.42668 15.1046 0.53125 14 0.53125ZM1 4.38839C1 3.91501 1.44772 3.53125 2 3.53125H14C14.5523 3.53125 15 3.91501 15 4.38839V14.6741C15 15.1475 14.5523 15.5312 14 15.5312H2C1.44772 15.5312 1 15.1475 1 14.6741V4.38839Z" fill="#828282"/>
<path fill-rule="evenodd" clip-rule="evenodd" d="M6.5 7.53125C7.05228 7.53125 7.5 7.08353 7.5 6.53125C7.5 5.97897 7.05228 5.53125 6.5 5.53125C5.94772 5.53125 5.5 5.97897 5.5 6.53125C5.5 7.08353 5.94772 7.53125 6.5 7.53125Z" fill="#828282"/>
<path fill-rule="evenodd" clip-rule="evenodd" d="M9.5 7.53125C10.0523 7.53125 10.5 7.08353 10.5 6.53125C10.5 5.97897 10.0523 5.53125 9.5 5.53125C8.94772 5.53125 8.5 5.97897 8.5 6.53125C8.5 7.08353 8.94772 7.53125 9.5 7.53125Z" fill="#828282"/>
<path fill-rule="evenodd" clip-rule="evenodd" d="M12.5 7.53125C13.0523 7.53125 13.5 7.08353 13.5 6.53125C13.5 5.97897 13.0523 5.53125 12.5 5.53125C11.9477 5.53125 11.5 5.97897 11.5 6.53125C11.5 7.08353 11.9477 7.53125 12.5 7.53125Z" fill="#828282"/>
<path fill-rule="evenodd" clip-rule="evenodd" d="M3.5 10.5312C4.05228 10.5312 4.5 10.0835 4.5 9.53125C4.5 8.97897 4.05228 8.53125 3.5 8.53125C2.94772 8.53125 2.5 8.97897 2.5 9.53125C2.5 10.0835 2.94772 10.5312 3.5 10.5312Z" fill="#828282"/>
<path fill-rule="evenodd" clip-rule="evenodd" d="M6.5 10.5312C7.05228 10.5312 7.5 10.0835 7.5 9.53125C7.5 8.97897 7.05228 8.53125 6.5 8.53125C5.94772 8.53125 5.5 8.97897 5.5 9.53125C5.5 10.0835 5.94772 10.5312 6.5 10.5312Z" fill="#828282"/>
<path fill-rule="evenodd" clip-rule="evenodd" d="M9.5 10.5312C10.0523 10.5312 10.5 10.0835 10.5 9.53125C10.5 8.97897 10.0523 8.53125 9.5 8.53125C8.94772 8.53125 8.5 8.97897 8.5 9.53125C8.5 10.0835 8.94772 10.5312 9.5 10.5312Z" fill="#828282"/>
<path fill-rule="evenodd" clip-rule="evenodd" d="M12.5 10.5312C13.0523 10.5312 13.5 10.0835 13.5 9.53125C13.5 8.97897 13.0523 8.53125 12.5 8.53125C11.9477 8.53125 11.5 8.97897 11.5 9.53125C11.5 10.0835 11.9477 10.5312 12.5 10.5312Z" fill="#828282"/>
<path fill-rule="evenodd" clip-rule="evenodd" d="M3.5 13.5312C4.05228 13.5312 4.5 13.0835 4.5 12.5312C4.5 11.979 4.05228 11.5312 3.5 11.5312C2.94772 11.5312 2.5 11.979 2.5 12.5312C2.5 13.0835 2.94772 13.5312 3.5 13.5312Z" fill="#828282"/>
<path fill-rule="evenodd" clip-rule="evenodd" d="M6.5 13.5312C7.05228 13.5312 7.5 13.0835 7.5 12.5312C7.5 11.979 7.05228 11.5312 6.5 11.5312C5.94772 11.5312 5.5 11.979 5.5 12.5312C5.5 13.0835 5.94772 13.5312 6.5 13.5312Z" fill="#828282"/>
<path fill-rule="evenodd" clip-rule="evenodd" d="M9.5 13.5312C10.0523 13.5312 10.5 13.0835 10.5 12.5312C10.5 11.979 10.0523 11.5312 9.5 11.5312C8.94772 11.5312 8.5 11.979 8.5 12.5312C8.5 13.0835 8.94772 13.5312 9.5 13.5312Z" fill="#828282"/>
</svg>
