<svg width="26" height="28" viewBox="0 0 26 28" fill="none" xmlns="http://www.w3.org/2000/svg">
<path fill-rule="evenodd" clip-rule="evenodd" d="M19.5888 7.88905H15.8044V6.36127C15.8044 5.51751 15.2396 4.8335 14.5429 4.8335H10.7585C10.0618 4.8335 9.49705 5.51751 9.49705 6.36127V7.88905H5.71264C5.3643 7.88905 5.08191 8.23106 5.08191 8.65294C5.08191 9.07483 5.3643 9.41683 5.71264 9.41683H19.5888C19.9371 9.41683 20.2195 9.07483 20.2195 8.65294C20.2195 8.23106 19.9371 7.88905 19.5888 7.88905ZM10.5859 6.36131H14.7143V7.88909H10.5859V6.36131ZM9.53374 23.1671C8.58026 23.1632 7.78965 22.2362 7.7187 21.0389L7.14603 10.9449H18.1552L17.5825 21.0389C17.5116 22.2362 16.721 23.1632 15.7675 23.1671H9.53374Z" fill="#EB5757"/>
</svg>
