<svg width="16" height="17" viewBox="0 0 16 17" fill="none" xmlns="http://www.w3.org/2000/svg">
<path d="M13.3333 14.8856H2.66667C2.48986 14.8856 2.32029 14.8153 2.19526 14.6903C2.07024 14.5653 2 14.3957 2 14.2189V2.21891C2 2.0421 2.07024 1.87253 2.19526 1.74751C2.32029 1.62248 2.48986 1.55225 2.66667 1.55225H13.3333C13.5101 1.55225 13.6797 1.62248 13.8047 1.74751C13.9298 1.87253 14 2.0421 14 2.21891V14.2189C14 14.3957 13.9298 14.5653 13.8047 14.6903C13.6797 14.8153 13.5101 14.8856 13.3333 14.8856ZM12.6667 13.5522V2.88558H3.33333V13.5522H12.6667ZM5.33333 4.88558H10.6667V6.21891H5.33333V4.88558ZM5.33333 7.55225H10.6667V8.88558H5.33333V7.55225ZM5.33333 10.2189H8.66667V11.5522H5.33333V10.2189Z" fill="#828282"/>
</svg>
