<svg width="24" height="25" viewBox="0 0 24 25" fill="none" xmlns="http://www.w3.org/2000/svg">
<g clip-path="url(#clip0_7770_211545)">
<path d="M19.064 9.84975L23.2953 14.0804C23.3389 14.1239 23.3696 14.1787 23.384 14.2386C23.3983 14.2985 23.3958 14.3613 23.3767 14.4198C23.3575 14.4784 23.3226 14.5305 23.2756 14.5704C23.2286 14.6103 23.1715 14.6364 23.1107 14.6458L22.128 14.7991L18.3573 11.0284L18.4987 10.0384C18.5074 9.9772 18.5331 9.91963 18.5727 9.87215C18.6124 9.82468 18.6644 9.78916 18.7231 9.76958C18.7817 9.75001 18.8447 9.74713 18.9049 9.76129C18.9651 9.77545 19.0202 9.80608 19.064 9.84975ZM11.0633 22.5898C13.5447 20.3691 16.3933 19.7044 19.492 18.9098L19.7893 16.2311L16.9247 13.3664L14.246 13.6638C13.4513 16.7624 12.7867 19.6104 10.566 22.0924L9.63599 21.1631C11.5213 18.9631 12.2293 16.5278 13.1713 12.4424L17.414 11.9711L21.1853 15.7424L20.714 19.9851C16.6287 20.9278 14.1927 21.6351 11.9933 23.5204L11.0633 22.5898ZM14.586 18.5698C14.4586 18.4468 14.3571 18.2996 14.2872 18.137C14.2173 17.9743 14.1805 17.7993 14.179 17.6223C14.1774 17.4452 14.2112 17.2697 14.2782 17.1058C14.3453 16.942 14.4443 16.7931 14.5695 16.6679C14.6946 16.5427 14.8435 16.4437 15.0074 16.3767C15.1712 16.3096 15.3468 16.2759 15.5239 16.2774C15.7009 16.279 15.8759 16.3157 16.0385 16.3856C16.2012 16.4555 16.3483 16.5571 16.4713 16.6844C16.7109 16.9365 16.8425 17.2721 16.8381 17.6198C16.8337 17.9675 16.6936 18.2997 16.4478 18.5456C16.202 18.7915 15.8698 18.9317 15.5221 18.9362C15.1745 18.9407 14.8388 18.8092 14.5867 18.5698H14.586Z" fill="#828282"/>
<mask id="path-2-outside-1_7770_211545" maskUnits="userSpaceOnUse" x="0.593994" y="4.49219" width="11" height="11" fill="black">
<rect fill="white" x="0.593994" y="4.49219" width="11" height="11"/>
<path d="M10.0608 13.1047C9.83976 12.5811 9.51896 12.1054 9.11629 11.7043C8.71484 11.302 8.23929 10.9813 7.7159 10.7598C7.71121 10.7574 7.70652 10.7562 7.70184 10.7539C8.43191 10.2266 8.90652 9.36758 8.90652 8.39844C8.90652 6.79297 7.60574 5.49219 6.00027 5.49219C4.3948 5.49219 3.09402 6.79297 3.09402 8.39844C3.09402 9.36758 3.56863 10.2266 4.29871 10.7551C4.29402 10.7574 4.28934 10.7586 4.28465 10.7609C3.75965 10.9824 3.28855 11.3 2.88426 11.7055C2.48196 12.1069 2.16122 12.5825 1.93973 13.1059C1.72214 13.6183 1.60478 14.1676 1.59402 14.7242C1.59371 14.7367 1.5959 14.7492 1.60048 14.7608C1.60505 14.7725 1.6119 14.7831 1.62064 14.792C1.62938 14.801 1.63982 14.8081 1.65135 14.813C1.66288 14.8178 1.67526 14.8203 1.68777 14.8203H2.3909C2.44246 14.8203 2.48348 14.7793 2.48465 14.7289C2.50809 13.8242 2.87137 12.977 3.51355 12.3348C4.17801 11.6703 5.06043 11.3047 6.00027 11.3047C6.94012 11.3047 7.82254 11.6703 8.48699 12.3348C9.12918 12.977 9.49246 13.8242 9.5159 14.7289C9.51707 14.7805 9.55809 14.8203 9.60965 14.8203H10.3128C10.3253 14.8203 10.3377 14.8178 10.3492 14.813C10.3607 14.8081 10.3712 14.801 10.3799 14.792C10.3886 14.7831 10.3955 14.7725 10.4001 14.7608C10.4046 14.7492 10.4068 14.7367 10.4065 14.7242C10.3948 14.1641 10.2788 13.6191 10.0608 13.1047ZM6.00027 10.4141C5.46238 10.4141 4.95613 10.2043 4.57527 9.82344C4.19441 9.44258 3.98465 8.93633 3.98465 8.39844C3.98465 7.86055 4.19441 7.3543 4.57527 6.97344C4.95613 6.59258 5.46238 6.38281 6.00027 6.38281C6.53816 6.38281 7.04441 6.59258 7.42527 6.97344C7.80613 7.3543 8.0159 7.86055 8.0159 8.39844C8.0159 8.93633 7.80613 9.44258 7.42527 9.82344C7.04441 10.2043 6.53816 10.4141 6.00027 10.4141Z"/>
</mask>
<path d="M10.0608 13.1047C9.83976 12.5811 9.51896 12.1054 9.11629 11.7043C8.71484 11.302 8.23929 10.9813 7.7159 10.7598C7.71121 10.7574 7.70652 10.7562 7.70184 10.7539C8.43191 10.2266 8.90652 9.36758 8.90652 8.39844C8.90652 6.79297 7.60574 5.49219 6.00027 5.49219C4.3948 5.49219 3.09402 6.79297 3.09402 8.39844C3.09402 9.36758 3.56863 10.2266 4.29871 10.7551C4.29402 10.7574 4.28934 10.7586 4.28465 10.7609C3.75965 10.9824 3.28855 11.3 2.88426 11.7055C2.48196 12.1069 2.16122 12.5825 1.93973 13.1059C1.72214 13.6183 1.60478 14.1676 1.59402 14.7242C1.59371 14.7367 1.5959 14.7492 1.60048 14.7608C1.60505 14.7725 1.6119 14.7831 1.62064 14.792C1.62938 14.801 1.63982 14.8081 1.65135 14.813C1.66288 14.8178 1.67526 14.8203 1.68777 14.8203H2.3909C2.44246 14.8203 2.48348 14.7793 2.48465 14.7289C2.50809 13.8242 2.87137 12.977 3.51355 12.3348C4.17801 11.6703 5.06043 11.3047 6.00027 11.3047C6.94012 11.3047 7.82254 11.6703 8.48699 12.3348C9.12918 12.977 9.49246 13.8242 9.5159 14.7289C9.51707 14.7805 9.55809 14.8203 9.60965 14.8203H10.3128C10.3253 14.8203 10.3377 14.8178 10.3492 14.813C10.3607 14.8081 10.3712 14.801 10.3799 14.792C10.3886 14.7831 10.3955 14.7725 10.4001 14.7608C10.4046 14.7492 10.4068 14.7367 10.4065 14.7242C10.3948 14.1641 10.2788 13.6191 10.0608 13.1047ZM6.00027 10.4141C5.46238 10.4141 4.95613 10.2043 4.57527 9.82344C4.19441 9.44258 3.98465 8.93633 3.98465 8.39844C3.98465 7.86055 4.19441 7.3543 4.57527 6.97344C4.95613 6.59258 5.46238 6.38281 6.00027 6.38281C6.53816 6.38281 7.04441 6.59258 7.42527 6.97344C7.80613 7.3543 8.0159 7.86055 8.0159 8.39844C8.0159 8.93633 7.80613 9.44258 7.42527 9.82344C7.04441 10.2043 6.53816 10.4141 6.00027 10.4141Z" fill="#828282"/>
<path d="M9.11629 11.7043L8.97472 11.8456L8.97514 11.846L9.11629 11.7043ZM7.7159 10.7598L7.62628 10.939L7.63796 10.944L7.7159 10.7598ZM7.70184 10.7539L7.58473 10.5918L7.31705 10.7851L7.61239 10.9328L7.70184 10.7539ZM4.29871 10.7551L4.38815 10.934L4.68314 10.7865L4.41599 10.5931L4.29871 10.7551ZM4.28465 10.7609L4.36255 10.9456L4.37409 10.9398L4.28465 10.7609ZM2.88426 11.7055L3.02553 11.847L3.02588 11.8467L2.88426 11.7055ZM1.93973 13.1059L2.12382 13.184L2.12391 13.1838L1.93973 13.1059ZM1.59402 14.7242L1.79396 14.7292L1.79399 14.7281L1.59402 14.7242ZM1.68777 14.8203V14.6203H1.68771L1.68777 14.8203ZM2.48465 14.7289L2.28471 14.7237L2.2847 14.7243L2.48465 14.7289ZM9.5159 14.7289L9.71585 14.7244L9.71583 14.7237L9.5159 14.7289ZM10.3128 14.8203L10.3128 14.6203H10.3128V14.8203ZM10.4065 14.7242L10.2066 14.7284L10.2066 14.7292L10.4065 14.7242ZM10.2451 13.0269C10.0139 12.4794 9.67848 11.982 9.25744 11.5626L8.97514 11.846C9.35943 12.2288 9.66559 12.6827 9.87657 13.1825L10.2451 13.0269ZM9.25786 11.563C8.83817 11.1425 8.34102 10.8071 7.79384 10.5756L7.63796 10.944C8.13757 11.1554 8.59151 11.4616 8.97472 11.8456L9.25786 11.563ZM7.80534 10.5809C7.79825 10.5773 7.79209 10.5747 7.78766 10.5729C7.78356 10.5712 7.77986 10.5699 7.77909 10.5696C7.77752 10.569 7.77887 10.5695 7.78063 10.5702C7.78271 10.571 7.78653 10.5726 7.79128 10.575L7.61239 10.9328C7.61949 10.9363 7.62565 10.939 7.63008 10.9408C7.63417 10.9424 7.63788 10.9438 7.63864 10.9441C7.64022 10.9447 7.63886 10.9442 7.63711 10.9435C7.63502 10.9426 7.63121 10.941 7.62646 10.9387L7.80534 10.5809ZM7.81894 10.916C8.59893 10.3526 9.10652 9.43441 9.10652 8.39844H8.70652C8.70652 9.30075 8.2649 10.1005 7.58473 10.5918L7.81894 10.916ZM9.10652 8.39844C9.10652 6.68251 7.7162 5.29219 6.00027 5.29219V5.69219C7.49529 5.69219 8.70652 6.90343 8.70652 8.39844H9.10652ZM6.00027 5.29219C4.28435 5.29219 2.89402 6.68251 2.89402 8.39844H3.29402C3.29402 6.90343 4.50526 5.69219 6.00027 5.69219V5.29219ZM2.89402 8.39844C2.89402 9.43444 3.40164 10.3526 4.18143 10.9171L4.41599 10.5931C3.73562 10.1005 3.29402 9.30071 3.29402 8.39844H2.89402ZM4.20927 10.5762C4.21402 10.5738 4.21783 10.5722 4.21992 10.5714C4.22167 10.5706 4.22303 10.5702 4.22145 10.5707C4.22069 10.571 4.21698 10.5724 4.21289 10.5741C4.20846 10.5759 4.2023 10.5785 4.19521 10.5821L4.37409 10.9398C4.36934 10.9422 4.36553 10.9438 4.36344 10.9447C4.36169 10.9454 4.36033 10.9459 4.36191 10.9453C4.36267 10.945 4.36638 10.9436 4.37047 10.9419C4.3749 10.9401 4.38106 10.9375 4.38815 10.934L4.20927 10.5762ZM4.20691 10.5767C3.65795 10.8083 3.16518 11.1405 2.74263 11.5643L3.02588 11.8467C3.41193 11.4595 3.86135 11.1566 4.36239 10.9452L4.20691 10.5767ZM2.74299 11.5639C2.32241 11.9836 1.98709 12.4807 1.75554 13.0279L2.12391 13.1838C2.33534 12.6842 2.64151 12.2302 3.02553 11.847L2.74299 11.5639ZM1.75564 13.0277C1.52806 13.5636 1.40531 14.1382 1.39406 14.7204L1.79399 14.7281C1.80425 14.1971 1.91622 13.6729 2.12382 13.184L1.75564 13.0277ZM1.39409 14.7192C1.39311 14.7584 1.39998 14.7974 1.4143 14.8339L1.78665 14.6877C1.79183 14.7009 1.79432 14.715 1.79396 14.7292L1.39409 14.7192ZM1.4143 14.8339C1.42862 14.8704 1.45011 14.9036 1.47748 14.9317L1.7638 14.6524C1.7737 14.6625 1.78147 14.6745 1.78665 14.6877L1.4143 14.8339ZM1.47748 14.9317C1.50486 14.9598 1.53757 14.9821 1.5737 14.9973L1.72899 14.6286C1.74206 14.6342 1.75389 14.6422 1.7638 14.6524L1.47748 14.9317ZM1.5737 14.9973C1.60983 15.0125 1.64864 15.0203 1.68784 15.0203L1.68771 14.6203C1.70189 14.6203 1.71593 14.6231 1.72899 14.6286L1.5737 14.9973ZM1.68777 15.0203H2.3909V14.6203H1.68777V15.0203ZM2.3909 15.0203C2.55217 15.0203 2.68092 14.8915 2.68459 14.7336L2.2847 14.7243C2.28603 14.6671 2.33275 14.6203 2.3909 14.6203V15.0203ZM2.68458 14.7341C2.70669 13.8806 3.04902 13.0821 3.65498 12.4762L3.37213 12.1933C2.69371 12.8718 2.30948 13.7678 2.28472 14.7237L2.68458 14.7341ZM3.65498 12.4762C4.28193 11.8492 5.11349 11.5047 6.00027 11.5047V11.1047C5.00738 11.1047 4.07409 11.4914 3.37213 12.1933L3.65498 12.4762ZM6.00027 11.5047C6.88706 11.5047 7.71862 11.8492 8.34557 12.4762L8.62841 12.1933C7.92646 11.4914 6.99317 11.1047 6.00027 11.1047V11.5047ZM8.34557 12.4762C8.95153 13.0821 9.29386 13.8806 9.31597 14.7341L9.71583 14.7237C9.69107 13.7678 9.30684 12.8718 8.62841 12.1933L8.34557 12.4762ZM9.31595 14.7335C9.31961 14.8944 9.45009 15.0203 9.60965 15.0203V14.6203C9.66608 14.6203 9.71453 14.6666 9.71585 14.7244L9.31595 14.7335ZM9.60965 15.0203H10.3128V14.6203H9.60965V15.0203ZM10.3127 15.0203C10.3519 15.0203 10.3907 15.0125 10.4268 14.9973L10.2716 14.6286C10.2846 14.6231 10.2987 14.6203 10.3128 14.6203L10.3127 15.0203ZM10.4268 14.9973C10.463 14.9821 10.4957 14.9598 10.5231 14.9317L10.2368 14.6524C10.2467 14.6422 10.2585 14.6342 10.2716 14.6286L10.4268 14.9973ZM10.5231 14.9317C10.5504 14.9036 10.5719 14.8704 10.5862 14.8339L10.2139 14.6877C10.2191 14.6745 10.2268 14.6625 10.2368 14.6524L10.5231 14.9317ZM10.5862 14.8339C10.6006 14.7974 10.6074 14.7584 10.6065 14.7192L10.2066 14.7292C10.2062 14.715 10.2087 14.7009 10.2139 14.6877L10.5862 14.8339ZM10.6065 14.72C10.5942 14.1347 10.4729 13.5647 10.245 13.0267L9.87667 13.1827C10.0847 13.6736 10.1954 14.1935 10.2066 14.7284L10.6065 14.72ZM6.00027 10.2141C5.51548 10.2141 5.06009 10.0254 4.7167 9.68202L4.43385 9.96486C4.85218 10.3832 5.40928 10.6141 6.00027 10.6141V10.2141ZM4.7167 9.68202C4.3733 9.33862 4.18465 8.88323 4.18465 8.39844H3.78465C3.78465 8.98943 4.01553 9.54653 4.43385 9.96486L4.7167 9.68202ZM4.18465 8.39844C4.18465 7.91365 4.3733 7.45825 4.7167 7.11486L4.43385 6.83202C4.01553 7.25034 3.78465 7.80745 3.78465 8.39844H4.18465ZM4.7167 7.11486C5.06009 6.77147 5.51548 6.58281 6.00027 6.58281V6.18281C5.40928 6.18281 4.85218 6.41369 4.43385 6.83202L4.7167 7.11486ZM6.00027 6.58281C6.48506 6.58281 6.94046 6.77147 7.28385 7.11486L7.5667 6.83202C7.14837 6.41369 6.59126 6.18281 6.00027 6.18281V6.58281ZM7.28385 7.11486C7.62724 7.45825 7.8159 7.91365 7.8159 8.39844H8.2159C8.2159 7.80745 7.98502 7.25034 7.5667 6.83202L7.28385 7.11486ZM7.8159 8.39844C7.8159 8.88323 7.62724 9.33862 7.28385 9.68202L7.5667 9.96486C7.98502 9.54653 8.2159 8.98943 8.2159 8.39844H7.8159ZM7.28385 9.68202C6.94046 10.0254 6.48506 10.2141 6.00027 10.2141V10.6141C6.59126 10.6141 7.14837 10.3832 7.5667 9.96486L7.28385 9.68202Z" fill="#828282" mask="url(#path-2-outside-1_7770_211545)"/>
</g>
<defs>
<clipPath id="clip0_7770_211545">
<rect width="24" height="24" fill="white" transform="translate(0 0.15625)"/>
</clipPath>
</defs>
</svg>
