<svg width="16" height="17" viewBox="0 0 16 17" fill="none" xmlns="http://www.w3.org/2000/svg">
<mask id="path-1-inside-1_7770_211564" fill="white">
<path d="M11.0567 6.19189L8 9.24856L4.94333 6.19189L4 7.13523L8 11.1352L12 7.13523L11.0567 6.19189Z"/>
</mask>
<path d="M11.0567 6.19189L8 9.24856L4.94333 6.19189L4 7.13523L8 11.1352L12 7.13523L11.0567 6.19189Z" fill="#828282"/>
<path d="M11.0567 6.19189L12.1173 5.13123L11.0567 4.07057L9.99601 5.13123L11.0567 6.19189ZM8 9.24856L6.93934 10.3092L8 11.3699L9.06066 10.3092L8 9.24856ZM4.94333 6.19189L6.00399 5.13123L4.94333 4.07057L3.88267 5.13123L4.94333 6.19189ZM4 7.13523L2.93934 6.07457L1.87868 7.13523L2.93934 8.19589L4 7.13523ZM8 11.1352L6.93934 12.1959L8 13.2565L9.06066 12.1959L8 11.1352ZM12 7.13523L13.0607 8.19589L14.1213 7.13523L13.0607 6.07457L12 7.13523ZM9.99601 5.13123L6.93934 8.1879L9.06066 10.3092L12.1173 7.25255L9.99601 5.13123ZM9.06066 8.1879L6.00399 5.13123L3.88267 7.25255L6.93934 10.3092L9.06066 8.1879ZM3.88267 5.13123L2.93934 6.07457L5.06066 8.19589L6.00399 7.25255L3.88267 5.13123ZM2.93934 8.19589L6.93934 12.1959L9.06066 10.0746L5.06066 6.07457L2.93934 8.19589ZM9.06066 12.1959L13.0607 8.19589L10.9393 6.07457L6.93934 10.0746L9.06066 12.1959ZM13.0607 6.07457L12.1173 5.13123L9.99601 7.25256L10.9393 8.19589L13.0607 6.07457Z" fill="#828282" mask="url(#path-1-inside-1_7770_211564)"/>
</svg>
