<svg width="16" height="17" viewBox="0 0 16 17" fill="none" xmlns="http://www.w3.org/2000/svg">
<path d="M4.66667 4.46891V2.46891C4.66667 2.2921 4.7369 2.12253 4.86193 1.99751C4.98695 1.87248 5.15652 1.80225 5.33333 1.80225H13.3333C13.5101 1.80225 13.6797 1.87248 13.8047 1.99751C13.9298 2.12253 14 2.2921 14 2.46891V11.8022C14 11.9791 13.9298 12.1486 13.8047 12.2737C13.6797 12.3987 13.5101 12.4689 13.3333 12.4689H11.3333V14.4689C11.3333 14.8369 11.0333 15.1356 10.662 15.1356H2.67133C2.58342 15.1361 2.49626 15.1193 2.41488 15.086C2.3335 15.0527 2.25949 15.0037 2.19711 14.9418C2.13472 14.8798 2.0852 14.8062 2.05137 14.725C2.01754 14.6439 2.00009 14.5568 2 14.4689L2.002 5.13558C2.002 4.76758 2.302 4.46891 2.67333 4.46891H4.66667ZM3.33533 5.80225L3.33333 13.8022H10V5.80225H3.33533ZM6 4.46891H11.3333V11.1356H12.6667V3.13558H6V4.46891Z" fill="#828282"/>
</svg>
