<svg width="139" height="36" viewBox="0 0 139 36" fill="none" xmlns="http://www.w3.org/2000/svg">
<path d="M52.0343 13.3208H50.8941L46.5638 6.69247V13.3208H45.4237V4.71933H46.5638L50.9059 11.3772V4.71933H52.0343V13.3208ZM61.5236 13.3208H60.3834V9.34499H56.0472V13.3208H54.913V4.71933H56.0472V8.41749H60.3834V4.71933H61.5236V13.3208ZM69.2583 11.0759H65.6547L64.8453 13.3208H63.6756L66.9603 4.71933H67.9527L71.2433 13.3208H70.0795L69.2583 11.0759ZM65.9973 10.1425H68.9216L67.4565 6.11944L65.9973 10.1425ZM68.1063 4.15221H67.167L65.6429 2.41537H66.9603L68.1063 4.15221ZM79.9367 8.01578L81.9985 4.71933H83.3336L80.6161 8.98462L83.3986 13.3208H82.0516L79.9367 9.96528L77.81 13.3208H76.469L79.2573 8.98462L76.5339 4.71933H77.8632L79.9367 8.01578ZM91.6355 4.71933V10.5679C91.6315 11.3792 91.3755 12.0428 90.8675 12.5587C90.3634 13.0747 89.6781 13.3641 88.8116 13.4271L88.5103 13.439C87.5691 13.439 86.8188 13.1849 86.2595 12.6769C85.7003 12.1688 85.4167 11.4698 85.4088 10.5797V4.71933H86.5313V10.5442C86.5313 11.1665 86.7026 11.6509 87.0453 11.9975C87.3879 12.3401 87.8763 12.5115 88.5103 12.5115C89.1523 12.5115 89.6426 12.3401 89.9813 11.9975C90.324 11.6549 90.4953 11.1724 90.4953 10.5501V4.71933H91.6355ZM98.9094 11.0759H95.3058L94.4964 13.3208H93.3267L96.6113 4.71933H97.6038L100.894 13.3208H99.7306L98.9094 11.0759ZM95.6484 10.1425H98.5727L97.1076 6.11944L95.6484 10.1425ZM96.6881 2.60441H97.5861L99.2993 4.15811H98.1355L97.1371 3.2188L96.1328 4.15811H94.9631L96.6881 2.60441ZM99.701 1.5824H100.883L99.6951 3.11247H98.8621L99.701 1.5824ZM108.092 5.65274H105.327V13.3208H104.198V5.65274H101.44V4.71933H108.092V5.65274ZM113.861 13.3208V4.71933H116.673C117.606 4.71933 118.307 4.91232 118.776 5.29828C119.248 5.68424 119.485 6.25531 119.485 7.01148C119.485 7.4132 119.371 7.76963 119.142 8.08076C118.914 8.38795 118.603 8.62623 118.209 8.79558C118.673 8.92555 119.04 9.17367 119.308 9.53994C119.579 9.90227 119.715 10.3355 119.715 10.8396C119.715 11.6115 119.465 12.218 118.965 12.6591C118.465 13.1003 117.758 13.3208 116.844 13.3208H113.861ZM114.995 9.29772V12.3933H116.868C117.395 12.3933 117.811 12.2574 118.114 11.9857C118.421 11.71 118.575 11.3319 118.575 10.8514C118.575 9.81562 118.012 9.29772 116.885 9.29772H114.995ZM114.995 8.38795H116.708C117.204 8.38795 117.6 8.26389 117.896 8.01578C118.195 7.76766 118.345 7.43092 118.345 7.00558C118.345 6.53297 118.207 6.19033 117.931 5.97765C117.655 5.76104 117.236 5.65274 116.673 5.65274H114.995V8.38795ZM127.013 11.0759H123.409L122.6 13.3208H121.43L124.715 4.71933H125.707L128.998 13.3208H127.834L127.013 11.0759ZM123.752 10.1425H126.676L125.211 6.11944L123.752 10.1425ZM124.868 4.06359L124.862 3.15973C125.158 3.14004 125.374 3.10065 125.512 3.04158C125.65 2.9825 125.719 2.87616 125.719 2.72257C125.719 2.56897 125.628 2.45475 125.447 2.37993C125.27 2.30116 125.034 2.26177 124.738 2.26177L124.78 1.63557C125.366 1.63557 125.811 1.73797 126.115 1.94276C126.418 2.14362 126.57 2.41143 126.57 2.7462C126.57 2.98644 126.493 3.18533 126.339 3.34286C126.186 3.5004 125.957 3.60083 125.654 3.64415L125.648 4.06359H124.868ZM137.63 13.3208H136.49L132.16 6.69247V13.3208H131.02V4.71933H132.16L136.502 11.3772V4.71933H137.63V13.3208Z" fill="#4F4F4F"/>
<path d="M48.2298 25.0321L50.2915 21.7357H51.6267L48.9092 26.001L51.6916 30.3372H50.3447L48.2298 26.9816L46.1031 30.3372H44.762L47.5504 26.001L44.827 21.7357H46.1562L48.2298 25.0321ZM58.6229 28.0923H55.0193L54.21 30.3372H53.0403L56.3249 21.7357H57.3174L60.6079 30.3372H59.4441L58.6229 28.0923ZM55.3619 27.1589H58.2862L56.8211 23.1358L55.3619 27.1589ZM58.6348 21.0504V21.1095H57.7309L56.8448 20.1052L55.9645 21.1095H55.0607V21.0386L56.5139 19.4317H57.1756L58.6348 21.0504ZM64.6976 26.0541L66.9425 21.7357H68.2304L65.2648 27.1293V30.3372H64.1305V27.1293L61.1649 21.7357H62.4646L64.6976 26.0541ZM74.0705 30.3372V21.7357H76.4985C77.2468 21.7357 77.9084 21.9011 78.4835 22.2319C79.0585 22.5628 79.5015 23.0334 79.8127 23.6438C80.1277 24.2543 80.2872 24.9553 80.2912 25.747V26.2964C80.2912 27.1077 80.1336 27.8186 79.8186 28.429C79.5074 29.0395 79.0604 29.5081 78.4775 29.835C77.8986 30.1619 77.2232 30.3293 76.4512 30.3372H74.0705ZM75.2047 22.6691V29.4097H76.3981C77.2724 29.4097 77.9518 29.1379 78.4362 28.5944C78.9246 28.0509 79.1687 27.277 79.1687 26.2727V25.7706C79.1687 24.7939 78.9383 24.0357 78.4775 23.4962C78.0207 22.9527 77.3709 22.677 76.528 22.6691H75.2047ZM88.9298 21.7357V22.994C89.3827 22.9507 89.7037 22.7951 89.8927 22.5273C90.0857 22.2556 90.1822 21.8302 90.1822 21.2513H91.1215C91.1215 22.0783 90.9462 22.6986 90.5957 23.1122C90.2491 23.5218 89.6938 23.7502 88.9298 23.7974V27.5901C88.9258 28.3739 88.6836 29.0217 88.2031 29.5337C87.7227 30.0457 87.0669 30.345 86.2359 30.4317L85.8047 30.4553C84.8634 30.4553 84.1131 30.2013 83.5539 29.6932C82.9946 29.1852 82.711 28.4861 82.7032 27.596V21.7357H83.8256V27.5606C83.8256 28.1829 83.9969 28.6673 84.3396 29.0139C84.6822 29.3565 85.1706 29.5278 85.8047 29.5278C86.4466 29.5278 86.9369 29.3565 87.2756 29.0139C87.6183 28.6712 87.7896 28.1888 87.7896 27.5665V21.7357H88.9298ZM85.2848 31.8318C85.2848 31.6546 85.338 31.5049 85.4443 31.3828C85.5546 31.2607 85.716 31.1997 85.9287 31.1997C86.1414 31.1997 86.3029 31.2607 86.4131 31.3828C86.5234 31.5049 86.5786 31.6546 86.5786 31.8318C86.5786 32.009 86.5234 32.1567 86.4131 32.2749C86.3029 32.393 86.1414 32.4521 85.9287 32.4521C85.716 32.4521 85.5546 32.393 85.4443 32.2749C85.338 32.1567 85.2848 32.009 85.2848 31.8318ZM98.7617 30.3372H97.6215L93.2913 23.7088V30.3372H92.1511V21.7357H93.2913L97.6334 28.3936V21.7357H98.7617V30.3372ZM107.991 29.2088C107.7 29.6263 107.292 29.9394 106.768 30.1481C106.248 30.3529 105.642 30.4553 104.949 30.4553C104.248 30.4553 103.625 30.2919 103.082 29.965C102.538 29.6342 102.117 29.1655 101.818 28.559C101.522 27.9525 101.371 27.2495 101.363 26.45V25.6997C101.363 24.404 101.664 23.3997 102.267 22.6868C102.873 21.974 103.724 21.6175 104.819 21.6175C105.717 21.6175 106.439 21.8479 106.987 22.3087C107.534 22.7656 107.869 23.4154 107.991 24.2582H106.857C106.644 23.12 105.967 22.5509 104.825 22.5509C104.064 22.5509 103.488 22.8188 103.094 23.3544C102.704 23.8861 102.507 24.658 102.503 25.6702V26.3732C102.503 27.3381 102.723 28.1061 103.165 28.6771C103.606 29.2443 104.202 29.5278 104.955 29.5278C105.38 29.5278 105.752 29.4806 106.071 29.386C106.39 29.2915 106.654 29.132 106.863 28.9075V26.9757H104.872V26.0541H107.991V29.2088Z" fill="#4F4F4F"/>
<mask id="mask0" mask-type="alpha" maskUnits="userSpaceOnUse" x="0" y="0" width="35" height="36">
<path fill-rule="evenodd" clip-rule="evenodd" d="M0 0.94873H34.8542V35.4878H0V0.94873Z" fill="white"/>
</mask>
<g mask="url(#mask0)">
<path fill-rule="evenodd" clip-rule="evenodd" d="M17.4272 35.4876C16.7339 34.4065 15.3126 32.8771 13.6315 32.8293H0V0.948486H13.9522C15.2644 1.01849 16.4787 1.63424 17.4272 2.55468C18.3757 1.63424 19.5899 1.01849 20.9025 0.948486H34.8543V32.8293H21.2228C19.5421 32.8771 18.1204 34.4065 17.4272 35.4876ZM17.4272 5.77607C16.565 5.07838 15.3709 3.76216 13.876 3.76216H2.83275V30.0146H13.7877C15.3339 30.0146 16.63 30.6029 17.4272 31.6916C18.2244 30.6029 19.5205 30.0146 21.0671 30.0146H32.0221V3.76216H20.9784C19.4836 3.76216 18.2894 5.07838 17.4272 5.77607Z" fill="#02010E"/>
</g>
<mask id="mask1" mask-type="alpha" maskUnits="userSpaceOnUse" x="0" y="0" width="35" height="35">
<path fill-rule="evenodd" clip-rule="evenodd" d="M0 34.7912H34.9218V0.881348H0V34.7912Z" fill="white"/>
</mask>
<g mask="url(#mask1)">
<path fill-rule="evenodd" clip-rule="evenodd" d="M5.45654 28.2283H8.98195V24.6513H5.45654V28.2283ZM30.5427 11.332V11.35L30.5565 11.3543L30.5427 11.3992V12.1351H18.3933V18.0579H17.6017V12.1351H13.2843V11.332L17.9996 7.44482L30.4853 11.332H30.5427ZM14.636 11.3319H17.6017V8.79453L14.636 11.3319ZM18.3933 8.40613V11.332H27.7877L18.3933 8.40613ZM27.0172 19.4681H30.5426V15.8916H27.0172V19.4681ZM9.77311 19.4681H13.2989V15.8916H9.77311V19.4681ZM5.45654 19.4681H8.98195V15.8916H5.45654V19.4681ZM5.45654 23.8478H8.98195V20.2713H5.45654V23.8478ZM9.77311 23.8478H13.2989V20.2713H9.77311V23.8478ZM14.0898 23.8478H17.6152V20.2713H14.0898V23.8478ZM18.4064 23.8478H21.9321V20.2713H18.4064V23.8478ZM27.0172 28.2283H30.5426V24.6513H27.0172V28.2283ZM22.7002 28.2283H26.2256V24.6513H22.7002V28.2283ZM18.4064 28.2283H21.9321V24.6513H18.4064V28.2283ZM14.0898 28.2283H17.6152V24.6513H14.0898V28.2283ZM9.77311 28.2283H13.2989V24.6513H9.77311V28.2283Z" fill="#02010E"/>
</g>
</svg>
