<svg width="16" height="14" viewBox="0 0 16 14" fill="none" xmlns="http://www.w3.org/2000/svg">
<path fill-rule="evenodd" clip-rule="evenodd" d="M0.666992 1.00004C0.666992 0.631851 0.965469 0.333374 1.33366 0.333374H5.33366C6.21771 0.333374 7.06556 0.684563 7.69068 1.30968C8.3158 1.93481 8.66699 2.78265 8.66699 3.66671V13C8.66699 13.3682 8.36852 13.6667 8.00033 13.6667C7.63213 13.6667 7.33366 13.3682 7.33366 13C7.33366 12.6464 7.19318 12.3073 6.94313 12.0572C6.69309 11.8072 6.35395 11.6667 6.00033 11.6667H1.33366C0.965469 11.6667 0.666992 11.3682 0.666992 11V1.00004ZM7.33366 10.6906V3.66671C7.33366 3.13627 7.12294 2.62757 6.74787 2.25249C6.3728 1.87742 5.86409 1.66671 5.33366 1.66671H2.00033V10.3334H6.00033C6.47248 10.3334 6.93172 10.4586 7.33366 10.6906Z" fill="#828282"/>
<path fill-rule="evenodd" clip-rule="evenodd" d="M8.30997 1.30968C8.93509 0.684563 9.78294 0.333374 10.667 0.333374H14.667C15.0352 0.333374 15.3337 0.631851 15.3337 1.00004V11C15.3337 11.3682 15.0352 11.6667 14.667 11.6667H10.0003C9.6467 11.6667 9.30756 11.8072 9.05752 12.0572C8.80747 12.3073 8.66699 12.6464 8.66699 13C8.66699 13.3682 8.36852 13.6667 8.00033 13.6667C7.63213 13.6667 7.33366 13.3682 7.33366 13V3.66671C7.33366 2.78265 7.68485 1.93481 8.30997 1.30968ZM8.66699 10.6906C9.06893 10.4586 9.52817 10.3334 10.0003 10.3334H14.0003V1.66671H10.667C10.1366 1.66671 9.62785 1.87742 9.25278 2.25249C8.87771 2.62757 8.66699 3.13627 8.66699 3.66671V10.6906Z" fill="#828282"/>
</svg>
