<svg width="32" height="32" viewBox="0 0 32 32" fill="none" xmlns="http://www.w3.org/2000/svg">
<path d="M27.7707 15.4929H30.9891C30.9891 7.2377 24.7567 1.01172 16.4902 1.01172V4.23011C23.0268 4.23011 27.7707 8.96597 27.7707 15.4929Z" fill="#6DA6F2"/>
<path d="M16.5065 10.6667C19.8906 10.6667 21.3341 12.1102 21.3341 15.4943H24.5524C24.5524 10.3047 21.6961 7.44834 16.5065 7.44834V10.6667ZM22.0131 19.4256C21.7039 19.1445 21.2976 18.9946 20.8799 19.0076C20.4623 19.0205 20.066 19.1952 19.7747 19.4948L15.9239 23.455C14.997 23.278 13.1336 22.6971 11.2154 20.7837C9.29727 18.864 8.71635 16.9957 8.54417 16.0752L12.5012 12.2228C12.8012 11.9318 12.9761 11.5354 12.989 11.1176C13.0019 10.6999 12.8518 10.2935 12.5704 9.98443L6.6244 3.44627C6.34286 3.13627 5.95156 2.94823 5.53361 2.92209C5.11566 2.89595 4.70398 3.03376 4.38601 3.30627L0.894057 6.30098C0.615845 6.5802 0.449789 6.95182 0.42739 7.34535C0.403252 7.74764 -0.0569778 17.2773 7.33245 24.6699C13.7789 31.1148 21.8538 31.5863 24.0777 31.5863C24.4028 31.5863 24.6023 31.5766 24.6554 31.5734C25.0489 31.5514 25.4203 31.3846 25.6982 31.1051L28.6913 27.6116C28.964 27.2938 29.1021 26.8822 29.0762 26.4643C29.0504 26.0463 28.8627 25.6549 28.5529 25.3732L22.0131 19.4256Z" fill="#6DA6F2"/>
</svg>
