<svg width="20" height="20" viewBox="0 0 20 20" fill="none" xmlns="http://www.w3.org/2000/svg">
<path fill-rule="evenodd" clip-rule="evenodd" d="M0.833496 9.99992C0.833496 4.93731 4.93755 0.833252 10.0002 0.833252C15.0628 0.833252 19.1668 4.93731 19.1668 9.99992C19.1668 15.0625 15.0628 19.1666 10.0002 19.1666C4.93755 19.1666 0.833496 15.0625 0.833496 9.99992Z" fill="#27AE34"/>
<path fill-rule="evenodd" clip-rule="evenodd" d="M14.4257 6.70239C14.7512 7.02783 14.7512 7.55547 14.4257 7.8809L9.25316 13.2976C8.92772 13.623 8.40008 13.623 8.07464 13.2976L5.57464 10.7976C5.24921 10.4721 5.24921 9.9445 5.57464 9.61906C5.90008 9.29362 6.42772 9.29362 6.75316 9.61906L8.6639 11.5298L13.2472 6.70239C13.5727 6.37696 14.1003 6.37696 14.4257 6.70239Z" fill="white"/>
</svg>
