<svg width="15" height="16" viewBox="0 0 15 16" fill="none" xmlns="http://www.w3.org/2000/svg">
<path fill-rule="evenodd" clip-rule="evenodd" d="M2.93684 2H9.98579C11.0981 2 11.9998 2.89543 11.9998 4V14C11.9998 15.1046 11.0981 16 9.98579 16H2.93684C1.82454 16 0.922852 15.1046 0.922852 14V4C0.922852 2.89543 1.82454 2 2.93684 2ZM2.93684 3C2.38069 3 1.92984 3.44772 1.92984 4V14C1.92984 14.5523 2.38069 15 2.93684 15H9.98579C10.5419 15 10.9928 14.5523 10.9928 14V4C10.9928 3.44772 10.5419 3 9.98579 3H2.93684Z" fill="#828282"/>
<path d="M4.78303 0H11.832C12.9443 0 13.846 0.89543 13.846 2V12C13.846 13.1046 12.9443 14 11.832 14V13C12.3881 13 12.839 12.5523 12.839 12V2C12.839 1.44772 12.3881 1 11.832 1H4.78303C4.22688 1 3.77604 1.44772 3.77604 2H2.76904C2.76904 0.89543 3.67074 0 4.78303 0Z" fill="#828282"/>
</svg>
