<svg width="12" height="14" viewBox="0 0 12 14" fill="none" xmlns="http://www.w3.org/2000/svg">
<path d="M11.3531 3.50938L7.99063 0.146875C7.89688 0.053125 7.77031 0 7.6375 0H1C0.723437 0 0.5 0.223437 0.5 0.5V13.5C0.5 13.7766 0.723437 14 1 14H11C11.2766 14 11.5 13.7766 11.5 13.5V3.86406C11.5 3.73125 11.4469 3.60313 11.3531 3.50938ZM10.3469 4.09375H7.40625V1.15313L10.3469 4.09375ZM10.375 12.875H1.625V1.125H6.34375V4.5C6.34375 4.67405 6.41289 4.84097 6.53596 4.96404C6.65903 5.08711 6.82595 5.15625 7 5.15625H10.375V12.875ZM6.25156 6.375H5.74844C5.6625 6.375 5.5875 6.43281 5.56719 6.51719L4.79063 9.625L4.07031 6.52031C4.05 6.43594 3.975 6.375 3.8875 6.375H3.33437C3.30563 6.37504 3.27729 6.38168 3.25152 6.39441C3.22574 6.40713 3.20324 6.4256 3.18573 6.4484C3.16822 6.47119 3.15618 6.4977 3.15052 6.52588C3.14487 6.55405 3.14576 6.58316 3.15312 6.61094L4.3125 10.9234C4.33437 11.0047 4.40938 11.0625 4.49375 11.0625H4.99375C5.07812 11.0625 5.15313 11.0062 5.175 10.9234L6 7.84531L6.825 10.9234C6.84687 11.0047 6.92188 11.0625 7.00625 11.0625H7.50313C7.5875 11.0625 7.6625 11.0062 7.68437 10.9234L8.84688 6.61094C8.85417 6.58316 8.85502 6.55408 8.84934 6.52593C8.84366 6.49777 8.83161 6.47129 8.81411 6.44852C8.79662 6.42574 8.77414 6.40727 8.7484 6.39453C8.72266 6.38179 8.69435 6.37511 8.66562 6.375H8.10938C8.02187 6.375 7.94687 6.43594 7.92656 6.52031L7.21094 9.63125L6.43281 6.51719C6.4125 6.43281 6.3375 6.375 6.25156 6.375Z" fill="#828282"/>
</svg>
