<svg width="16" height="17" viewBox="0 0 16 17" fill="none" xmlns="http://www.w3.org/2000/svg">
<path fill-rule="evenodd" clip-rule="evenodd" d="M2.00016 9.83398C2.36835 9.83398 2.66683 10.1325 2.66683 10.5007V13.1673C2.66683 13.3441 2.73707 13.5137 2.86209 13.6387C2.98712 13.7637 3.15669 13.834 3.3335 13.834H12.6668C12.8436 13.834 13.0132 13.7637 13.1382 13.6387C13.2633 13.5137 13.3335 13.3441 13.3335 13.1673V10.5007C13.3335 10.1325 13.632 9.83398 14.0002 9.83398C14.3684 9.83398 14.6668 10.1325 14.6668 10.5007V13.1673C14.6668 13.6978 14.4561 14.2065 14.081 14.5815C13.706 14.9566 13.1973 15.1673 12.6668 15.1673H3.3335C2.80306 15.1673 2.29436 14.9566 1.91928 14.5815C1.54421 14.2065 1.3335 13.6978 1.3335 13.1673V10.5007C1.3335 10.1325 1.63197 9.83398 2.00016 9.83398Z" fill="black"/>
<path fill-rule="evenodd" clip-rule="evenodd" d="M4.19526 6.69526C4.45561 6.43491 4.87772 6.43491 5.13807 6.69526L8 9.55719L10.8619 6.69526C11.1223 6.43491 11.5444 6.43491 11.8047 6.69526C12.0651 6.95561 12.0651 7.37772 11.8047 7.63807L8.4714 10.9714C8.21106 11.2318 7.78894 11.2318 7.5286 10.9714L4.19526 7.63807C3.93491 7.37772 3.93491 6.95561 4.19526 6.69526Z" fill="black"/>
<path fill-rule="evenodd" clip-rule="evenodd" d="M8.00016 1.83398C8.36835 1.83398 8.66683 2.13246 8.66683 2.50065V10.5007C8.66683 10.8688 8.36835 11.1673 8.00016 11.1673C7.63197 11.1673 7.3335 10.8688 7.3335 10.5007V2.50065C7.3335 2.13246 7.63197 1.83398 8.00016 1.83398Z" fill="black"/>
</svg>
