<svg width="20" height="18" viewBox="0 0 20 18" fill="none" xmlns="http://www.w3.org/2000/svg">
<path fill-rule="evenodd" clip-rule="evenodd" d="M0.910665 1.14927C1.04721 0.854967 1.34216 0.666668 1.6666 0.666668H18.3333C18.6577 0.666668 18.9526 0.854967 19.0892 1.14927C19.2257 1.44357 19.1791 1.79037 18.9696 2.03811L12.4999 9.68846V16.5C12.4999 16.7888 12.3504 17.057 12.1047 17.2089C11.859 17.3607 11.5522 17.3745 11.2939 17.2454L7.96058 15.5787C7.67826 15.4375 7.49993 15.149 7.49993 14.8333V9.68846L1.03029 2.03811C0.82079 1.79037 0.774116 1.44357 0.910665 1.14927ZM3.46268 2.33333L8.96957 8.84523C9.09679 8.99567 9.1666 9.18632 9.1666 9.38334V14.3183L10.8333 15.1516V9.38334C10.8333 9.18632 10.9031 8.99567 11.0303 8.84523L16.5372 2.33333H3.46268Z" fill="#828282"/>
</svg>
