<svg width="26" height="28" viewBox="0 0 26 28" fill="none" xmlns="http://www.w3.org/2000/svg">
<path d="M3.23229 28H2.42178C1.99187 28 1.57956 27.7893 1.27556 27.4142C0.971565 27.0391 0.800781 26.5304 0.800781 26V5C0.800781 4.46957 0.971565 3.96086 1.27556 3.58579C1.57956 3.21071 1.99187 3 2.42178 3H3.23229C3.6622 3 4.07451 3.21071 4.37851 3.58579C4.6825 3.96086 4.85329 4.46957 4.85329 5V26C4.85329 26.5304 4.6825 27.0391 4.37851 27.4142C4.07451 27.7893 3.6622 28 3.23229 28Z" fill="#E0E0E0"/>
<path d="M12.1481 9C12.1481 8.46957 11.9773 7.96086 11.6733 7.58579C11.3693 7.21071 10.957 7 10.5271 7H7.28507C6.85515 7 6.44284 7.21071 6.13884 7.58579C5.83485 7.96086 5.66406 8.46957 5.66406 9V10.75C5.66406 10.8163 5.68541 10.8799 5.72341 10.9268C5.76141 10.9737 5.81295 11 5.86669 11H11.9454C11.9992 11 12.0507 10.9737 12.0887 10.9268C12.1267 10.8799 12.1481 10.8163 12.1481 10.75V9Z" fill="#E0E0E0"/>
<path d="M5.66406 26C5.66406 26.5304 5.83485 27.0391 6.13884 27.4142C6.44284 27.7893 6.85515 28 7.28507 28H10.5271C10.957 28 11.3693 27.7893 11.6733 27.4142C11.9773 27.0391 12.1481 26.5304 12.1481 26V24.125C12.1481 24.0918 12.1374 24.0601 12.1184 24.0366C12.0994 24.0132 12.0736 24 12.0468 24H5.76538C5.73851 24 5.71274 24.0132 5.69374 24.0366C5.67474 24.0601 5.66406 24.0918 5.66406 24.125V26Z" fill="#E0E0E0"/>
<path d="M12.0468 13H5.76538C5.70942 13 5.66406 13.056 5.66406 13.125V21.875C5.66406 21.944 5.70942 22 5.76538 22H12.0468C12.1027 22 12.1481 21.944 12.1481 21.875V13.125C12.1481 13.056 12.1027 13 12.0468 13Z" fill="#E0E0E0"/>
<path d="M16.2 28H14.579C14.1491 28 13.7368 27.7893 13.4328 27.4142C13.1288 27.0391 12.958 26.5304 12.958 26V2C12.958 1.46957 13.1288 0.960859 13.4328 0.585786C13.7368 0.210714 14.1491 0 14.579 0H16.2C16.6299 0 17.0422 0.210714 17.3462 0.585786C17.6502 0.960859 17.821 1.46957 17.821 2V26C17.821 26.5304 17.6502 27.0391 17.3462 27.4142C17.0422 27.7893 16.6299 28 16.2 28Z" fill="#E0E0E0"/>
<path d="M25.1105 25.8406L23.4778 4.59059C23.4029 3.61246 22.6197 2.90309 21.7287 3.00871L20.1153 3.19621C19.2242 3.30059 18.5627 4.17809 18.6376 5.15621L20.2703 26.4062C20.3453 27.3843 21.1284 28.0937 22.0194 27.9881L23.6328 27.8006C24.5239 27.6962 25.1855 26.8187 25.1105 25.8406Z" fill="#E0E0E0"/>
</svg>
