<svg width="231" height="143" viewbox="0 0 231 143" fill="none" xmlns="http://www.w3.org/2000/svg">
    <path opacity="0.7" d="M21.8021 114.3C7.82078 100.573 9.00807 85.7475 17.3737 69.7774C23.6103 57.8629 13.068 44.1761 30.1472 26.8019C42.6547 14.0762 71.9957 7.15104 97.5087 16.3255C110.269 20.9128 152.895 -19.5476 191.584 16.3255C213.747 36.8829 216.053 61.2027 211.693 68.68C203.757 82.2986 232.184 89.7758 215.036 114.3C161.131 114.3 21.8021 114.3 21.8021 114.3Z" fill="#D9EFFF"></path>
    <path opacity="0.8" d="M193.436 15.2971C193.036 13.9112 191.481 12.8718 189.63 12.8718C189.29 12.8718 188.957 12.904 188.646 12.9685C187.728 11.3973 185.743 10.3096 183.433 10.3096C182.841 10.3096 182.263 10.3821 181.723 10.5191C180.479 8.87535 178.228 7.77148 175.652 7.77148C172.587 7.77148 169.98 9.32656 168.988 11.5101C168.285 11.1959 167.485 11.0186 166.627 11.0186C163.939 11.0186 161.762 12.759 161.762 14.9103C161.762 15.0392 161.77 15.1601 161.784 15.289H193.436V15.2971Z" fill="white"></path>
    <path opacity="0.8" d="M198.441 70.7722C198.441 70.8769 198.449 70.9817 198.464 71.0784H222.23C222.334 70.5385 222.422 69.9664 222.496 69.3782C222.067 69.209 221.593 69.1123 221.082 69.1123C220.808 69.1123 220.534 69.1445 220.283 69.1929C219.542 67.9198 217.921 67.0334 216.055 67.0334C215.574 67.0334 215.107 67.0898 214.663 67.2027C213.656 65.8651 211.828 64.9707 209.732 64.9707C207.245 64.9707 205.127 66.2357 204.32 68.0084C203.75 67.7506 203.098 67.6055 202.402 67.6055C200.203 67.6055 198.441 69.0237 198.441 70.7722Z" fill="white"></path>
    <path opacity="0.8" d="M174.452 57.1712C174.179 56.1237 173.09 55.3341 171.802 55.3341C171.565 55.3341 171.335 55.3583 171.113 55.4066C170.477 54.2222 169.092 53.4003 167.485 53.4003C167.071 53.4003 166.671 53.4567 166.293 53.5534C165.427 52.3045 163.858 51.4746 162.066 51.4746C159.934 51.4746 158.112 52.651 157.424 54.3027C156.935 54.0691 156.372 53.9321 155.78 53.9321C153.907 53.9321 152.396 55.2535 152.396 56.8811C152.396 56.9778 152.404 57.0745 152.411 57.1631H174.452V57.1712Z" fill="white"></path>
    <path opacity="0.8" d="M114.245 28.979C114.511 28.0604 115.548 27.3756 116.792 27.3756C117.021 27.3756 117.243 27.3997 117.451 27.44C118.065 26.4087 119.39 25.6916 120.938 25.6916C121.338 25.6916 121.723 25.7399 122.085 25.8285C122.915 24.7408 124.425 24.0156 126.15 24.0156C128.201 24.0156 129.948 25.047 130.607 26.4812C131.074 26.2717 131.614 26.1589 132.192 26.1589C133.991 26.1589 135.449 27.3111 135.449 28.7292C135.449 28.8098 135.442 28.8984 135.435 28.979H114.245Z" fill="white"></path>
    <path opacity="0.8" d="M69.1484 20.0276C68.8375 18.956 67.6455 18.1583 66.2091 18.1583C65.9426 18.1583 65.6908 18.1825 65.4465 18.2389C64.7431 17.0303 63.2031 16.1923 61.4262 16.1923C60.9672 16.1923 60.5229 16.2487 60.1083 16.3535C59.1532 15.0804 57.4133 14.2344 55.4217 14.2344C53.0598 14.2344 51.046 15.4349 50.276 17.1189C49.7355 16.8772 49.1136 16.7402 48.4546 16.7402C46.3815 16.7402 44.7009 18.0858 44.7009 19.7456C44.7009 19.8423 44.7083 19.939 44.7157 20.0357H69.1484V20.0276Z" fill="white"></path>
    <path opacity="0.8" d="M25.4435 81.0609C25.1178 79.9328 23.8591 79.0868 22.3487 79.0868C22.0748 79.0868 21.8008 79.119 21.5491 79.1674C20.8087 77.8943 19.1873 77.008 17.3215 77.008C16.8402 77.008 16.3738 77.0644 15.9295 77.1772C14.9226 75.8397 13.0939 74.9453 10.9986 74.9453C10.8949 74.9453 10.7987 74.9453 10.7024 74.9534C10.4729 75.5738 10.2138 76.1861 9.92501 76.7905C9.23645 78.2166 8.59971 79.6347 8 81.0528H25.4435V81.0609Z" fill="white"></path>
    <g clip-path="url(#clip0)">
        <path d="M131.815 20.3749C131.275 24.272 134.677 27.8444 132.409 34.8267C131.653 37.1 129.169 39.8063 124.579 42.9457C117.774 47.6005 120.529 56.9103 111.078 60.4285C111.078 60.4285 109.242 56.6397 109.458 51.6059C109.566 48.6289 110.376 45.2731 112.644 41.9172C114.696 38.8862 111.078 32.4451 113.508 28.7104C115.344 25.8417 121.663 27.5737 122.689 23.4601C124.471 16.0989 127.927 15.5577 134.677 13.7715C134.515 13.9339 132.355 16.2072 131.815 20.3749Z" fill="#3865D8"></path>
        <path d="M134.678 13.7715C134.462 13.8797 127.712 17.0732 127.604 20.8621C127.496 24.705 125.174 28.1691 121.123 31.6873C117.019 35.2056 118.045 46.8969 118.045 46.8969C114.481 49.6032 111.673 51.0646 109.459 51.6059C109.567 48.6289 110.377 45.2731 112.645 41.9172C114.697 38.8862 111.079 32.4451 113.509 28.7104C115.345 25.8417 121.663 27.5737 122.69 23.4601C124.418 16.0448 127.874 15.5035 134.678 13.7715Z" fill="#68A3FC"></path>
        <path d="M23.162 114.283C23.162 114.283 20.8939 102.484 32.9905 100.102C48.6512 96.9628 29.3183 88.4649 42.3329 83.9183C55.3475 79.4258 93.5273 107.788 115.344 93.9317C137.161 80.0753 168.267 77.5855 173.505 89.3851C182.2 109.033 182.038 100.102 189.004 103.296C195.052 106.11 192.406 114.77 192.406 114.77L23.162 114.283Z" fill="#68A3FC"></path>
        <path d="M123.013 44.5155C123.013 44.5155 121.663 24.9759 152.228 28.3858C152.228 28.3858 150.338 36.992 143.048 37.3708C134.677 37.8039 139.051 47.3301 123.013 44.5155Z" fill="#5994ED"></path>
        <path d="M119.395 114.555H108.324V89.1699H124.147V109.846C124.147 112.444 122.041 114.555 119.395 114.555Z" fill="#2D538A"></path>
        <path d="M118.692 112.606H106.218V87.2207H122.041V109.304C122.041 111.09 120.529 112.606 118.692 112.606Z" fill="#2D538A"></path>
        <path d="M165.567 103.08H66.6341C64.744 103.08 63.1779 101.51 63.1779 99.6157V45.2727C63.1779 43.3783 64.744 41.8086 66.6341 41.8086H165.567C167.457 41.8086 169.023 43.3783 169.023 45.2727V99.6157C169.023 101.564 167.457 103.08 165.567 103.08Z" fill="#2D538A"></path>
        <path d="M161.03 103.08H62.0978C60.2077 103.08 58.6417 101.51 58.6417 99.6157V45.2727C58.6417 43.3783 60.2077 41.8086 62.0978 41.8086H161.03C162.921 41.8086 164.487 43.3783 164.487 45.2727V99.6157C164.487 101.564 162.921 103.08 161.03 103.08Z" fill="#0047FF"></path>
        <path d="M60.0457 99.6701V45.273C60.0457 44.1364 60.9638 43.1621 62.1518 43.1621H161.084C162.219 43.1621 163.191 44.0823 163.191 45.273V99.616C163.191 100.753 162.273 101.727 161.084 101.727H62.0978C60.9638 101.727 60.0457 100.807 60.0457 99.6701Z" fill="#8ED5FF"></path>
        <path d="M156.062 56.6934H92.2852V74.9881H156.062V56.6934Z" fill="#9CDBFF"></path>
        <path d="M156.062 80.4004H68.0381V87.3827H156.062V80.4004Z" fill="#9CDBFF"></path>
        <path d="M156.062 48.5195H68.0381V51.2259H156.062V48.5195Z" fill="#9CDBFF"></path>
        <path d="M156.062 93.7148H68.0381V96.4212H156.062V93.7148Z" fill="#9CDBFF"></path>
        <path d="M95.6334 112.605H109.782C110.322 112.605 110.754 113.038 110.754 113.58C110.754 114.121 110.322 114.554 109.782 114.554H95.6334C95.0934 114.554 94.6614 114.121 94.6614 113.58C94.6074 113.038 95.0394 112.605 95.6334 112.605Z" fill="#0047FF"></path>
        <path d="M153.47 59.5078H116.262V72.444H153.47V59.5078Z" fill="#83C8F2"></path>
        <path d="M113.022 59.3457H60.2617V72.2819H113.022V59.3457Z" fill="#83C8F2"></path>
        <path d="M59.0197 94.9601C59.0197 94.9601 42.8189 88.6273 42.8189 78.7222C42.8189 68.817 40.0108 69.0877 35.4746 67.4097C30.9384 65.7318 31.5324 61.4558 33.2065 58.533C34.8806 55.6102 27.3742 53.5534 27.3742 53.5534C27.3742 53.5534 31.2624 49.7104 35.8526 52.958C40.3888 56.2597 39.3628 62.0512 44.223 61.4017C49.4612 60.6981 52.4854 61.9971 53.2954 65.9483C54.5375 72.0105 59.5057 68.7629 63.6639 73.3095C67.7681 77.8562 59.0197 94.9601 59.0197 94.9601Z" fill="#5994ED"></path>
        <path d="M57.9936 113.581C54.9155 112.336 53.4574 108.872 54.6995 105.786L69.4422 68.9805L80.5127 73.4188L65.77 110.225C64.528 113.31 61.0718 114.826 57.9936 113.581Z" fill="#2D538A"></path>
        <path d="M114.372 53.1222C111.618 66.3291 99.9536 75.3682 87.047 75.3682C85.1569 75.3682 83.2128 75.1517 81.2687 74.7728L73.8164 73.2032C75.0584 73.4738 76.3545 73.6362 77.5966 73.7444C91.3132 74.7187 104.058 65.409 106.92 51.5526C109.836 37.6962 101.952 24.0563 88.9911 19.4014C87.803 18.9684 86.561 18.6437 85.3189 18.373L92.6633 19.9427C92.7173 19.9427 92.7173 19.9427 92.7713 19.9427C107.892 23.082 117.558 37.9668 114.372 53.1222Z" fill="#FF8547"></path>
        <path d="M88.9911 19.4008C87.803 18.9677 86.561 18.643 85.3189 18.3723C70.1982 15.1789 55.4015 24.8675 52.2154 40.0229C49.0292 55.1784 58.7497 70.009 73.8164 73.2025C75.0584 73.4731 76.3545 73.6355 77.5966 73.7437C91.3132 74.718 104.058 65.4083 106.92 51.5519C109.836 37.6955 101.952 24.0556 88.9911 19.4008ZM104.814 51.1189C104.76 51.4978 104.652 51.8225 104.544 52.2014C104.49 52.3638 104.49 52.5262 104.436 52.6885C104.22 53.3922 104.004 54.0958 103.788 54.7453C103.734 54.9077 103.68 55.0701 103.626 55.2325C103.572 55.3949 103.518 55.5572 103.41 55.7196C103.356 55.882 103.248 56.0444 103.194 56.2068C103.14 56.3691 103.032 56.5315 102.978 56.6939C102.168 58.4259 101.196 60.0497 100.062 61.5653C99.9536 61.7277 99.8456 61.8359 99.7376 61.9442C98.3335 63.7303 96.6595 65.3 94.8774 66.6532C94.7154 66.7614 94.6074 66.8697 94.4454 66.9779C94.2833 67.0862 94.1753 67.1944 94.0133 67.3027C93.4733 67.6816 92.9873 68.0063 92.4473 68.277C92.3393 68.3311 92.2312 68.3852 92.1232 68.4393C91.9612 68.5476 91.7452 68.6558 91.5832 68.71C91.3672 68.8182 91.1512 68.9265 90.9352 69.0347C90.2872 69.3595 89.6391 69.6301 88.9371 69.9008C88.8291 69.9549 88.7211 70.009 88.6131 70.009C88.5051 70.0631 88.3971 70.1173 88.2891 70.1173C87.965 70.2255 87.641 70.3338 87.317 70.442C85.5889 70.9833 83.8069 71.3622 82.0248 71.5246C79.5407 71.7411 76.9485 71.6328 74.3564 71.0915C73.0603 70.8209 71.8183 70.442 70.6302 70.009C61.9358 63.7303 57.2916 52.7427 59.6137 41.5926C61.9358 30.4426 70.5762 22.2695 80.9987 19.942C82.2948 19.9961 83.5368 20.2126 84.8329 20.4833C87.425 21.0245 89.8551 21.9447 92.0152 23.1896C92.2312 23.2979 92.4473 23.4602 92.6633 23.5685C92.7173 23.5685 92.7713 23.6226 92.7713 23.6226C93.2573 23.8933 93.7433 24.218 94.1753 24.5428C94.3913 24.7051 94.6614 24.8675 94.8774 25.0299C94.8774 25.0299 94.8774 25.0299 94.9314 25.0299C95.1474 25.1923 95.3094 25.3005 95.4714 25.4629C95.5794 25.517 95.6874 25.6253 95.7414 25.6794C95.9034 25.7877 96.0654 25.9501 96.1734 26.0583C96.3894 26.2207 96.5515 26.3831 96.7675 26.5454C97.4155 27.1408 98.0635 27.7904 98.6576 28.494C98.9816 28.8729 99.3056 29.2518 99.6296 29.6848C99.8456 29.9554 100.008 30.1719 100.224 30.4426C100.386 30.6591 100.548 30.8756 100.71 31.0921C100.71 31.0921 100.71 31.1462 100.764 31.1462C100.926 31.3627 101.088 31.6333 101.196 31.8498C101.358 32.0663 101.52 32.337 101.628 32.5535C101.736 32.7159 101.844 32.9324 101.952 33.0948C102.006 33.203 102.06 33.3113 102.114 33.3654C102.222 33.5278 102.276 33.6901 102.384 33.8525C102.438 33.9608 102.492 34.069 102.546 34.2314C102.6 34.3938 102.708 34.5562 102.762 34.6644C103.14 35.4222 103.464 36.2341 103.734 37.046C103.788 37.2084 103.842 37.3166 103.896 37.4249C103.95 37.5872 104.004 37.8038 104.058 37.9661C104.112 38.2368 104.22 38.4533 104.274 38.7239C104.382 39.1028 104.49 39.4275 104.544 39.8064C104.598 40.0229 104.652 40.2936 104.706 40.5101C104.76 40.7807 104.814 41.0513 104.868 41.3761C104.922 41.5385 104.922 41.755 104.976 41.9174C104.976 42.0797 105.03 42.188 105.03 42.3504C105.084 42.621 105.084 42.8375 105.138 43.1082C105.192 43.3788 105.192 43.6494 105.192 43.92C105.192 44.2448 105.246 44.5696 105.246 44.9484C105.246 45.2191 105.246 45.4897 105.246 45.7603C105.354 47.5465 105.192 49.3327 104.814 51.1189Z" fill="#FFDF9A"></path>
        <path d="M70.5222 70.0097C58.7497 65.6255 51.6213 53.1223 54.3215 40.4567C56.9676 27.7911 68.5241 19.2391 81.0527 19.9428C70.6302 22.2161 61.9898 30.4433 59.6677 41.5933C57.2916 52.7434 61.9358 63.7311 70.5222 70.0097Z" fill="#63B4FF"></path>
        <path opacity="0.79" d="M104.814 51.1183C101.898 65.0829 88.1811 74.0679 74.2484 71.0909C72.9523 70.8203 71.7103 70.4414 70.5222 70.0084C61.9358 63.7297 57.2916 52.7421 59.6137 41.592C61.9358 30.4419 70.5762 22.2688 80.9987 19.9414C82.2948 19.9955 83.5368 20.212 84.8329 20.4827C98.8196 23.4055 107.73 37.1536 104.814 51.1183Z" fill="#8ED5FF"></path>
        <path d="M69.9282 49.874C69.9282 49.874 74.8965 69.7925 80.5127 73.4731C80.5127 73.4731 77.6506 74.4474 75.5985 73.7979C73.5464 73.1483 67.1741 62.4313 64.69 55.5031C62.1519 48.5749 69.9282 49.874 69.9282 49.874Z" fill="#2D538A"></path>
        <path d="M70.3602 37.1543C70.3602 37.1543 70.2522 39.59 69.8202 40.6184C69.3882 41.6468 69.2262 43.3247 68.3081 44.0284C67.3901 44.7861 65.986 44.3531 65.986 44.3531L65.338 45.8687C65.338 45.8687 61.2338 44.4614 61.2878 44.1907C61.3418 43.9201 61.9899 42.0798 61.9899 42.0798L70.3602 37.1543Z" fill="#EBB18A"></path>
        <path d="M61.7199 42.9452C61.7199 42.9452 65.23 44.4066 65.9861 44.3525C65.9861 44.3525 72.8444 37.2619 69.9822 34.5556C67.1201 31.8493 63.2319 32.2823 62.3139 34.8804C61.1258 38.4527 61.5038 42.7829 61.7199 42.9452Z" fill="#2D538A"></path>
        <path d="M68.9562 40.9432C68.9562 40.9432 68.9562 39.8607 68.0381 40.1313C67.1741 40.402 66.9041 42.4046 67.3901 42.567C67.8761 42.7294 68.6862 42.3505 68.6862 42.3505L68.9562 40.9432Z" fill="#EBB18A"></path>
        <path d="M68.6862 40.186C68.6862 40.186 69.0642 40.5108 68.9022 41.2144C68.9022 41.2144 69.1722 41.3227 69.2802 40.8897C69.4422 40.4567 70.2522 38.3457 70.3602 37.588C70.5222 36.8302 68.6862 40.186 68.6862 40.186Z" fill="#2D538A"></path>
        <path d="M69.7122 38.1279C69.7122 38.1279 71.4403 38.3444 72.0883 37.1536L70.2522 34.8262L69.7122 38.1279Z" fill="#2D538A"></path>
        <path d="M55.0775 72.8775L53.2955 79.1562L43.521 114.068L40.3348 111.903C43.683 89.9274 44.655 83.5946 46.8691 71.0373C47.3552 68.4392 49.6773 63.5137 49.6773 63.5137L57.0756 67.519L55.0775 72.8775Z" fill="#FF8547"></path>
        <path d="M63.1779 92.1459C63.0159 93.8779 56.5896 110.224 55.3475 114.067H51.7294C52.5934 110.224 57.3456 93.7156 56.6436 90.901C56.0496 88.5194 54.5915 83.4857 53.3495 79.1014C52.1614 74.9337 51.1353 71.4155 51.1353 71.4155L54.4835 66.2734L60.3698 68.2761C60.3698 68.3302 63.3399 90.1973 63.1779 92.1459Z" fill="#FF8547"></path>
        <path d="M51.3513 38.291C51.3513 38.291 48.5432 38.291 48.4352 42.7294C48.3812 45.3816 50.4873 46.9513 50.9733 48.3585C53.2954 54.6913 46.5991 66.9239 47.6252 67.4652C47.9492 67.6276 50.2713 67.8982 52.2154 68.3312C54.8075 68.8725 57.9397 69.6302 59.8838 70.1715C61.0178 70.4963 62.2059 69.955 62.7459 68.8725C64.636 64.9754 69.0102 55.828 69.9822 51.6061C70.9543 47.276 64.204 44.5156 58.1557 42.6211C55.8336 41.9175 52.7014 41.5927 52.5934 39.157C52.5934 38.9947 52.4314 38.291 51.3513 38.291Z" fill="#2D538A"></path>
        <path d="M75.4365 73.6889L78.2986 71.2532C78.2986 71.2532 80.7827 70.4413 81.9168 71.5239C82.1328 71.7404 80.4587 71.6321 80.4587 71.6321C80.4587 71.6321 81.8088 73.31 83.0508 73.5807C84.2929 73.8513 82.6728 75.3668 80.8367 75.3668C78.2446 75.3668 75.9765 74.3926 75.4365 73.6889Z" fill="#EBB18A"></path>
        <path d="M51.7294 114.067L59.9918 114.013L60.0458 113.201L56.0496 112.064H52.2694L51.7294 114.067Z" fill="#2D538A"></path>
        <path d="M40.7669 114.068L48.2732 114.014L48.3272 113.202L44.331 112.065L40.3888 111.957L40.1728 113.418C40.0648 113.743 40.3888 114.068 40.7669 114.068Z" fill="#2D538A"></path>
        <path d="M181.335 60.807C181.065 60.9694 177.339 63.1886 174.963 68.6013C172.749 73.6891 175.989 79.7513 170.211 88.2492C168.375 91.0096 164.001 93.7159 156.602 96.2058C145.64 99.8864 145.802 113.418 131.707 114.555C131.707 114.555 130.681 108.763 132.949 102.051C134.245 98.1002 136.621 93.8783 140.942 90.2518C144.83 87.0043 142.454 76.9367 147.152 72.8231C150.716 69.6838 158.6 74.4469 161.517 69.2508C166.701 59.941 171.561 60.5364 181.335 60.807Z" fill="#5994ED"></path>
        <path d="M181.335 60.8066C181.011 60.8608 170.751 62.5928 169.131 67.6807C167.511 72.8227 163.083 76.5574 156.224 79.7509C152.012 81.7536 148.61 93.499 137.485 101.51C131.923 105.515 131.707 114.608 131.707 114.608C131.707 114.608 130.681 108.817 132.949 102.105C134.245 98.1539 136.621 93.932 140.942 90.3055C144.83 87.058 142.454 76.9904 147.152 72.8768C150.716 69.7375 158.6 74.5006 161.517 69.3045C166.701 59.9406 171.561 60.536 181.335 60.8066Z" fill="#68A3FC"></path>
    </g>
    <path d="M229.545 114.956H0.945502C0.42511 114.956 0 114.661 0 114.299C0 113.938 0.42511 113.643 0.945502 113.643H229.545C230.065 113.643 230.49 113.938 230.49 114.299C230.483 114.661 230.065 114.956 229.545 114.956Z" fill="#163560"></path>
    <path fill-rule="evenodd" clip-rule="evenodd" d="M104.295 132.001H104.876V127.619H104.301V131.011L102.089 127.619H101.509V132.001H102.089V128.624L104.295 132.001ZM109.073 132.001H109.654V127.619H109.073V129.503H106.865V127.619H106.287V132.001H106.865V129.975H109.073V132.001ZM111.291 132.001L111.703 130.857H113.539L113.957 132.001H114.55L112.874 127.619H112.368L110.695 132.001H111.291ZM113.367 130.382H111.878L112.621 128.332L113.367 130.382ZM112.474 127.33H112.952L112.368 126.446H111.697L112.474 127.33ZM119.918 127.619L118.868 129.298L117.812 127.619H117.135L118.522 129.792L117.102 132.001H117.785L118.868 130.291L119.945 132.001H120.631L119.214 129.792L120.598 127.619H119.918ZM124.772 130.598V127.619H124.191V130.589C124.191 130.906 124.104 131.152 123.929 131.327C123.757 131.501 123.507 131.588 123.18 131.588C122.857 131.588 122.608 131.501 122.434 131.327C122.259 131.15 122.172 130.903 122.172 130.586V127.619H121.6V130.604C121.604 131.058 121.749 131.414 122.034 131.673C122.319 131.931 122.701 132.061 123.18 132.061L123.334 132.055C123.775 132.023 124.124 131.875 124.381 131.612C124.64 131.35 124.77 131.012 124.772 130.598ZM126.174 132.001L126.587 130.857H128.422L128.84 132.001H129.433L127.757 127.619H127.252L125.578 132.001H126.174ZM128.251 130.382H126.761L127.504 128.332L128.251 130.382ZM127.748 126.542H127.291L126.412 127.333H127.008L127.519 126.855L128.028 127.333H128.621L127.748 126.542ZM129.427 126.021H128.825L128.398 126.801H128.822L129.427 126.021ZM131.636 128.095H133.044V127.619H129.656V128.095H131.061V132.001H131.636V128.095ZM135.873 127.619V132.001H137.392C137.858 132.001 138.218 131.888 138.473 131.664C138.727 131.439 138.855 131.13 138.855 130.737C138.855 130.48 138.785 130.259 138.647 130.075C138.511 129.888 138.324 129.762 138.087 129.696C138.288 129.609 138.446 129.488 138.563 129.332C138.679 129.173 138.737 128.991 138.737 128.787C138.737 128.402 138.617 128.111 138.376 127.914C138.138 127.718 137.78 127.619 137.305 127.619H135.873ZM136.45 131.528V129.951H137.413C137.987 129.951 138.274 130.215 138.274 130.743C138.274 130.988 138.196 131.18 138.039 131.321C137.885 131.459 137.673 131.528 137.404 131.528H136.45ZM137.323 129.488H136.45V128.095H137.305C137.592 128.095 137.806 128.15 137.946 128.26C138.086 128.369 138.157 128.543 138.157 128.784C138.157 129.001 138.08 129.172 137.928 129.298C137.777 129.425 137.576 129.488 137.323 129.488ZM140.681 130.857H142.517L142.935 132.001H143.528L141.852 127.619H141.346L139.673 132.001H140.269L140.681 130.857ZM142.345 130.382H140.856L141.599 128.332L142.345 130.382ZM141.421 126.825L141.424 127.285H141.822L141.825 127.072C141.979 127.05 142.096 126.998 142.174 126.918C142.252 126.838 142.291 126.737 142.291 126.614C142.291 126.444 142.214 126.307 142.059 126.205C141.905 126.101 141.678 126.049 141.379 126.049L141.358 126.368C141.509 126.368 141.629 126.388 141.719 126.428C141.812 126.466 141.858 126.524 141.858 126.602C141.858 126.68 141.823 126.735 141.752 126.765C141.682 126.795 141.572 126.815 141.421 126.825ZM147.289 132.001H147.87V127.619H147.295V131.011L145.084 127.619H144.503V132.001H145.084V128.624L147.289 132.001ZM103.988 136.619L102.938 138.298L101.882 136.619H101.205L102.592 138.792L101.172 141.001H101.855L102.938 139.291L104.015 141.001H104.701L103.284 138.792L104.668 136.619H103.988ZM105.929 141.001L106.341 139.857H108.177L108.595 141.001H109.188L107.512 136.619H107.006L105.333 141.001H105.929ZM108.005 139.382H106.516L107.259 137.332L108.005 139.382ZM108.183 136.3V136.27L107.44 135.446H107.102L106.362 136.264V136.3H106.823L107.271 135.789L107.722 136.3H108.183ZM112.359 136.619L111.216 138.819L110.078 136.619H109.416L110.927 139.367V141.001H111.505V139.367L113.015 136.619H112.359ZM115.88 136.619V141.001H117.093C117.486 140.997 117.83 140.911 118.125 140.745C118.422 140.578 118.649 140.34 118.808 140.029C118.968 139.718 119.049 139.356 119.049 138.942V138.663C119.047 138.259 118.965 137.902 118.805 137.591C118.646 137.28 118.421 137.041 118.128 136.872C117.835 136.704 117.498 136.619 117.117 136.619H115.88ZM116.458 140.528V137.095H117.132C117.561 137.099 117.892 137.239 118.125 137.516C118.36 137.791 118.477 138.177 118.477 138.675V138.93C118.477 139.442 118.353 139.836 118.104 140.113C117.857 140.39 117.511 140.528 117.066 140.528H116.458ZM123.394 137.26V136.619H122.813V139.589C122.813 139.906 122.726 140.152 122.551 140.327C122.379 140.501 122.129 140.588 121.802 140.588C121.479 140.588 121.23 140.501 121.056 140.327C120.881 140.15 120.794 139.903 120.794 139.586V136.619H120.222V139.604C120.226 140.058 120.371 140.414 120.656 140.673C120.94 140.931 121.323 141.061 121.802 141.061L122.022 141.049C122.445 141.005 122.779 140.852 123.024 140.591C123.268 140.331 123.392 140.001 123.394 139.601V137.67C123.783 137.645 124.066 137.529 124.242 137.32C124.421 137.11 124.51 136.794 124.51 136.373H124.032C124.032 136.667 123.983 136.884 123.884 137.023C123.788 137.159 123.625 137.238 123.394 137.26ZM121.618 141.533C121.564 141.595 121.537 141.672 121.537 141.762C121.537 141.852 121.564 141.927 121.618 141.988C121.675 142.048 121.757 142.078 121.865 142.078C121.974 142.078 122.056 142.048 122.112 141.988C122.168 141.927 122.196 141.852 122.196 141.762C122.196 141.672 122.168 141.595 122.112 141.533C122.056 141.471 121.974 141.44 121.865 141.44C121.757 141.44 121.675 141.471 121.618 141.533ZM127.766 141.001H128.347V136.619H127.772V140.011L125.56 136.619H124.98V141.001H125.56V137.624L127.766 141.001ZM132.37 140.904C132.637 140.798 132.844 140.639 132.993 140.426V138.819H131.404V139.288H132.418V140.272C132.312 140.387 132.177 140.468 132.015 140.516C131.852 140.564 131.663 140.588 131.446 140.588C131.063 140.588 130.759 140.444 130.534 140.155C130.31 139.864 130.197 139.473 130.197 138.981V138.623C130.199 138.108 130.3 137.715 130.498 137.444C130.699 137.171 130.993 137.035 131.38 137.035C131.962 137.035 132.307 137.324 132.415 137.904H132.993C132.931 137.475 132.76 137.144 132.481 136.911C132.203 136.676 131.834 136.559 131.377 136.559C130.819 136.559 130.386 136.741 130.077 137.104C129.77 137.467 129.617 137.978 129.617 138.638V139.021C129.621 139.428 129.698 139.786 129.848 140.095C130.001 140.404 130.216 140.643 130.492 140.811C130.769 140.978 131.086 141.061 131.443 141.061C131.796 141.061 132.105 141.009 132.37 140.904Z" fill="#CCD7F3"></path>
    <mask id="mask0" mask-type="alpha" maskunits="userSpaceOnUse" x="82" y="125" width="17" height="18">
        <path fill-rule="evenodd" clip-rule="evenodd" d="M82.002 125.516H98.033V142.884H82.002V125.516Z" fill="white"></path>
    </mask>
    <g mask="url(#mask0)">
        <path fill-rule="evenodd" clip-rule="evenodd" d="M90.0168 142.884C89.698 142.34 89.0442 141.571 88.271 141.547H82.0013V125.516H88.4185C89.0221 125.551 89.5806 125.86 90.0168 126.323C90.4531 125.86 91.0116 125.551 91.6153 125.516H98.0324V141.547H91.7626C90.9896 141.571 90.3357 142.34 90.0168 142.884ZM90.0171 127.942C89.6205 127.592 89.0712 126.93 88.3837 126.93H83.3044V140.131H88.3431C89.0542 140.131 89.6504 140.427 90.0171 140.974C90.3837 140.427 90.9799 140.131 91.6912 140.131H96.7299V126.93H91.6504C90.9629 126.93 90.4136 127.592 90.0171 127.942Z" fill="#CCD7F3"></path>
    </g>
    <mask id="mask1" mask-type="alpha" maskunits="userSpaceOnUse" x="82" y="125" width="17" height="18">
        <path fill-rule="evenodd" clip-rule="evenodd" d="M82.0023 142.532H98.0644V125.48H82.0023V142.532Z" fill="white"></path>
    </mask>
    <g mask="url(#mask1)">
        <path fill-rule="evenodd" clip-rule="evenodd" d="M84.5111 139.232H86.1326V137.434H84.5111V139.232ZM96.0489 130.736V130.745L96.0553 130.747L96.0489 130.77V131.14H90.4608V134.118H90.0967V131.14H88.111V130.736L90.2797 128.781L96.0225 130.736H96.0489ZM88.733 130.735H90.097V129.459L88.733 130.735ZM90.4614 129.264V130.735H94.7823L90.4614 129.264ZM94.4271 134.828H96.0486V133.029H94.4271V134.828ZM86.4959 134.828H88.1175V133.029H86.4959V134.828ZM84.5111 134.828H86.1326V133.029H84.5111V134.828ZM84.5111 137.029H86.1326V135.23H84.5111V137.029ZM86.4959 137.029H88.1175V135.23H86.4959V137.029ZM88.482 137.029H90.1035V135.23H88.482V137.029ZM90.4667 137.029H92.0884V135.23H90.4667V137.029ZM94.4271 139.232H96.0486V137.434H94.4271V139.232ZM92.4423 139.232H94.0638V137.434H92.4423V139.232ZM90.4667 139.232H92.0884V137.434H90.4667V139.232ZM88.482 139.232H90.1035V137.434H88.482V139.232ZM86.4959 139.232H88.1175V137.434H86.4959V139.232Z" fill="#CCD7F3"></path>
    </g>
    <defs>
        <clippath id="clip0"></clippath>
        <rect width="170" height="101" fill="white" transform="translate(23 13.7715)"></rect>
    </defs>
</svg>