<svg width="16" height="22" viewBox="0 0 16 22" fill="none" xmlns="http://www.w3.org/2000/svg">
<path d="M8 16.6025C9.1 16.6025 10 15.7025 10 14.6025C10 13.5025 9.1 12.6025 8 12.6025C6.9 12.6025 6 13.5025 6 14.6025C6 15.7025 6.9 16.6025 8 16.6025ZM14 7.60254H13V5.60254C13 2.84254 10.76 0.602539 8 0.602539C5.24 0.602539 3 2.84254 3 5.60254V7.60254H2C0.9 7.60254 0 8.50254 0 9.60254V19.6025C0 20.7025 0.9 21.6025 2 21.6025H14C15.1 21.6025 16 20.7025 16 19.6025V9.60254C16 8.50254 15.1 7.60254 14 7.60254ZM4.9 5.60254C4.9 3.89254 6.29 2.50254 8 2.50254C9.71 2.50254 11.1 3.89254 11.1 5.60254V7.60254H4.9V5.60254ZM14 19.6025H2V9.60254H14V19.6025Z" fill="#828282"/>
</svg>
