<svg width="51" height="53" viewBox="0 0 51 53" fill="none" xmlns="http://www.w3.org/2000/svg">
<mask id="mask0" mask-type="alpha" maskUnits="userSpaceOnUse" x="0" y="0" width="51" height="53">
<path fill-rule="evenodd" clip-rule="evenodd" d="M0 0.849609H50.5121V52.406H0V0.849609Z" fill="white"/>
</mask>
<g mask="url(#mask0)">
<path fill-rule="evenodd" clip-rule="evenodd" d="M25.2561 52.4061C24.2515 50.7917 22.1916 48.5087 19.7553 48.4375H0V0.849609H20.2201C22.1218 0.954109 23.8815 1.87323 25.2561 3.24658C26.6307 1.87323 28.3904 0.954109 30.2927 0.849609H50.5122V48.4375H30.7569C28.3212 48.5087 26.2607 50.7917 25.2561 52.4061ZM25.2561 8.05655C24.0066 7.01512 22.2759 5.0504 20.1096 5.0504H4.10524V44.2373H19.9816C22.2224 44.2373 24.1008 45.1155 25.2561 46.7406C26.4114 45.1155 28.2898 44.2373 30.5312 44.2373H46.4076V5.0504H30.4026C28.2363 5.0504 26.5057 7.01512 25.2561 8.05655Z" fill="#333333"/>
</g>
<path fill-rule="evenodd" clip-rule="evenodd" d="M44.2627 16.2002V16.1728H44.1759L25.2944 10.25L18.1637 16.1728V17.3971H24.6927V26.4209H25.8898V17.3971H44.2627V16.2753L44.2836 16.2068L44.2627 16.2002ZM11.6575 41.9167H6.32617V36.4672H11.6575V41.9167ZM20.2078 16.1728H24.6927V12.3067L20.2078 16.1728ZM25.8898 16.1728V11.7148L40.0964 16.1728H25.8898ZM38.9314 28.5699H44.2626V23.1204H38.9314V28.5699ZM18.1858 28.5699H12.854V23.1204H18.1858V28.5699ZM6.32617 28.5699H11.6575V23.1204H6.32617V28.5699ZM11.6575 35.243H6.32617V29.7935H11.6575V35.243ZM12.854 35.243H18.1858V29.7935H12.854V35.243ZM24.7131 35.243H19.3818V29.7935H24.7131V35.243ZM25.9096 35.243H31.2414V29.7935H25.9096V35.243ZM44.2626 41.9167H38.9314V36.4672H44.2626V41.9167ZM32.403 41.9167H37.7343V36.4672H32.403V41.9167ZM31.2414 41.9167H25.9096V36.4672H31.2414V41.9167ZM19.3818 41.9167H24.7131V36.4672H19.3818V41.9167ZM18.1858 41.9167H12.854V36.4672H18.1858V41.9167Z" fill="#333333"/>
</svg>
