<svg width="181" height="47" viewBox="0 0 181 47" fill="none" xmlns="http://www.w3.org/2000/svg">
<path d="M63.0625 18H61.5547L55.8281 9.23438V18H54.3203V6.625H55.8281L61.5703 15.4297V6.625H63.0625V18ZM75.4688 18H73.9609V12.7422H68.2266V18H66.7266V6.625H68.2266V11.5156H73.9609V6.625H75.4688V18ZM85.5547 15.0312H80.7891L79.7188 18H78.1719L82.5156 6.625H83.8281L88.1797 18H86.6406L85.5547 15.0312ZM81.2422 13.7969H85.1094L83.1719 8.47656L81.2422 13.7969ZM84.0312 5.875H82.7891L80.7734 3.57812H82.5156L84.0312 5.875ZM99.3906 10.9844L102.117 6.625H103.883L100.289 12.2656L103.969 18H102.188L99.3906 13.5625L96.5781 18H94.8047L98.4922 12.2656L94.8906 6.625H96.6484L99.3906 10.9844ZM114.719 6.625V14.3594C114.714 15.4323 114.375 16.3099 113.703 16.9922C113.036 17.6745 112.13 18.0573 110.984 18.1406L110.586 18.1562C109.341 18.1562 108.349 17.8203 107.609 17.1484C106.87 16.4766 106.495 15.5521 106.484 14.375V6.625H107.969V14.3281C107.969 15.151 108.195 15.7917 108.648 16.25C109.102 16.7031 109.747 16.9297 110.586 16.9297C111.435 16.9297 112.083 16.7031 112.531 16.25C112.984 15.7969 113.211 15.1589 113.211 14.3359V6.625H114.719ZM124.195 15.0312H119.43L118.359 18H116.812L121.156 6.625H122.469L126.82 18H125.281L124.195 15.0312ZM119.883 13.7969H123.75L121.812 8.47656L119.883 13.7969ZM121.258 3.82812H122.445L124.711 5.88281H123.172L121.852 4.64062L120.523 5.88281H118.977L121.258 3.82812ZM125.242 2.47656H126.805L125.234 4.5H124.133L125.242 2.47656ZM136.195 7.85938H132.539V18H131.047V7.85938H127.398V6.625H136.195V7.85938ZM143.539 18V6.625H147.258C148.492 6.625 149.419 6.88021 150.039 7.39062C150.664 7.90104 150.977 8.65625 150.977 9.65625C150.977 10.1875 150.826 10.6589 150.523 11.0703C150.221 11.4766 149.81 11.7917 149.289 12.0156C149.904 12.1875 150.388 12.5156 150.742 13C151.102 13.4792 151.281 14.0521 151.281 14.7188C151.281 15.7396 150.951 16.5417 150.289 17.125C149.628 17.7083 148.693 18 147.484 18H143.539ZM145.039 12.6797V16.7734H147.516C148.214 16.7734 148.763 16.5938 149.164 16.2344C149.57 15.8698 149.773 15.3698 149.773 14.7344C149.773 13.3646 149.029 12.6797 147.539 12.6797H145.039ZM145.039 11.4766H147.305C147.961 11.4766 148.484 11.3125 148.875 10.9844C149.271 10.6562 149.469 10.2109 149.469 9.64844C149.469 9.02344 149.286 8.57031 148.922 8.28906C148.557 8.0026 148.003 7.85938 147.258 7.85938H145.039V11.4766ZM160.789 15.0312H156.023L154.953 18H153.406L157.75 6.625H159.062L163.414 18H161.875L160.789 15.0312ZM156.477 13.7969H160.344L158.406 8.47656L156.477 13.7969ZM157.953 5.75781L157.945 4.5625C158.336 4.53646 158.622 4.48438 158.805 4.40625C158.987 4.32812 159.078 4.1875 159.078 3.98438C159.078 3.78125 158.958 3.63021 158.719 3.53125C158.484 3.42708 158.172 3.375 157.781 3.375L157.836 2.54688C158.612 2.54688 159.201 2.68229 159.602 2.95312C160.003 3.21875 160.203 3.57292 160.203 4.01562C160.203 4.33333 160.102 4.59635 159.898 4.80469C159.695 5.01302 159.393 5.14583 158.992 5.20312L158.984 5.75781H157.953ZM174.688 18H173.18L167.453 9.23438V18H165.945V6.625H167.453L173.195 15.4297V6.625H174.688V18Z" fill="#4F4F4F"/>
<path d="M58.0312 32.9844L60.7578 28.625H62.5234L58.9297 34.2656L62.6094 40H60.8281L58.0312 35.5625L55.2188 40H53.4453L57.1328 34.2656L53.5312 28.625H55.2891L58.0312 32.9844ZM71.6328 37.0312H66.8672L65.7969 40H64.25L68.5938 28.625H69.9062L74.2578 40H72.7188L71.6328 37.0312ZM67.3203 35.7969H71.1875L69.25 30.4766L67.3203 35.7969ZM71.6484 27.7188V27.7969H70.4531L69.2812 26.4688L68.1172 27.7969H66.9219V27.7031L68.8438 25.5781H69.7188L71.6484 27.7188ZM79.5234 34.3359L82.4922 28.625H84.1953L80.2734 35.7578V40H78.7734V35.7578L74.8516 28.625H76.5703L79.5234 34.3359ZM91.6328 40V28.625H94.8438C95.8333 28.625 96.7083 28.8438 97.4688 29.2812C98.2292 29.7188 98.8151 30.3411 99.2266 31.1484C99.6432 31.9557 99.8542 32.8828 99.8594 33.9297V34.6562C99.8594 35.7292 99.651 36.6693 99.2344 37.4766C98.8229 38.2839 98.2318 38.9036 97.4609 39.3359C96.6953 39.7682 95.8021 39.9896 94.7812 40H91.6328ZM93.1328 29.8594V38.7734H94.7109C95.8672 38.7734 96.7656 38.4141 97.4062 37.6953C98.0521 36.9766 98.375 35.9531 98.375 34.625V33.9609C98.375 32.6693 98.0703 31.6667 97.4609 30.9531C96.8568 30.2344 95.9974 29.8698 94.8828 29.8594H93.1328ZM111.141 28.625V30.2891C111.74 30.2318 112.164 30.026 112.414 29.6719C112.669 29.3125 112.797 28.75 112.797 27.9844H114.039C114.039 29.0781 113.807 29.8984 113.344 30.4453C112.885 30.987 112.151 31.2891 111.141 31.3516V36.3672C111.135 37.4036 110.815 38.2604 110.18 38.9375C109.544 39.6146 108.677 40.0104 107.578 40.125L107.008 40.1562C105.763 40.1562 104.771 39.8203 104.031 39.1484C103.292 38.4766 102.917 37.5521 102.906 36.375V28.625H104.391V36.3281C104.391 37.151 104.617 37.7917 105.07 38.25C105.523 38.7031 106.169 38.9297 107.008 38.9297C107.857 38.9297 108.505 38.7031 108.953 38.25C109.406 37.7969 109.633 37.1589 109.633 36.3359V28.625H111.141ZM106.32 41.9766C106.32 41.7422 106.391 41.5443 106.531 41.3828C106.677 41.2214 106.891 41.1406 107.172 41.1406C107.453 41.1406 107.667 41.2214 107.812 41.3828C107.958 41.5443 108.031 41.7422 108.031 41.9766C108.031 42.2109 107.958 42.4062 107.812 42.5625C107.667 42.7188 107.453 42.7969 107.172 42.7969C106.891 42.7969 106.677 42.7188 106.531 42.5625C106.391 42.4062 106.32 42.2109 106.32 41.9766ZM124 40H122.492L116.766 31.2344V40H115.258V28.625H116.766L122.508 37.4297V28.625H124V40ZM136.062 38.5078C135.677 39.0599 135.138 39.474 134.445 39.75C133.758 40.0208 132.956 40.1562 132.039 40.1562C131.112 40.1562 130.289 39.9401 129.57 39.5078C128.852 39.0703 128.294 38.4505 127.898 37.6484C127.508 36.8464 127.307 35.9167 127.297 34.8594V33.8672C127.297 32.1536 127.695 30.8255 128.492 29.8828C129.294 28.9401 130.419 28.4688 131.867 28.4688C133.055 28.4688 134.01 28.7734 134.734 29.3828C135.458 29.987 135.901 30.8464 136.062 31.9609H134.562C134.281 30.4557 133.385 29.7031 131.875 29.7031C130.87 29.7031 130.107 30.0573 129.586 30.7656C129.07 31.4688 128.81 32.4896 128.805 33.8281V34.7578C128.805 36.0339 129.096 37.0495 129.68 37.8047C130.263 38.5547 131.052 38.9297 132.047 38.9297C132.609 38.9297 133.102 38.8672 133.523 38.7422C133.945 38.6172 134.294 38.4062 134.57 38.1094V35.5547H131.938V34.3359H136.062V38.5078Z" fill="#4F4F4F"/>
<mask id="mask0" mask-type="alpha" maskUnits="userSpaceOnUse" x="0" y="1" width="46" height="46">
<path fill-rule="evenodd" clip-rule="evenodd" d="M0 1.23755H45.5041V46.3302H0V1.23755Z" fill="white"/>
</mask>
<g mask="url(#mask0)">
<path fill-rule="evenodd" clip-rule="evenodd" d="M22.7519 46.3301C21.8468 44.9186 19.9912 42.9219 17.7965 42.8595H-0.000244141V1.2373H18.2152C19.9283 1.3287 21.5135 2.1326 22.7519 3.33428C23.9902 2.1326 25.5755 1.3287 27.2891 1.2373H45.504V42.8595H27.7073C25.5131 42.9219 23.6569 44.9186 22.7519 46.3301ZM22.7519 7.54072C21.6263 6.62984 20.0672 4.91145 18.1156 4.91145H3.698V39.1854H18.0004C20.019 39.1854 21.7112 39.9535 22.7519 41.3748C23.7927 39.9535 25.4848 39.1854 27.504 39.1854H41.8063V4.91145H27.3882C25.4366 4.91145 23.8776 6.62984 22.7519 7.54072Z" fill="#02010E"/>
</g>
<mask id="mask1" mask-type="alpha" maskUnits="userSpaceOnUse" x="0" y="1" width="46" height="45">
<path fill-rule="evenodd" clip-rule="evenodd" d="M0 45.4216H45.5923V1.15039H0V45.4216Z" fill="white"/>
</mask>
<g mask="url(#mask1)">
<path fill-rule="evenodd" clip-rule="evenodd" d="M7.12378 36.853H11.7264V32.1831H7.12378V36.853ZM39.8751 14.794V14.8174L39.8932 14.823L39.8751 14.8817V15.8424H24.0134V23.575H22.9799V15.8424H17.3433V14.794L23.4994 9.71899L39.8002 14.794H39.8751ZM19.1081 14.7939H22.98V11.4812L19.1081 14.7939ZM24.0134 10.9741V14.7939H36.2783L24.0134 10.9741ZM35.2725 25.4163H39.8751V20.747H35.2725V25.4163ZM12.7593 25.4163H17.3624V20.747H12.7593V25.4163ZM7.12378 25.4163H11.7264V20.747H7.12378V25.4163ZM7.12378 31.1342H11.7264V26.4648H7.12378V31.1342ZM12.7593 31.1342H17.3624V26.4648H12.7593V31.1342ZM18.3949 31.1342H22.9975V26.4648H18.3949V31.1342ZM24.0305 31.1342H28.6336V26.4648H24.0305V31.1342ZM35.2725 36.853H39.8751V32.1831H35.2725V36.853ZM29.6364 36.853H34.239V32.1831H29.6364V36.853ZM24.0305 36.853H28.6336V32.1831H24.0305V36.853ZM18.3949 36.853H22.9975V32.1831H18.3949V36.853ZM12.7593 36.853H17.3624V32.1831H12.7593V36.853Z" fill="#02010E"/>
</g>
</svg>
