<svg width="20" height="20" viewBox="0 0 20 20" fill="none" xmlns="http://www.w3.org/2000/svg">
<path fill-rule="evenodd" clip-rule="evenodd" d="M3.3335 4.16667C2.87707 4.16667 2.50016 4.54357 2.50016 5V15C2.50016 15.4564 2.87707 15.8333 3.3335 15.8333H16.6668C17.1233 15.8333 17.5002 15.4564 17.5002 15V5C17.5002 4.54357 17.1233 4.16667 16.6668 4.16667H3.3335ZM0.833496 5C0.833496 3.6231 1.95659 2.5 3.3335 2.5H16.6668C18.0437 2.5 19.1668 3.6231 19.1668 5V15C19.1668 16.3769 18.0437 17.5 16.6668 17.5H3.3335C1.95659 17.5 0.833496 16.3769 0.833496 15V5Z" fill="#828282"/>
<path fill-rule="evenodd" clip-rule="evenodd" d="M0.984208 4.52202C1.24814 4.14498 1.76775 4.05329 2.14479 4.31722L10.0002 9.81603L17.8557 4.31722C18.2327 4.05329 18.7523 4.14498 19.0163 4.52202C19.2802 4.89906 19.1885 5.41867 18.8115 5.6826L10.4781 11.5159C10.1912 11.7168 9.80928 11.7168 9.52235 11.5159L1.18902 5.6826C0.811975 5.41867 0.720279 4.89906 0.984208 4.52202Z" fill="#828282"/>
</svg>
