<svg width="12" height="16" viewBox="0 0 12 16" fill="none" xmlns="http://www.w3.org/2000/svg">
<path d="M11.5312 2.72852L8.9375 0.103516C8.65625 -0.177734 8.25 -0.333984 7.875 -0.333984H1.5C0.65625 -0.333984 0 0.353516 0 1.16602V14.166C0 15.0098 0.65625 15.666 1.5 15.666H10.5C11.3125 15.666 12 15.0098 12 14.166V3.79102C12 3.41602 11.8125 3.00977 11.5312 2.72852ZM10.375 3.66602H8V1.29102L10.375 3.66602ZM1.5 14.166V1.16602H6.5V4.41602C6.5 4.85352 6.8125 5.16602 7.25 5.16602H10.5V14.166H1.5ZM9.3125 9.69727C8.9375 9.32227 7.84375 9.41602 7.28125 9.47852C6.75 9.16602 6.40625 8.69727 6.15625 8.04102C6.25 7.54102 6.46875 6.75977 6.3125 6.29102C6.1875 5.47852 5.125 5.54102 4.96875 6.10352C4.84375 6.60352 4.96875 7.32227 5.1875 8.19727C4.875 8.94727 4.40625 9.94727 4.09375 10.541C3.46875 10.8535 2.625 11.3535 2.5 11.9785C2.40625 12.4785 3.3125 13.6973 4.875 11.0098C5.5625 10.7598 6.34375 10.4785 7 10.3535C7.59375 10.6973 8.28125 10.8848 8.75 10.8848C9.5625 10.8848 9.625 10.0098 9.3125 9.69727ZM3.125 12.1348C3.28125 11.6973 3.875 11.1973 4.0625 11.041C3.46875 11.9785 3.125 12.1348 3.125 12.1348ZM5.65625 6.16602C5.90625 6.16602 5.875 7.16602 5.71875 7.44727C5.59375 7.00977 5.59375 6.16602 5.65625 6.16602ZM4.90625 10.4473C5.21875 9.91602 5.46875 9.29102 5.6875 8.72852C5.9375 9.19727 6.25 9.57227 6.625 9.82227C5.96875 9.97852 5.40625 10.2285 4.90625 10.4473ZM9 10.291C9 10.291 8.84375 10.4785 7.84375 10.041C8.9375 9.94727 9.125 10.1973 9 10.291Z" fill="#828282"/>
</svg>
