<svg width="20" height="20" viewBox="0 0 20 20" fill="none" xmlns="http://www.w3.org/2000/svg">
<g clip-path="url(#clip0)">
<path d="M16.6665 19.0834C16.5832 19.0834 16.4998 19.0834 16.4165 19.0834C13.7498 18.7501 11.0832 17.8334 8.83317 16.4167C6.74984 15.0834 4.9165 13.2501 3.58317 11.1667C2.08317 8.91675 1.1665 6.25008 0.916504 3.58341C0.916504 2.91675 1.08317 2.25008 1.49984 1.75008C1.9165 1.25008 2.49984 0.916748 3.1665 0.833415C3.24984 0.833415 3.33317 0.833415 3.4165 0.833415H5.9165C7.1665 0.833415 8.24984 1.75008 8.4165 3.00008C8.49984 3.75008 8.6665 4.50008 8.9165 5.16675C9.24984 6.08341 8.99984 7.08341 8.33317 7.83341L7.74984 8.41675C8.74984 9.91675 9.99984 11.2501 11.5832 12.2501L12.1665 11.6667C12.8332 11.0001 13.9165 10.7501 14.8332 11.0834C15.4998 11.3334 16.2498 11.5001 16.9998 11.5834C18.2498 11.7501 19.1665 12.8334 19.1665 14.0834V16.5834C19.1665 17.2501 18.9165 17.9167 18.4165 18.3334C17.9165 18.7501 17.3332 19.0834 16.6665 19.0834ZM5.9165 2.50008H3.4165C3.1665 2.50008 2.9165 2.66675 2.74984 2.83341C2.6665 3.00008 2.58317 3.16675 2.58317 3.41675C2.83317 5.83341 3.6665 8.16675 4.99984 10.2501C6.24984 12.1667 7.83317 13.8334 9.74984 15.0001C11.8332 16.3334 14.1665 17.1667 16.5832 17.4167C16.9165 17.4167 17.0832 17.3334 17.2498 17.1667C17.4165 17.0001 17.4998 16.8334 17.4998 16.5834V14.0834C17.4998 13.6667 17.1665 13.3334 16.7498 13.2501C15.9165 13.1667 15.0832 12.9167 14.2498 12.5834C13.9165 12.5001 13.5832 12.5001 13.3332 12.7501L12.2498 13.8334C11.9998 14.0834 11.5832 14.1667 11.2498 14.0001C8.99984 12.7501 7.1665 10.9167 5.9165 8.66675C5.83317 8.33341 5.9165 7.91675 6.1665 7.66675L7.24984 6.58341C7.4165 6.41675 7.49984 6.00008 7.4165 5.75008C7.08317 4.91675 6.9165 4.08341 6.74984 3.25008C6.74984 2.83341 6.33317 2.50008 5.9165 2.50008ZM15.8332 8.33342C15.4165 8.33342 15.0832 8.08342 14.9998 7.66675C14.7498 6.33341 13.6665 5.33341 12.3332 5.00008C11.9165 4.91675 11.5832 4.50008 11.6665 4.00008C11.7498 3.58341 12.1665 3.25008 12.6665 3.33341C14.6665 3.75008 16.2498 5.25008 16.5832 7.25008C16.6665 7.66675 16.4165 8.16675 15.9165 8.25008C15.9165 8.25008 15.9165 8.33342 15.8332 8.33342ZM19.1665 8.25008C18.7498 8.25008 18.4165 7.91675 18.3332 7.50008C17.9998 4.41675 15.5832 2.00008 12.4165 1.58341C11.9998 1.50008 11.6665 1.08341 11.6665 0.666748C11.6665 0.250081 12.1665 -0.083252 12.5832 -0.083252C16.4998 0.333415 19.4998 3.33342 19.9165 7.25008C19.9998 7.66675 19.6665 8.08342 19.1665 8.16675C19.2498 8.25008 19.1665 8.25008 19.1665 8.25008Z" fill="#828282"/>
</g>
<defs>
<clipPath id="clip0">
<rect width="20" height="20" fill="white"/>
</clipPath>
</defs>
</svg>
