<svg width="17" height="16" viewBox="0 0 17 16" fill="none" xmlns="http://www.w3.org/2000/svg">
<path fill-rule="evenodd" clip-rule="evenodd" d="M8.07812 2.66683C5.5008 2.66683 3.41146 4.75617 3.41146 7.3335C3.41146 9.91083 5.5008 12.0002 8.07812 12.0002C10.6555 12.0002 12.7448 9.91083 12.7448 7.3335C12.7448 4.75617 10.6555 2.66683 8.07812 2.66683ZM2.07812 7.3335C2.07812 4.01979 4.76442 1.3335 8.07812 1.3335C11.3918 1.3335 14.0781 4.01979 14.0781 7.3335C14.0781 10.6472 11.3918 13.3335 8.07812 13.3335C4.76442 13.3335 2.07812 10.6472 2.07812 7.3335Z" fill="white"/>
<path fill-rule="evenodd" clip-rule="evenodd" d="M11.373 10.6284C11.6333 10.368 12.0555 10.368 12.3158 10.6284L15.2158 13.5284C15.4762 13.7887 15.4762 14.2108 15.2158 14.4712C14.9555 14.7315 14.5333 14.7315 14.273 14.4712L11.373 11.5712C11.1126 11.3108 11.1126 10.8887 11.373 10.6284Z" fill="white"/>
</svg>
