<svg width="16" height="15" viewBox="0 0 16 15" fill="none" xmlns="http://www.w3.org/2000/svg">
<path fill-rule="evenodd" clip-rule="evenodd" d="M15.3337 13.4261L11.5319 9.62433C13.3366 7.08797 12.8964 3.59179 10.5194 1.58187C8.14237 -0.428042 4.62166 -0.280986 2.42052 1.92015C0.21938 4.12129 0.0723243 7.642 2.08224 10.019C4.09215 12.3961 7.58834 12.8362 10.1247 11.0315L13.9265 14.8333L15.3337 13.4261ZM2.03042 6.17206C2.03042 3.60837 4.1087 1.53008 6.67239 1.53008C9.23609 1.53008 11.3144 3.60837 11.3144 6.17206C11.3144 8.73575 9.23609 10.814 6.67239 10.814C4.10991 10.8111 2.03334 8.73454 2.03042 6.17206Z" fill="#C1C0C8"/>
</svg>
