<svg width="12" height="16" viewBox="0 0 12 16" fill="none" xmlns="http://www.w3.org/2000/svg">
<path d="M11.5312 2.72852L8.9375 0.103516C8.65625 -0.177734 8.25 -0.333984 7.875 -0.333984H1.5C0.65625 -0.333984 0 0.353516 0 1.16602V14.166C0 15.0098 0.65625 15.666 1.5 15.666H10.5C11.3125 15.666 12 15.0098 12 14.166V3.79102C12 3.41602 11.8125 3.00977 11.5312 2.72852ZM10.375 3.66602H8V1.29102L10.375 3.66602ZM1.5 14.166V1.16602H6.5V4.41602C6.5 4.85352 6.8125 5.16602 7.25 5.16602H10.5V14.166H1.5ZM8.125 6.66602H7.21875C7.0625 6.66602 6.9375 6.75977 6.875 6.88477C6.3125 7.91602 6.1875 8.19727 6 8.66602C5.5625 7.75977 5.78125 8.13477 5.09375 6.88477C5.03125 6.75977 4.90625 6.66602 4.75 6.66602H3.875C3.5625 6.66602 3.40625 6.97852 3.53125 7.22852L4.96875 9.66602L3.53125 12.1035C3.375 12.3535 3.5625 12.666 3.875 12.666H4.75C4.90625 12.666 5.03125 12.6035 5.09375 12.4785C5.78125 11.2285 5.8125 11.0723 6 10.666C6.4375 11.6348 6.15625 11.166 6.875 12.4785C6.9375 12.6035 7.0625 12.666 7.21875 12.666H8.125C8.40625 12.666 8.59375 12.3535 8.4375 12.1035L7 9.66602C7 9.63477 7.9375 8.10352 8.4375 7.22852C8.59375 6.97852 8.40625 6.66602 8.125 6.66602Z" fill="#828282"/>
</svg>
