<svg xmlns="http://www.w3.org/2000/svg" viewBox="0 0 24 24"><path d="M.9 12C.9 5.9 5.9.9 12 .9s11.1 5 11.1 11.1-5 11.1-11.1 11.1S.9 18.1.9 12z" fill="#fff"/><path d="M14.7 6.6l.1.1v.4c0 .1 0 .1-.1.1L10.2 12l4.5 4.8.1.1v.4c0 .1 0 .1-.1.1l-.1.1h-.4l-.1-.1-4.7-5.1-.1-.1v-.4c0-.1 0-.1.1-.1l4.7-5.1.1-.1h.4l.1.1z" fill-rule="evenodd" clip-rule="evenodd" fill="#91909a"/><path d="M12 22.2C6.4 22.2 1.8 17.6 1.8 12H0c0 6.6 5.4 12 12 12v-1.8zM22.2 12c0 5.6-4.5 10.2-10.2 10.2V24c6.6 0 12-5.4 12-12h-1.8zM12 1.8c5.6 0 10.2 4.5 10.2 10.2H24c0-6.6-5.4-12-12-12v1.8zM12 0C5.4 0 0 5.4 0 12h1.8C1.8 6.4 6.4 1.8 12 1.8V0z" fill="#e5e5e5"/></svg>