<svg width="36" height="36" fill="none" xmlns="http://www.w3.org/2000/svg"><rect width="36" height="36" rx="18" fill="#F8F8F8"/><path d="M9.333 18a2.892 2.892 0 002.89 2.89c.764 0 1.455-.304 1.972-.79l5.77 3.297c-.018.125-.04.25-.04.381a2.892 2.892 0 002.89 2.89 2.892 2.892 0 002.889-2.89 2.892 2.892 0 00-2.89-2.888c-.764 0-1.455.303-1.972.79l-5.77-3.297c.018-.126.039-.251.039-.382s-.021-.257-.039-.383l5.77-3.296c.517.486 1.208.79 1.973.79a2.892 2.892 0 002.889-2.89 2.892 2.892 0 00-2.89-2.888 2.892 2.892 0 00-2.888 2.889c0 .13.021.256.038.382l-5.769 3.296a2.871 2.871 0 00-1.973-.79 2.892 2.892 0 00-2.889 2.89z" fill="#677788"/></svg>