<svg width="33" height="32" fill="none" xmlns="http://www.w3.org/2000/svg"><circle cx="16.035" cy="16" r="16" fill="#007BFF" fill-opacity=".2"/><circle cx="16.035" cy="16" r="13" fill="#007BFF"/><path d="M16.035 17.75c1.423 0 2.576-1.175 2.576-2.625v-3.5c0-1.45-1.153-2.625-2.576-2.625s-2.576 1.175-2.576 2.625v3.5c0 1.45 1.153 2.625 2.576 2.625zm5-2.656a.124.124 0 00-.121-.125h-.91a.124.124 0 00-.12.125c0 2.192-1.723 3.969-3.849 3.969-2.126 0-3.848-1.777-3.848-3.97a.124.124 0 00-.121-.124h-.91a.123.123 0 00-.12.125c0 2.636 1.917 4.81 4.393 5.118v1.6h-2.201c-.208 0-.375.224-.375.5v.563c0 .069.043.125.094.125h6.176c.052 0 .094-.056.094-.125v-.563c0-.276-.167-.5-.374-.5H16.58V20.22c2.504-.28 4.454-2.468 4.454-5.126z" fill="#fff"/></svg>