<svg width="19" height="19" viewBox="0 0 19 19" fill="none" xmlns="http://www.w3.org/2000/svg">
<path d="M9.5 1.1875C4.90957 1.1875 1.1875 4.90957 1.1875 9.5C1.1875 14.0904 4.90957 17.8125 9.5 17.8125C14.0904 17.8125 17.8125 14.0904 17.8125 9.5C17.8125 4.90957 14.0904 1.1875 9.5 1.1875ZM9.5 16.4023C5.68887 16.4023 2.59766 13.3111 2.59766 9.5C2.59766 5.68887 5.68887 2.59766 9.5 2.59766C13.3111 2.59766 16.4023 5.68887 16.4023 9.5C16.4023 13.3111 13.3111 16.4023 9.5 16.4023Z" fill="#828282"/>
<path d="M12.7415 11.849L10.0956 9.93603V5.34375C10.0956 5.26211 10.0288 5.19531 9.94717 5.19531H9.05469C8.97305 5.19531 8.90625 5.26211 8.90625 5.34375V10.4537C8.90625 10.5019 8.92852 10.5465 8.96748 10.5743L12.0364 12.812C12.1032 12.8602 12.196 12.8454 12.2442 12.7805L12.7749 12.0568C12.8231 11.9882 12.8083 11.8954 12.7415 11.849Z" fill="#828282"/>
</svg>
