<svg width="28" height="28" viewBox="0 0 28 28" fill="none" xmlns="http://www.w3.org/2000/svg">
<path d="M14 27.125C21.248 27.125 27.125 21.248 27.125 14C27.125 6.75195 21.248 0.874999 14 0.874999C6.75196 0.874998 0.875002 6.75195 0.875001 14C0.875001 21.248 6.75195 27.125 14 27.125ZM9.77832 13.7978L16.1768 9.14258C16.2118 9.11737 16.2532 9.10232 16.2963 9.09908C16.3393 9.09585 16.3825 9.10455 16.4209 9.12423C16.4594 9.14391 16.4917 9.1738 16.5142 9.21064C16.5368 9.24747 16.5488 9.28981 16.5488 9.33301L16.5488 18.6377C16.549 18.681 16.5371 18.7235 16.5146 18.7604C16.4921 18.7974 16.4598 18.8274 16.4212 18.8471C16.3827 18.8668 16.3395 18.8755 16.2963 18.8721C16.2532 18.8688 16.2118 18.8536 16.1768 18.8281L9.77832 14.1758C9.74809 14.1544 9.72343 14.1261 9.70642 14.0932C9.6894 14.0603 9.68051 14.0238 9.68051 13.9868C9.68051 13.9498 9.6894 13.9133 9.70642 13.8804C9.72343 13.8475 9.74809 13.8192 9.77832 13.7978Z" fill="white"/>
</svg>
