<svg width="28" height="28" viewBox="0 0 28 28" fill="none" xmlns="http://www.w3.org/2000/svg">
<path d="M14 0.875C6.75195 0.875 0.875 6.75195 0.875 14C0.875 21.248 6.75195 27.125 14 27.125C21.248 27.125 27.125 21.248 27.125 14C27.125 6.75195 21.248 0.875 14 0.875ZM18.2217 14.2021L11.8232 18.8574C11.7882 18.8826 11.7468 18.8977 11.7037 18.9009C11.6607 18.9042 11.6175 18.8955 11.5791 18.8758C11.5406 18.8561 11.5083 18.8262 11.4858 18.7894C11.4632 18.7525 11.4512 18.7102 11.4512 18.667V9.3623C11.451 9.31902 11.4629 9.27655 11.4854 9.23958C11.5079 9.20262 11.5402 9.17262 11.5788 9.1529C11.6173 9.13318 11.6605 9.12451 11.7037 9.12786C11.7468 9.13121 11.7882 9.14645 11.8232 9.17188L18.2217 13.8242C18.2519 13.8456 18.2766 13.8739 18.2936 13.9068C18.3106 13.9397 18.3195 13.9762 18.3195 14.0132C18.3195 14.0502 18.3106 14.0867 18.2936 14.1196C18.2766 14.1525 18.2519 14.1808 18.2217 14.2021Z" fill="white"/>
</svg>
