<svg width="22" height="22" viewBox="0 0 22 22" fill="none" xmlns="http://www.w3.org/2000/svg">
     <path d="M11 0C17.072 0 22 4.928 22 11C22 17.072 17.072 22 11 22C4.928 22 0 17.072 0 11C0 4.928 4.928 0 11 0ZM4.4253 14.7576C6.0401 17.1666 8.4645 18.7 11.176 18.7C13.8864 18.7 16.3119 17.1677 17.9256 14.7576C16.0949 13.0467 13.6817 12.0965 11.176 12.1C8.66988 12.0962 6.25626 13.0464 4.4253 14.7576ZM11 9.9C11.8752 9.9 12.7146 9.55232 13.3335 8.93345C13.9523 8.31458 14.3 7.47521 14.3 6.6C14.3 5.72479 13.9523 4.88542 13.3335 4.26655C12.7146 3.64768 11.8752 3.3 11 3.3C10.1248 3.3 9.28542 3.64768 8.66655 4.26655C8.04768 4.88542 7.7 5.72479 7.7 6.6C7.7 7.47521 8.04768 8.31458 8.66655 8.93345C9.28542 9.55232 10.1248 9.9 11 9.9Z" fill="#D4B26B"/>
</svg>
