<?xml version="1.0" encoding="utf-8"?>
<!-- Generator: Adobe Illustrator 25.4.1, SVG Export Plug-In . SVG Version: 6.00 Build 0)  -->
<svg version="1.1" id="Layer_1" xmlns="http://www.w3.org/2000/svg" xmlns:xlink="http://www.w3.org/1999/xlink" x="0px" y="0px"
	 viewBox="0 0 24 24" style="enable-background:new 0 0 24 24;" xml:space="preserve">
<style type="text/css">
	.st0{fill:#FFFFFF;}
	.st1{fill-rule:evenodd;clip-rule:evenodd;fill:#91909A;}
	.st2{fill:#E5E5E5;}
</style>
<path class="st0" d="M23.1,12c0,6.1-5,11.1-11.1,11.1c-6.1,0-11.1-5-11.1-11.1c0-6.1,5-11.1,11.1-11.1C18.1,0.9,23.1,5.9,23.1,12z"
	/>
<path class="st1" d="M9.3,17.4c0,0-0.1-0.1-0.1-0.1c0-0.1,0-0.1,0-0.2c0-0.1,0-0.1,0-0.2c0-0.1,0-0.1,0.1-0.1l4.5-4.8L9.3,7.2
	c0,0-0.1-0.1-0.1-0.1c0-0.1,0-0.1,0-0.2c0-0.1,0-0.1,0-0.2c0-0.1,0-0.1,0.1-0.1c0,0,0.1-0.1,0.1-0.1c0,0,0.1,0,0.2,0
	c0.1,0,0.1,0,0.2,0c0,0,0.1,0.1,0.1,0.1l4.7,5.1c0,0,0.1,0.1,0.1,0.1c0,0.1,0,0.1,0,0.2c0,0.1,0,0.1,0,0.2s0,0.1-0.1,0.1l-4.7,5.1
	c0,0-0.1,0.1-0.1,0.1c0,0-0.1,0-0.2,0c-0.1,0-0.1,0-0.2,0C9.4,17.5,9.4,17.5,9.3,17.4z"/>
<path class="st2" d="M12,1.8c5.6,0,10.2,4.5,10.2,10.2H24c0-6.6-5.4-12-12-12V1.8z M1.8,12C1.8,6.4,6.4,1.8,12,1.8V0
	C5.4,0,0,5.4,0,12H1.8z M12,22.2C6.4,22.2,1.8,17.6,1.8,12H0c0,6.6,5.4,12,12,12V22.2z M12,24c6.6,0,12-5.4,12-12h-1.8
	c0,5.6-4.5,10.2-10.2,10.2V24z"/>
</svg>
