<svg width="36" height="36" viewBox="0 0 36 36" fill="none" xmlns="http://www.w3.org/2000/svg">
<rect width="36" height="36" rx="18" fill="#F8F8F8"/>
<path d="M9.33325 18.0007C9.33325 19.5934 10.6294 20.8895 12.2221 20.8895C12.9867 20.8895 13.6781 20.5862 14.1953 20.0999L19.9644 23.3971C19.947 23.5223 19.9258 23.6475 19.9258 23.7784C19.9258 25.3712 21.222 26.6673 22.8147 26.6673C24.4075 26.6673 25.7036 25.3712 25.7036 23.7784C25.7036 22.1857 24.4075 20.8895 22.8147 20.8895C22.0501 20.8895 21.3587 21.1929 20.8416 21.6792L15.0725 18.3829C15.0898 18.2568 15.111 18.1316 15.111 18.0007C15.111 17.8697 15.0898 17.7445 15.0725 17.6184L20.8416 14.3221C21.3587 14.8084 22.0501 15.1118 22.8147 15.1118C24.4075 15.1118 25.7036 13.8156 25.7036 12.2229C25.7036 10.6301 24.4075 9.33398 22.8147 9.33398C21.222 9.33398 19.9258 10.6301 19.9258 12.2229C19.9258 12.3538 19.947 12.479 19.9644 12.6052L14.1953 15.9014C13.6627 15.3955 12.9566 15.1129 12.2221 15.1118C10.6294 15.1118 9.33325 16.4079 9.33325 18.0007Z" fill="#677788"/>
</svg>
