<svg width="33" height="32" viewBox="0 0 33 32" fill="none" xmlns="http://www.w3.org/2000/svg">
<circle cx="16.0352" cy="16" r="16" fill="#007BFF" fill-opacity="0.2"/>
<circle cx="16.0352" cy="16" r="13" fill="#007BFF"/>
<path d="M16.0352 17.75C17.4579 17.75 18.6109 16.575 18.6109 15.125V11.625C18.6109 10.175 17.4579 9 16.0352 9C14.6124 9 13.4594 10.175 13.4594 11.625V15.125C13.4594 16.575 14.6124 17.75 16.0352 17.75ZM21.0352 15.0938C21.0352 15.025 20.9806 14.9688 20.9139 14.9688H20.0049C19.9382 14.9688 19.8836 15.025 19.8836 15.0938C19.8836 17.2859 18.1609 19.0625 16.0352 19.0625C13.9094 19.0625 12.1867 17.2859 12.1867 15.0938C12.1867 15.025 12.1321 14.9688 12.0655 14.9688H11.1564C11.0897 14.9688 11.0352 15.025 11.0352 15.0938C11.0352 17.7297 12.9533 19.9047 15.4291 20.2125V21.8125H13.2276C13.02 21.8125 12.8533 22.0359 12.8533 22.3125V22.875C12.8533 22.9438 12.8958 23 12.9473 23H19.123C19.1746 23 19.217 22.9438 19.217 22.875V22.3125C19.217 22.0359 19.0503 21.8125 18.8427 21.8125H16.5806V20.2203C19.0852 19.9391 21.0352 17.7516 21.0352 15.0938Z" fill="white"/>
</svg>
