<svg width="18" height="18" viewBox="0 0 18 18" fill="none" xmlns="http://www.w3.org/2000/svg">
<rect x="3" y="8.25" width="3" height="2.25" fill="#828282"/>
<rect x="7.5" y="8.25" width="3" height="2.25" fill="#828282"/>
<rect x="3" y="12" width="3" height="2.25" fill="#828282"/>
<rect x="7.5" y="12" width="3" height="2.25" fill="#828282"/>
<rect x="12" y="8.25" width="3" height="2.25" fill="#828282"/>
<path fill-rule="evenodd" clip-rule="evenodd" d="M13.5 3H17.25C17.6642 3 18 3.33579 18 3.75V17.25C18 17.6642 17.6642 18 17.25 18H0.75C0.335786 18 0 17.6642 0 17.25V3.75C0 3.33579 0.335786 3 0.75 3H4.5V1.5C4.5 1.08579 4.83579 0.75 5.25 0.75C5.66421 0.75 6 1.08579 6 1.5V3H12V1.5C12 1.08579 12.3358 0.75 12.75 0.75C13.1642 0.75 13.5 1.08579 13.5 1.5V3ZM1.5 16.5H16.5V6H1.5V16.5Z" fill="#828282"/>
</svg>
