<svg width="25" height="24" viewBox="0 0 25 24" fill="none" xmlns="http://www.w3.org/2000/svg">
<path d="M9.5 13.5H4.25C3.836 13.5 3.5 13.164 3.5 12.75V3.75C3.5 3.336 3.836 3 4.25 3H17.75C18.164 3 18.5 3.336 18.5 3.75V7.5H17V4.5H5V12H9.5V13.5Z" fill="white"/>
<path d="M16.25 14.9998C14.0368 14.9998 12.1977 14.5206 11 13.7158C11 14.2753 11 14.6443 11 14.9998C11 16.2426 13.3505 17.2498 16.25 17.2498C19.1495 17.2498 21.5 16.2426 21.5 14.9998C21.5 14.6443 21.5 14.2753 21.5 13.7158C20.3022 14.5206 18.4633 14.9998 16.25 14.9998Z" fill="white"/>
<path d="M16.25 18.7498C14.0368 18.7498 12.1977 18.2706 11 17.4658C11 18.0253 11 18.3943 11 18.7498C11 19.9926 13.3505 20.9998 16.25 20.9998C19.1495 20.9998 21.5 19.9926 21.5 18.7498C21.5 18.3943 21.5 18.0253 21.5 17.4658C20.3022 18.2706 18.4633 18.7498 16.25 18.7498Z" fill="white"/>
<path d="M10.1818 9.504C10.6963 8.90325 11.4823 8.41275 12.4813 8.067C12.3905 7.3275 11.765 6.75 11 6.75C10.1728 6.75 9.5 7.42275 9.5 8.25C9.5 8.775 9.77225 9.23625 10.1818 9.504Z" fill="white"/>
<path d="M16.25 13.5C19.1495 13.5 21.5 12.4926 21.5 11.25C21.5 10.0074 19.1495 9 16.25 9C13.3505 9 11 10.0074 11 11.25C11 12.4926 13.3505 13.5 16.25 13.5Z" fill="white"/>
</svg>
