<svg width="24" height="24" viewBox="0 0 24 24" fill="none" xmlns="http://www.w3.org/2000/svg">
<path d="M8.25 10.5H6.75V3.75C6.75 3.33525 7.08525 3 7.5 3H16.5C16.9148 3 17.25 3.33525 17.25 3.75V8.25H15.75V4.5H8.25V10.5Z" fill="#828282"/>
<path fill-rule="evenodd" clip-rule="evenodd" d="M13.5 9H20.25C20.6647 9 21 9.33525 21 9.75V20.25C21 20.6648 20.6647 21 20.25 21H3.75C3.33525 21 3 20.6648 3 20.25V12.75C3 12.3352 3.33525 12 3.75 12H10.5C10.9148 12 11.25 12.3352 11.25 12.75V19.5H12.75V9.75C12.75 9.33525 13.0852 9 13.5 9ZM6 18.75H8.25V17.25H6V18.75ZM8.25 15.75H6V14.25H8.25V15.75ZM15.75 18.75H18V17.25H15.75V18.75ZM18 15.75H15.75V14.25H18V15.75ZM15.75 12.75H18V11.25H15.75V12.75Z" fill="#828282"/>
</svg>
