<svg width="20" height="20" viewBox="0 0 20 20" fill="none" xmlns="http://www.w3.org/2000/svg">
<path fill-rule="evenodd" clip-rule="evenodd" d="M13 5.5C13 7.15685 11.6569 8.5 10 8.5C8.34315 8.5 7 7.15685 7 5.5C7 3.84315 8.34315 2.5 10 2.5C11.6569 2.5 13 3.84315 13 5.5ZM10 10C12.4853 10 14.5 7.98528 14.5 5.5C14.5 3.01472 12.4853 1 10 1C7.51472 1 5.5 3.01472 5.5 5.5C5.5 7.98528 7.51472 10 10 10ZM19 17.5C19 19 17.5 19 17.5 19H2.5C2.5 19 1 19 1 17.5C1 16 2.5 11.5 10 11.5C17.5 11.5 19 16 19 17.5ZM17.5 17.4948C17.4978 17.1246 17.2693 16.0157 16.2518 14.9982C15.2734 14.0198 13.4336 13 9.99998 13C6.56632 13 4.72653 14.0198 3.74815 14.9982C2.73063 16.0157 2.50214 17.1246 2.5 17.4948H17.5Z" fill="#828282"/>
<path d="M16.2518 14.9982L16.5347 14.7153L16.2518 14.9982ZM17.5 17.4948V17.8948H17.9023L17.9 17.4925L17.5 17.4948ZM3.74815 14.9982L4.03099 15.281L3.74815 14.9982ZM2.5 17.4948L2.10001 17.4925L2.09768 17.8948H2.5V17.4948ZM10 8.9C11.8778 8.9 13.4 7.37777 13.4 5.5H12.6C12.6 6.93594 11.4359 8.1 10 8.1V8.9ZM6.6 5.5C6.6 7.37777 8.12223 8.9 10 8.9V8.1C8.56406 8.1 7.4 6.93594 7.4 5.5H6.6ZM10 2.1C8.12223 2.1 6.6 3.62223 6.6 5.5H7.4C7.4 4.06406 8.56406 2.9 10 2.9V2.1ZM13.4 5.5C13.4 3.62223 11.8778 2.1 10 2.1V2.9C11.4359 2.9 12.6 4.06406 12.6 5.5H13.4ZM14.1 5.5C14.1 7.76437 12.2644 9.6 10 9.6V10.4C12.7062 10.4 14.9 8.20619 14.9 5.5H14.1ZM10 1.4C12.2644 1.4 14.1 3.23563 14.1 5.5H14.9C14.9 2.7938 12.7062 0.6 10 0.6V1.4ZM5.9 5.5C5.9 3.23563 7.73563 1.4 10 1.4V0.6C7.2938 0.6 5.1 2.7938 5.1 5.5H5.9ZM10 9.6C7.73563 9.6 5.9 7.76437 5.9 5.5H5.1C5.1 8.20619 7.2938 10.4 10 10.4V9.6ZM17.5 19C17.5 19.4 17.5002 19.4 17.5004 19.4C17.5005 19.4 17.5007 19.4 17.5009 19.4C17.5012 19.4 17.5015 19.4 17.5018 19.4C17.5026 19.4 17.5034 19.4 17.5043 19.4C17.5061 19.4 17.5082 19.3999 17.5108 19.3999C17.5158 19.3998 17.5223 19.3997 17.5302 19.3994C17.5459 19.3989 17.5671 19.3979 17.593 19.3961C17.6446 19.3924 17.7158 19.3852 17.8001 19.3711C17.967 19.3433 18.1955 19.287 18.4289 19.1703C18.6638 19.0528 18.911 18.8703 19.0984 18.5891C19.2876 18.3053 19.4 17.945 19.4 17.5H18.6C18.6 17.805 18.5249 18.0072 18.4328 18.1453C18.339 18.286 18.2112 18.3847 18.0711 18.4547C17.9295 18.5255 17.783 18.5629 17.6686 18.582C17.6123 18.5914 17.5663 18.5959 17.536 18.5981C17.5208 18.5992 17.5098 18.5996 17.5035 18.5999C17.5004 18.6 17.4985 18.6 17.4979 18.6C17.4975 18.6 17.4976 18.6 17.4979 18.6C17.4981 18.6 17.4984 18.6 17.4987 18.6C17.4989 18.6 17.4991 18.6 17.4993 18.6C17.4994 18.6 17.4996 18.6 17.4996 18.6C17.4998 18.6 17.5 18.6 17.5 19ZM2.5 19.4H17.5V18.6H2.5V19.4ZM0.6 17.5C0.6 17.945 0.712398 18.3053 0.901555 18.5891C1.08904 18.8703 1.33616 19.0528 1.57111 19.1703C1.8045 19.287 2.03304 19.3433 2.19987 19.3711C2.28422 19.3852 2.3554 19.3924 2.40705 19.3961C2.43294 19.3979 2.45412 19.3989 2.46983 19.3994C2.47769 19.3997 2.48419 19.3998 2.48925 19.3999C2.49177 19.3999 2.49394 19.4 2.49574 19.4C2.49664 19.4 2.49744 19.4 2.49815 19.4C2.49851 19.4 2.49884 19.4 2.49915 19.4C2.4993 19.4 2.49951 19.4 2.49959 19.4C2.4998 19.4 2.5 19.4 2.5 19C2.5 18.6 2.50019 18.6 2.50037 18.6C2.50043 18.6 2.50061 18.6 2.50072 18.6C2.50093 18.6 2.50113 18.6 2.5013 18.6C2.50165 18.6 2.50191 18.6 2.50209 18.6C2.50244 18.6 2.50246 18.6 2.50215 18.6C2.50153 18.6 2.49961 18.6 2.49648 18.5999C2.49021 18.5996 2.47917 18.5992 2.46405 18.5981C2.43366 18.5959 2.38765 18.5914 2.33138 18.582C2.21696 18.5629 2.0705 18.5255 1.92889 18.4547C1.78884 18.3847 1.66096 18.286 1.5672 18.1453C1.4751 18.0072 1.4 17.805 1.4 17.5H0.6ZM10 11.1C6.16564 11.1 3.80625 12.2531 2.40466 13.6547C1.01478 15.0445 0.6 16.6473 0.6 17.5H1.4C1.4 16.8527 1.73522 15.4555 2.97034 14.2203C4.19375 12.9969 6.33436 11.9 10 11.9V11.1ZM19.4 17.5C19.4 16.6473 18.9852 15.0445 17.5953 13.6547C16.1937 12.2531 13.8344 11.1 10 11.1V11.9C13.6656 11.9 15.8063 12.9969 17.0297 14.2203C18.2648 15.4555 18.6 16.8527 18.6 17.5H19.4ZM15.969 15.281C16.9093 16.2213 17.0984 17.2282 17.1 17.4971L17.9 17.4925C17.8972 17.021 17.6294 15.8101 16.5347 14.7153L15.969 15.281ZM9.99998 13.4C13.3491 13.4 15.0796 14.3916 15.969 15.281L16.5347 14.7153C15.4673 13.648 13.5182 12.6 9.99998 12.6V13.4ZM4.03099 15.281C4.92041 14.3916 6.65091 13.4 9.99998 13.4V12.6C6.48173 12.6 4.53265 13.648 3.4653 14.7153L4.03099 15.281ZM2.89999 17.4971C2.90155 17.2282 3.0907 16.2213 4.03099 15.281L3.4653 14.7153C2.37056 15.8101 2.10273 17.021 2.10001 17.4925L2.89999 17.4971ZM17.5 17.0948H2.5V17.8948H17.5V17.0948Z" fill="#828282"/>
</svg>
