<svg width="26" height="24" viewBox="0 0 26 24" fill="none" xmlns="http://www.w3.org/2000/svg">
<path d="M12.4436 10.9C10.0498 10.31 9.27997 9.705 9.27997 8.755C9.27997 7.665 10.3398 6.9 12.1272 6.9C14.0043 6.9 14.7003 7.75 14.7636 9H17.0941C17.0256 7.275 15.9131 5.705 13.7091 5.19V3H10.5454V5.16C8.49961 5.585 6.85451 6.835 6.85451 8.77C6.85451 11.08 8.87397 12.23 11.8109 12.9C14.4525 13.5 14.9745 14.375 14.9745 15.315C14.9745 16 14.4631 17.1 12.1272 17.1C9.95488 17.1 9.09542 16.175 8.9847 15H6.65942C6.79124 17.19 8.51542 18.415 10.5454 18.83V21H13.7091V18.85C15.7601 18.475 17.4 17.35 17.4 15.295C17.4 12.465 14.8374 11.495 12.4436 10.9Z" fill="#828282"/>
</svg>
