<svg width="24" height="24" viewBox="0 0 24 24" fill="none" xmlns="http://www.w3.org/2000/svg">
<path d="M0 0H24V24H0V0ZM0 0H24V24H0V0ZM0 0H24V24H0V0ZM0 0H24V24H0V0ZM0 0H24V24H0V0Z" fill="white"/>
<path d="M19.0351 4.55L17.6101 5.975C16.0751 4.74 14.1201 4 11.9951 4C10.1651 4 8.47012 4.55 7.05012 5.485L8.50512 6.94C9.53512 6.345 10.7251 6 12.0001 6C15.8651 6 19.0001 9.135 19.0001 13C19.0001 14.275 18.6551 15.465 18.0601 16.495L19.5151 17.95C20.4501 16.53 21.0001 14.83 21.0001 13C21.0001 10.875 20.2601 8.925 19.0251 7.385L20.4501 5.96L19.0351 4.55ZM15.0001 1H9.00012V3H15.0001V1ZM11.0001 9.435L13.0001 11.435V8H11.0001V9.435ZM3.02012 4L1.74512 5.27L4.50012 8.025C3.55512 9.45 3.00012 11.16 3.00012 13C3.00012 17.97 7.02012 22 11.9951 22C13.8351 22 15.5451 21.445 16.9701 20.5L19.4701 23L20.7401 21.725L13.0401 14.02L3.02012 4ZM12.0001 20C8.13512 20 5.00012 16.865 5.00012 13C5.00012 11.715 5.35012 10.515 5.95512 9.48L15.5201 19.045C14.4851 19.65 13.2851 20 12.0001 20Z" fill="#828282"/>
</svg>
