<svg width="18" height="17" viewBox="0 0 18 17" fill="none" xmlns="http://www.w3.org/2000/svg">
<path d="M9 0C6.82531 0 5.0625 1.78485 5.0625 3.98672C5.0625 5.76682 7.63594 9.01125 8.62187 10.1889C8.82156 10.4275 9.17875 10.4275 9.37813 10.1889C10.3641 9.01125 12.9375 5.76682 12.9375 3.98672C12.9375 1.78485 11.1747 0 9 0ZM9 5.31562C8.275 5.31562 7.6875 4.72078 7.6875 3.98672C7.6875 3.25266 8.275 2.65781 9 2.65781C9.725 2.65781 10.3125 3.25266 10.3125 3.98672C10.3125 4.72078 9.725 5.31562 9 5.31562ZM0.62875 6.83279C0.443181 6.90794 0.284103 7.03766 0.172034 7.20521C0.0599652 7.37277 4.4444e-05 7.57047 0 7.77284L0 15.6931C0 16.0513 0.357188 16.2962 0.685625 16.1633L5 14.175V6.8002C4.72375 6.29459 4.49781 5.80226 4.33594 5.33144L0.62875 6.83279ZM9 11.3802C8.56031 11.3802 8.14437 11.1846 7.85906 10.8436C7.24469 10.1095 6.59125 9.27355 6 8.41609V14.1747L12 16.1997V8.41641C11.4087 9.27355 10.7556 10.1098 10.1409 10.8439C9.85563 11.1846 9.43969 11.3802 9 11.3802ZM17.3144 5.0992L13 7.0875V16.2L17.3713 14.4297C17.5568 14.3546 17.7159 14.2249 17.828 14.0573C17.9401 13.8898 18 13.692 18 13.4897V5.56938C18 5.21121 17.6428 4.96631 17.3144 5.0992Z" fill="#91909A"/>
</svg>
