<svg width="24" height="16" viewBox="0 0 24 16" fill="none" xmlns="http://www.w3.org/2000/svg">
<path d="M11 6V8H10V10H8V8H5.83C5.62439 8.58597 5.24142 9.09339 4.73429 9.45179C4.22715 9.81019 3.621 10.0018 3 10C2.20435 10 1.44129 9.68393 0.87868 9.12132C0.31607 8.55871 0 7.79565 0 7C0 6.20435 0.31607 5.44129 0.87868 4.87868C1.44129 4.31607 2.20435 4 3 4C4.31 4 5.42 4.83 5.83 6H11ZM3 6C2.73478 6 2.48043 6.10536 2.29289 6.29289C2.10536 6.48043 2 6.73478 2 7C2 7.26522 2.10536 7.51957 2.29289 7.70711C2.48043 7.89464 2.73478 8 3 8C3.26522 8 3.51957 7.89464 3.70711 7.70711C3.89464 7.51957 4 7.26522 4 7C4 6.73478 3.89464 6.48043 3.70711 6.29289C3.51957 6.10536 3.26522 6 3 6ZM16 10C18.67 10 24 11.34 24 14V16H8V14C8 11.34 13.33 10 16 10ZM16 8C14.9391 8 13.9217 7.57857 13.1716 6.82843C12.4214 6.07828 12 5.06087 12 4C12 2.93913 12.4214 1.92172 13.1716 1.17157C13.9217 0.421427 14.9391 0 16 0C17.0609 0 18.0783 0.421427 18.8284 1.17157C19.5786 1.92172 20 2.93913 20 4C20 5.06087 19.5786 6.07828 18.8284 6.82843C18.0783 7.57857 17.0609 8 16 8Z" fill="#828282"/>
</svg>
