<svg width="16" height="12" viewBox="0 0 16 12" fill="none" xmlns="http://www.w3.org/2000/svg">
<path d="M8 6L0 1.95313V1C0 0.71875 0.0989583 0.481771 0.296875 0.289063C0.494792 0.0963542 0.729167 0 1 0H15C15.2708 0 15.5052 0.0963542 15.7031 0.289063C15.901 0.481771 16 0.71875 16 1V1.95313L8 6ZM7.5 7H8.5L16 3.10938V11C16 11.2708 15.901 11.5052 15.7031 11.7031C15.5052 11.901 15.2708 12 15 12H1C0.729167 12 0.494792 11.901 0.296875 11.7031C0.0989583 11.5052 0 11.2708 0 11V3.10938L7.5 7Z" fill="#91909A"/>
</svg>
