<svg width="24" height="25" fill="none" xmlns="http://www.w3.org/2000/svg"><g clip-path="url(#clip0_7770_211545)"><path d="M19.064 9.85l4.231 4.23a.334.334 0 01-.184.566l-.983.153-3.77-3.77.14-.99a.333.333 0 01.566-.19zm-8 12.74c2.48-2.22 5.33-2.886 8.428-3.68l.297-2.679-2.864-2.865-2.679.298c-.795 3.098-1.46 5.946-3.68 8.428l-.93-.929c1.885-2.2 2.593-4.635 3.535-8.72l4.243-.472 3.771 3.771-.471 4.243c-4.085.943-6.521 1.65-8.72 3.535l-.93-.93zm3.522-4.02a1.334 1.334 0 111.885-1.886 1.333 1.333 0 01-1.884 1.886h-.001z" fill="#828282"/><mask id="a" maskUnits="userSpaceOnUse" x=".594" y="4.492" width="11" height="11" fill="#000"><path fill="#fff" d="M.594 4.492h11v11h-11z"/><path d="M10.06 13.105a4.34 4.34 0 00-.944-1.4 4.402 4.402 0 00-1.4-.945l-.014-.006a2.906 2.906 0 10-3.403.001l-.014.006a4.344 4.344 0 00-1.4.945 4.401 4.401 0 00-1.291 3.018.094.094 0 00.094.096h.703a.094.094 0 00.094-.091 3.494 3.494 0 011.029-2.394A3.492 3.492 0 016 11.305c.94 0 1.823.365 2.487 1.03a3.494 3.494 0 011.029 2.394.093.093 0 00.094.091h.703a.095.095 0 00.067-.028.094.094 0 00.026-.068 4.366 4.366 0 00-.345-1.62zM6 10.415a2 2 0 01-1.425-.592c-.38-.38-.59-.887-.59-1.425 0-.537.21-1.044.59-1.425.381-.38.887-.59 1.425-.59s1.044.21 1.425.59c.381.381.59.888.59 1.425a2 2 0 01-.59 1.425A2 2 0 016 10.414z"/></mask><path d="M10.06 13.105a4.34 4.34 0 00-.944-1.4 4.402 4.402 0 00-1.4-.945l-.014-.006a2.906 2.906 0 10-3.403.001l-.014.006a4.344 4.344 0 00-1.4.945 4.401 4.401 0 00-1.291 3.018.094.094 0 00.094.096h.703a.094.094 0 00.094-.091 3.494 3.494 0 011.029-2.394A3.492 3.492 0 016 11.305c.94 0 1.823.365 2.487 1.03a3.494 3.494 0 011.029 2.394.093.093 0 00.094.091h.703a.095.095 0 00.067-.028.094.094 0 00.026-.068 4.366 4.366 0 00-.345-1.62zM6 10.415a2 2 0 01-1.425-.592c-.38-.38-.59-.887-.59-1.425 0-.537.21-1.044.59-1.425.381-.38.887-.59 1.425-.59s1.044.21 1.425.59c.381.381.59.888.59 1.425a2 2 0 01-.59 1.425A2 2 0 016 10.414z" fill="#828282"/><path d="M9.116 11.704l-.141.142.141-.142zm-1.4-.944l-.09.179.012.005.078-.184zm-.014-.006l-.117-.162-.268.193.295.148.09-.18zm-3.403.001l.09.179.294-.147-.267-.194-.117.162zm-.014.006l.078.185.011-.006-.09-.18zm-1.4.945l.14.141-.14-.141zm-.945 1.4l.184.078-.184-.078zm-.346 1.618l.2.005-.2-.005zm.094.096v-.2.2zm.797-.091l-.2-.005.2.005zm7.03 0l.2-.005-.2.005zm.798.091v-.2.2zm.093-.096l-.2.004v.001l.2-.005zm-.16-1.697a4.584 4.584 0 00-.989-1.464l-.282.283c.384.383.69.837.902 1.336l.368-.155zm-.988-1.464a4.602 4.602 0 00-1.464-.987l-.156.368c.5.211.954.518 1.337.902l.283-.283zm-1.453-.982a.228.228 0 00-.017-.008l-.009-.003h.002a.12.12 0 01.01.005l-.179.358a.276.276 0 00.018.008l.009.003h-.002l-.01-.005.178-.358zm.014.335a3.1 3.1 0 001.288-2.518h-.4a2.7 2.7 0 01-1.122 2.194l.234.324zm1.288-2.518A3.106 3.106 0 006 5.292v.4a2.706 2.706 0 012.707 2.706h.4zM6 5.292a3.106 3.106 0 00-3.106 3.106h.4A2.706 2.706 0 016 5.692v-.4zM2.894 8.398c0 1.036.508 1.955 1.287 2.52l.235-.325a2.704 2.704 0 01-1.122-2.195h-.4zm1.315 2.178a.12.12 0 01.01-.005h.002l-.008.003a.228.228 0 00-.018.008l.18.358-.012.005h-.001l.008-.003a.264.264 0 00.018-.008l-.179-.358zm-.002 0a4.564 4.564 0 00-1.464.988l.283.283c.386-.387.835-.69 1.336-.902l-.155-.368zm-1.464.988c-.42.42-.756.917-.987 1.464l.368.156c.211-.5.518-.954.902-1.337l-.283-.283zm-.987 1.464a4.556 4.556 0 00-.362 1.692l.4.008c.01-.53.122-1.055.33-1.544l-.368-.156zm-.362 1.691a.294.294 0 00.02.115l.373-.146a.106.106 0 01.007.041l-.4-.01zm.02.115c.015.036.036.07.063.098l.287-.28c.01.01.017.023.023.036l-.373.146zm.063.098a.29.29 0 00.097.065l.155-.368a.107.107 0 01.035.023l-.287.28zm.097.065a.294.294 0 00.114.023v-.4c.014 0 .028.003.041.009l-.155.368zm.114.023h.703v-.4h-.703v.4zm.703 0c.161 0 .29-.128.294-.286l-.4-.01a.106.106 0 01.106-.104v.4zm.294-.286a3.294 3.294 0 01.97-2.258l-.283-.283a3.694 3.694 0 00-1.087 2.53l.4.011zm.97-2.258A3.292 3.292 0 016 11.505v-.4c-.993 0-1.926.386-2.628 1.088l.283.283zM6 11.505c.887 0 1.719.344 2.346.971l.282-.283A3.693 3.693 0 006 11.105v.4zm2.346.971c.606.606.948 1.405.97 2.258l.4-.01a3.694 3.694 0 00-1.088-2.53l-.282.282zm.97 2.257a.293.293 0 00.294.287v-.4c.056 0 .105.047.106.104l-.4.01zm.294.287h.703v-.4H9.61v.4zm.703 0a.298.298 0 00.114-.023l-.155-.368a.106.106 0 01.04-.009v.4zm.114-.023a.293.293 0 00.096-.065l-.286-.28a.107.107 0 01.035-.023l.155.368zm.096-.065a.295.295 0 00.063-.098l-.372-.146a.104.104 0 01.023-.036l.286.28zm.063-.098a.294.294 0 00.02-.115l-.4.01c0-.014.003-.028.008-.041l.372.146zm.02-.114a4.569 4.569 0 00-.361-1.693l-.368.156c.208.49.318 1.01.33 1.545l.4-.008zM6 10.214c-.485 0-.94-.189-1.283-.532l-.283.283c.418.418.975.65 1.566.65v-.4zm-1.283-.532a1.803 1.803 0 01-.532-1.284h-.4a2.2 2.2 0 00.649 1.567l.283-.283zm-.532-1.284c0-.484.188-.94.532-1.283l-.283-.283c-.418.418-.65.975-.65 1.566h.4zm.532-1.283A1.803 1.803 0 016 6.583v-.4a2.2 2.2 0 00-1.566.649l.283.283zM6 6.583c.485 0 .94.188 1.284.532l.283-.283A2.203 2.203 0 006 6.182v.4zm1.284.532c.343.343.532.799.532 1.283h.4a2.2 2.2 0 00-.65-1.566l-.282.283zm.532 1.283c0 .485-.189.94-.532 1.284l.283.283c.418-.418.649-.976.649-1.567h-.4zm-.532 1.284A1.803 1.803 0 016 10.214v.4c.591 0 1.148-.23 1.567-.65l-.283-.282z" fill="#828282" mask="url(#a)"/></g><defs><clipPath id="clip0_7770_211545"><path fill="#fff" transform="translate(0 .156)" d="M0 0h24v24H0z"/></clipPath></defs></svg>