<svg width="16" height="17" fill="none" xmlns="http://www.w3.org/2000/svg"><path fill-rule="evenodd" clip-rule="evenodd" d="M4.333 12.469a1 1 0 00-1 1 .667.667 0 11-1.333 0 2.333 2.333 0 012.333-2.334h9a.667.667 0 110 1.334h-9z" fill="#828282"/><path fill-rule="evenodd" clip-rule="evenodd" d="M4.333 2.469a1 1 0 00-1 1v10a1 1 0 001 1h8.334v-12H4.333zm0-1.334h9c.368 0 .667.299.667.667v13.333a.667.667 0 01-.667.667h-9A2.333 2.333 0 012 13.469v-10a2.333 2.333 0 012.333-2.334z" fill="#828282"/></svg>