<svg width="16" height="17" fill="none" xmlns="http://www.w3.org/2000/svg"><mask id="a" fill="#fff"><path d="M11.057 6.192L8 9.249 4.943 6.192 4 7.135l4 4 4-4-.943-.943z"/></mask><path d="M11.057 6.192L8 9.249 4.943 6.192 4 7.135l4 4 4-4-.943-.943z" fill="#828282"/><path d="M11.057 6.192l1.06-1.06-1.06-1.061-1.061 1.06 1.06 1.06zM8 9.249l-1.06 1.06L8 11.37l1.06-1.06L8 9.25zM4.943 6.192l1.061-1.06-1.06-1.061-1.061 1.06 1.06 1.06zM4 7.135l-1.06-1.06-1.061 1.06 1.06 1.06L4 7.136zm4 4l-1.06 1.06L8 13.258l1.06-1.061L8 11.136zm4-4l1.06 1.06 1.061-1.06-1.06-1.06L12 7.135zM9.996 5.131L6.939 8.188l2.122 2.121 3.056-3.056L9.996 5.13zm-.935 3.057L6.004 5.13 3.883 7.253l3.056 3.056 2.122-2.121zM3.883 5.13l-.944.944 2.122 2.12.943-.942L3.883 5.13zm-.944 3.065l4 4 2.122-2.121-4-4-2.122 2.12zm6.122 4l4-4-2.122-2.121-4 4 2.122 2.12zm4-6.121l-.944-.944-2.121 2.122.943.943 2.122-2.121z" fill="#828282" mask="url(#a)"/></svg>