<svg width="26" height="28" fill="none" xmlns="http://www.w3.org/2000/svg"><path fill-rule="evenodd" clip-rule="evenodd" d="M19.589 7.89h-3.785V6.36c0-.843-.564-1.527-1.261-1.527h-3.784c-.697 0-1.262.684-1.262 1.527v1.53H5.713c-.349 0-.631.342-.631.764s.282.764.63.764H19.59c.348 0 .63-.342.63-.764s-.282-.764-.63-.764zm-9.003-1.53h4.128v1.53h-4.128V6.361zM9.534 23.167c-.954-.004-1.744-.93-1.815-2.128l-.573-10.094h11.01l-.573 10.094c-.071 1.197-.862 2.124-1.815 2.128H9.534z" fill="#EB5757"/></svg>