<svg width="15" height="15" viewBox="0 0 15 15" fill="none" xmlns="http://www.w3.org/2000/svg">
<path d="M13.4997 7.4365H1.49972C1.26758 7.4365 1.06669 7.35399 0.897042 7.18897C0.7274 7.02396 0.642578 6.82326 0.642578 6.58688C0.642578 6.35051 0.725167 6.14758 0.890346 5.9781C1.05552 5.80863 1.25865 5.72389 1.49972 5.72389H2.24972C2.42829 5.99148 2.6582 6.2011 2.93945 6.35274C3.2207 6.50437 3.52651 6.58019 3.85686 6.58019C4.18722 6.58019 4.49302 6.50437 4.77427 6.35274C5.05552 6.2011 5.28544 5.99148 5.46401 5.72389H9.53543C9.71401 5.99148 9.94392 6.2011 10.2252 6.35274C10.5064 6.50437 10.8122 6.58019 11.1426 6.58019C11.4729 6.58019 11.7787 6.50437 12.06 6.35274C12.3412 6.2011 12.5711 5.99148 12.7497 5.72389H13.4997C13.7408 5.72389 13.9439 5.80863 14.1091 5.9781C14.2743 6.14758 14.3569 6.35051 14.3569 6.58688C14.3569 6.82326 14.272 7.02396 14.1024 7.18897C13.9328 7.35399 13.7319 7.4365 13.4997 7.4365ZM11.4372 5.64361C11.2676 5.74173 11.089 5.76403 10.9015 5.71051C10.714 5.65699 10.5711 5.54549 10.4729 5.37601L8.45061 1.65643C8.3524 1.48695 8.32785 1.30633 8.37695 1.11455C8.42606 0.922771 8.53543 0.777824 8.70508 0.679705C8.87472 0.581587 9.05329 0.559287 9.24079 0.612806C9.42829 0.666325 9.57115 0.777824 9.66936 0.947301L11.6917 4.66688C11.7899 4.83636 11.8145 5.01699 11.7653 5.20876C11.7162 5.40054 11.6069 5.54549 11.4372 5.64361ZM4.52651 5.37601C4.42829 5.54549 4.28543 5.65699 4.09793 5.71051C3.91043 5.76403 3.73186 5.74173 3.56222 5.64361C3.39258 5.54549 3.2832 5.40054 3.2341 5.20876C3.18499 5.01699 3.20954 4.83636 3.30776 4.66688L5.33008 0.947301C5.42829 0.777824 5.57115 0.666325 5.75865 0.612806C5.94615 0.559287 6.12472 0.581587 6.29436 0.679705C6.46401 0.777824 6.57338 0.922771 6.62249 1.11455C6.6716 1.30633 6.64704 1.48695 6.54883 1.65643L4.52651 5.37601ZM12.6426 13.4306C12.5711 13.7874 12.4395 14.0194 12.2475 14.1264C12.0555 14.2334 11.7631 14.287 11.3703 14.287H3.68276C3.28097 14.287 2.9774 14.2334 2.77204 14.1264C2.56669 14.0194 2.42829 13.7874 2.35686 13.4306L1.49972 8.29281H13.4997L12.6426 13.4306ZM10.4997 10.8617H9.21401V9.57727C9.21401 9.46131 9.1716 9.36096 9.08677 9.27622C9.00195 9.19148 8.90151 9.14911 8.78543 9.14911C8.66936 9.14911 8.56892 9.19148 8.4841 9.27622C8.39927 9.36096 8.35686 9.46131 8.35686 9.57727V10.8617H7.07115C6.95508 10.8617 6.85463 10.9041 6.76981 10.9888C6.68499 11.0736 6.64258 11.1739 6.64258 11.2899C6.64258 11.4058 6.68499 11.5062 6.76981 11.5909C6.85463 11.6757 6.95508 11.718 7.07115 11.718H8.35686V13.0025C8.35686 13.1185 8.39927 13.2188 8.4841 13.3035C8.56892 13.3883 8.66936 13.4306 8.78543 13.4306C8.90151 13.4306 9.00195 13.3883 9.08677 13.3035C9.1716 13.2188 9.21401 13.1185 9.21401 13.0025V11.718H10.4997C10.6158 11.718 10.7162 11.6757 10.8011 11.5909C10.8859 11.5062 10.9283 11.4058 10.9283 11.2899C10.9283 11.1739 10.8859 11.0736 10.8011 10.9888C10.7162 10.9041 10.6158 10.8617 10.4997 10.8617Z" fill="#EB5757"/>
</svg>
