<svg width="26" height="26" viewBox="0 0 26 26" fill="none" xmlns="http://www.w3.org/2000/svg">
<path d="M13 2.16675C7.01454 2.16675 2.16663 7.01466 2.16663 13.0001C2.16663 18.9855 7.01454 23.8334 13 23.8334C18.9854 23.8334 23.8333 18.9855 23.8333 13.0001C23.8333 7.01466 18.9854 2.16675 13 2.16675ZM13 5.41675C14.7929 5.41675 16.25 6.87383 16.25 8.66675C16.25 10.4651 14.7929 11.9167 13 11.9167C11.207 11.9167 9.74996 10.4651 9.74996 8.66675C9.74996 6.87383 11.207 5.41675 13 5.41675ZM13 20.8001C10.2862 20.8001 7.90288 19.4134 6.49996 17.3117C6.52704 15.1613 10.8387 13.9751 13 13.9751C15.1612 13.9751 19.4675 15.1613 19.5 17.3117C18.097 19.4134 15.7137 20.8001 13 20.8001Z" fill="white"/>
</svg>
