<svg width="24" height="25" viewBox="0 0 24 25" fill="none" xmlns="http://www.w3.org/2000/svg">
<path d="M5.58327 2.92734H1.91665C1.41066 2.92734 1 3.36478 1 3.90597V21.5214C1 22.0626 1.41066 22.5 1.91665 22.5H5.58327C6.08927 22.5 6.49993 22.0626 6.49993 21.5214V3.90597C6.49993 3.36478 6.08927 2.92734 5.58327 2.92734Z" fill="white"/>
<path d="M12.9165 2.92734H9.24989C8.7439 2.92734 8.33324 3.36478 8.33324 3.90597V21.5214C8.33324 22.0626 8.7439 22.5 9.24989 22.5H12.9165C13.4225 22.5 13.8332 22.0626 13.8332 21.5214V3.90597C13.8332 3.36478 13.4225 2.92734 12.9165 2.92734Z" fill="white"/>
<path d="M22.974 20.3695L19.0911 3.24931C18.9719 2.72378 18.4724 2.39789 17.9847 2.52903L14.4207 3.44895C14.1842 3.50962 13.9807 3.66914 13.8542 3.89031C13.7278 4.11148 13.6883 4.37767 13.7452 4.63016L17.6272 21.7513C17.684 22.0038 17.8334 22.2211 18.0406 22.3561C18.1873 22.4511 18.3523 22.5 18.5191 22.5C18.5915 22.5 18.6639 22.4902 18.7345 22.4726L22.2985 21.5517C22.7907 21.4235 23.0932 20.895 22.974 20.3695Z" fill="white"/>
<rect x="1" y="17.5" width="5.5" height="1" fill="#D4B26B"/>
<rect x="8.33008" y="17.5" width="5.5" height="1" fill="#D4B26B"/>
<rect x="16.8101" y="18.1069" width="5.5" height="1" transform="rotate(-12.4946 16.8101 18.1069)" fill="#D4B26B"/>
</svg>
