<svg width="26" height="26" viewBox="0 0 26 26" fill="none" xmlns="http://www.w3.org/2000/svg">
<path d="M19.5 8.66659H18.4167V6.49992C18.4167 3.50992 15.99 1.08325 13 1.08325C10.01 1.08325 7.58337 3.50992 7.58337 6.49992V8.66659H6.50004C5.30296 8.66659 4.33337 9.63617 4.33337 10.8333V21.6666C4.33337 22.8637 5.30296 23.8333 6.50004 23.8333H19.5C20.6971 23.8333 21.6667 22.8637 21.6667 21.6666V10.8333C21.6667 9.63617 20.6971 8.66659 19.5 8.66659ZM13 18.4166C11.803 18.4166 10.8334 17.447 10.8334 16.2499C10.8334 15.0528 11.803 14.0833 13 14.0833C14.1971 14.0833 15.1667 15.0528 15.1667 16.2499C15.1667 17.447 14.1971 18.4166 13 18.4166ZM16.3584 8.66659H9.64171V6.49992C9.64171 4.64742 11.1475 3.14159 13 3.14159C14.8525 3.14159 16.3584 4.64742 16.3584 6.49992V8.66659Z" fill="white"/>
</svg>
