<svg width="26" height="26" viewBox="0 0 26 26" fill="none" xmlns="http://www.w3.org/2000/svg">
<path d="M13 2.16675C7.01454 2.16675 2.16663 7.01466 2.16663 13.0001C2.16663 18.9855 7.01454 23.8334 13 23.8334C18.9854 23.8334 23.8333 18.9855 23.8333 13.0001C23.8333 7.01466 18.9854 2.16675 13 2.16675ZM14.5329 19.5976V21.6667H11.6458V19.5759C9.79871 19.1805 8.21704 17.9942 8.10329 15.8872H10.2212C10.3295 17.0247 11.1095 17.9076 13.092 17.9076C15.2208 17.9076 15.692 16.8459 15.692 16.1851C15.692 15.2913 15.21 14.4409 12.805 13.8667C10.1183 13.2222 8.27663 12.1117 8.27663 9.89091C8.27663 8.033 9.77704 6.81966 11.6458 6.41341V4.33341H14.5329V6.4405C16.5479 6.93341 17.5554 8.4555 17.6258 10.1076H15.4916C15.432 8.90508 14.7983 8.08716 13.0866 8.08716C11.4616 8.08716 10.4866 8.81841 10.4866 9.86925C10.4866 10.7847 11.1908 11.3697 13.3737 11.9384C15.562 12.5072 17.902 13.4388 17.902 16.1742C17.902 18.1513 16.407 19.2401 14.5329 19.5976Z" fill="white"/>
</svg>
