<svg width="26" height="26" viewBox="0 0 26 26" fill="none" xmlns="http://www.w3.org/2000/svg">
<path fill-rule="evenodd" clip-rule="evenodd" d="M5.41663 4.33341C5.12931 4.33341 4.85376 4.44755 4.65059 4.65072C4.44743 4.85388 4.33329 5.12943 4.33329 5.41675V20.5834C4.33329 20.8707 4.44743 21.1463 4.65059 21.3494C4.85376 21.5526 5.12931 21.6667 5.41663 21.6667H9.74996C10.3483 21.6667 10.8333 22.1518 10.8333 22.7501C10.8333 23.3484 10.3483 23.8334 9.74996 23.8334H5.41663C4.55467 23.8334 3.72802 23.491 3.11853 22.8815C2.50904 22.272 2.16663 21.4454 2.16663 20.5834V5.41675C2.16663 4.55479 2.50904 3.72814 3.11853 3.11865C3.72802 2.50916 4.55467 2.16675 5.41663 2.16675H9.74996C10.3483 2.16675 10.8333 2.65177 10.8333 3.25008C10.8333 3.84839 10.3483 4.33341 9.74996 4.33341H5.41663Z" fill="white"/>
<path fill-rule="evenodd" clip-rule="evenodd" d="M16.5673 6.8173C16.9904 6.39423 17.6763 6.39423 18.0994 6.8173L23.516 12.234C23.9391 12.657 23.9391 13.343 23.516 13.766L18.0994 19.1827C17.6763 19.6058 16.9904 19.6058 16.5673 19.1827C16.1442 18.7596 16.1442 18.0737 16.5673 17.6506L21.2179 13L16.5673 8.34937C16.1442 7.9263 16.1442 7.24037 16.5673 6.8173Z" fill="white"/>
<path fill-rule="evenodd" clip-rule="evenodd" d="M8.66663 13.0001C8.66663 12.4018 9.15165 11.9167 9.74996 11.9167H22.75C23.3483 11.9167 23.8333 12.4018 23.8333 13.0001C23.8333 13.5984 23.3483 14.0834 22.75 14.0834H9.74996C9.15165 14.0834 8.66663 13.5984 8.66663 13.0001Z" fill="white"/>
</svg>
