<svg width="16" height="17" fill="none" xmlns="http://www.w3.org/2000/svg"><path fill-rule="evenodd" clip-rule="evenodd" d="M14 .531H2a2 2 0 00-2 2v12a2 2 0 002 2h12a2 2 0 002-2v-12a2 2 0 00-2-2zM1 4.388c0-.473.448-.857 1-.857h12c.552 0 1 .384 1 .857v10.286c0 .474-.448.857-1 .857H2c-.552 0-1-.383-1-.857V4.388z" fill="#828282"/><path fill-rule="evenodd" clip-rule="evenodd" d="M6.5 7.531a1 1 0 100-2 1 1 0 000 2zm3 0a1 1 0 100-2 1 1 0 000 2zm3 0a1 1 0 100-2 1 1 0 000 2zm-9 3a1 1 0 100-2 1 1 0 000 2zm3 0a1 1 0 100-2 1 1 0 000 2zm3 0a1 1 0 100-2 1 1 0 000 2zm3 0a1 1 0 100-2 1 1 0 000 2zm-9 3a1 1 0 100-2 1 1 0 000 2zm3 0a1 1 0 100-2 1 1 0 000 2zm3 0a1 1 0 100-2 1 1 0 000 2z" fill="#828282"/></svg>