<svg width="20" height="20" fill="none" xmlns="http://www.w3.org/2000/svg"><path fill-rule="evenodd" clip-rule="evenodd" d="M10 1.667a6.667 6.667 0 00-6.667 6.666c0 2.582 1.68 5.087 3.522 7.031A24.52 24.52 0 0010 18.144a24.52 24.52 0 003.145-2.78c1.842-1.944 3.521-4.449 3.521-7.03A6.667 6.667 0 0010 1.666zm0 17.5l-.463.693-.002-.002-.006-.004-.019-.012a8.394 8.394 0 01-.32-.226 26.187 26.187 0 01-3.545-3.105c-1.908-2.015-3.978-4.926-3.978-8.178a8.333 8.333 0 0116.666 0c0 3.252-2.07 6.163-3.978 8.178a26.184 26.184 0 01-3.545 3.105 15.894 15.894 0 01-.32.226l-.02.012-.005.004-.002.001-.463-.692zm0 0l.462.693a.834.834 0 01-.925 0l.463-.693z" fill="#828282"/><path fill-rule="evenodd" clip-rule="evenodd" d="M10 6.667A1.667 1.667 0 1010 10a1.667 1.667 0 000-3.333zM6.667 8.333a3.333 3.333 0 116.666 0 3.333 3.333 0 01-6.667 0z" fill="#828282"/></svg>