<svg width="56" height="57" viewBox="0 0 56 57" fill="none" xmlns="http://www.w3.org/2000/svg">
<path d="M54.7045 28.6475C54.7045 43.396 42.7485 55.352 28 55.352C13.2515 55.352 1.29545 43.396 1.29545 28.6475C1.29545 13.8989 13.2515 1.94292 28 1.94292C42.7485 1.94292 54.7045 13.8989 54.7045 28.6475Z" stroke="#F8BB86" stroke-opacity="0.3" stroke-width="2.59091"/>
<path d="M29.0955 36.9433H27.103L26.1352 16.8473H30.0633L29.0955 36.9433ZM25.7936 42.5793C25.7936 40.8588 26.5526 39.9985 28.0708 39.9985C28.8045 39.9985 29.3675 40.2199 29.7597 40.6627C30.1645 41.1055 30.3669 41.7444 30.3669 42.5793C30.3669 43.389 30.1645 44.0215 29.7597 44.477C29.3548 44.9197 28.7919 45.1411 28.0708 45.1411C27.4129 45.1411 26.8689 44.945 26.4388 44.5529C26.0087 44.148 25.7936 43.4902 25.7936 42.5793Z" fill="#F8BB86"/>
</svg>
