<svg width="56" height="56" viewBox="0 0 56 56" fill="none" xmlns="http://www.w3.org/2000/svg">
<path d="M54 28C54 42.3594 42.3594 54 28 54C13.6406 54 2 42.3594 2 28C2 13.6406 13.6406 2 28 2C42.3594 2 54 13.6406 54 28Z" stroke="#445FF5" stroke-opacity="0.3" stroke-width="4"/>
<path d="M29.3457 43H26.2656V22.6641H29.3457V43ZM26.0059 17.1533C26.0059 16.4482 26.179 15.9349 26.5254 15.6133C26.8717 15.2793 27.3047 15.1123 27.8242 15.1123C28.319 15.1123 28.7458 15.2793 29.1045 15.6133C29.4632 15.9473 29.6426 16.4606 29.6426 17.1533C29.6426 17.846 29.4632 18.3656 29.1045 18.7119C28.7458 19.0459 28.319 19.2129 27.8242 19.2129C27.3047 19.2129 26.8717 19.0459 26.5254 18.7119C26.179 18.3656 26.0059 17.846 26.0059 17.1533Z" fill="#445FF5"/>
</svg>
