<svg width="56" height="56" viewBox="0 0 56 56" fill="none" xmlns="http://www.w3.org/2000/svg">
<path d="M54.7273 28C54.7273 42.7611 42.7611 54.7273 28 54.7273C13.2389 54.7273 1.27273 42.7611 1.27273 28C1.27273 13.2389 13.2389 1.27273 28 1.27273C42.7611 1.27273 54.7273 13.2389 54.7273 28Z" stroke="#D4B26B" stroke-opacity="0.3" stroke-width="2.54545"/>
<path d="M26.624 33.3926C26.6488 31.9206 26.8158 30.7578 27.125 29.9043C27.4342 29.0508 28.0651 28.1045 29.0176 27.0654L31.4482 24.5605C32.4873 23.3854 33.0068 22.1237 33.0068 20.7754C33.0068 19.4766 32.6667 18.4622 31.9863 17.7324C31.306 16.9902 30.3164 16.6191 29.0176 16.6191C27.7559 16.6191 26.7415 16.9531 25.9746 17.6211C25.2077 18.2891 24.8242 19.1859 24.8242 20.3115H21.3916C21.4163 18.3076 22.1276 16.6934 23.5254 15.4688C24.9355 14.2318 26.7663 13.6133 29.0176 13.6133C31.3555 13.6133 33.1738 14.2441 34.4727 15.5059C35.7839 16.7552 36.4395 18.4746 36.4395 20.6641C36.4395 22.8288 35.4375 24.9626 33.4336 27.0654L31.4111 29.0693C30.5081 30.0713 30.0566 31.5124 30.0566 33.3926H26.624ZM26.4756 39.2744C26.4756 38.7178 26.6426 38.2539 26.9766 37.8828C27.3229 37.4993 27.8301 37.3076 28.498 37.3076C29.166 37.3076 29.6732 37.4993 30.0195 37.8828C30.3659 38.2539 30.5391 38.7178 30.5391 39.2744C30.5391 39.8311 30.3659 40.2949 30.0195 40.666C29.6732 41.0247 29.166 41.2041 28.498 41.2041C27.8301 41.2041 27.3229 41.0247 26.9766 40.666C26.6426 40.2949 26.4756 39.8311 26.4756 39.2744Z" fill="#D4B26B"/>
</svg>
