<svg width="18" height="18" viewBox="0 0 18 18" fill="none" xmlns="http://www.w3.org/2000/svg">
<path d="M16.3091 15.4679C16.2598 15.5534 16.1887 15.6245 16.1032 15.6739C16.0177 15.7233 15.9206 15.7493 15.8218 15.7493L2.17968 15.7491C2.08089 15.7491 1.98385 15.7231 1.89831 15.6737C1.81277 15.6243 1.74175 15.5532 1.6924 15.4676C1.64305 15.382 1.61711 15.285 1.61719 15.1862C1.61726 15.0874 1.64335 14.9904 1.69283 14.9049C2.74244 13.0972 4.42328 11.7414 6.41214 11.0982C5.45932 10.5312 4.71896 9.66716 4.30479 8.63869C3.89061 7.61022 3.82552 6.47422 4.11952 5.40518C4.41351 4.33613 5.05033 3.39316 5.93216 2.7211C6.81399 2.04904 7.89206 1.68506 9.0008 1.68506C10.1095 1.68506 11.1876 2.04904 12.0694 2.7211C12.9513 3.39316 13.5881 4.33613 13.8821 5.40518C14.1761 6.47422 14.111 7.61022 13.6968 8.63869C13.2826 9.66716 12.5423 10.5312 11.5895 11.0982C13.5784 11.7414 15.2592 13.0973 16.3088 14.905C16.3583 14.9905 16.3844 15.0876 16.3844 15.1864C16.3845 15.2852 16.3585 15.3822 16.3092 15.4678L16.3091 15.4679Z" fill="#828282"/>
</svg>
