<svg width="24" height="24" viewBox="0 0 24 24" fill="none" xmlns="http://www.w3.org/2000/svg">
<path d="M2.66667 2.26666L2.26667 2.26666L2.26667 2.66666L2.26667 21.3333L2.26667 21.7333L2.66667 21.7333L21.3333 21.7333L21.7333 21.7333L21.7333 21.3333L21.7333 2.66667L21.7333 2.26667L21.3333 2.26667L2.66667 2.26666ZM14.2667 16.5011L8.64031 12L14.2667 7.49891L14.2667 16.5011ZM21.3333 23.6L2.66667 23.6C1.41425 23.6 0.4 22.5858 0.4 21.3333L0.400001 2.66666C0.400002 1.41425 1.41425 0.399998 2.66667 0.399998L21.3333 0.399999C22.5858 0.399999 23.6 1.41425 23.6 2.66667L23.6 21.3333C23.6 22.5858 22.5858 23.6 21.3333 23.6Z" fill="#828282" stroke="white" stroke-width="0.8"/>
</svg>
