<svg width="18" height="21" viewBox="0 0 18 21" fill="none" xmlns="http://www.w3.org/2000/svg">
<path fill-rule="evenodd" clip-rule="evenodd" d="M13.401 0C13.5427 1.22955 13.0232 2.46528 12.2512 3.35297C11.4792 4.24121 10.2121 4.93109 8.97185 4.83993C8.80283 3.63472 9.42927 2.37724 10.1446 1.59159C10.9427 0.704393 12.2883 0.0424848 13.401 0ZM17.9954 15.4039C17.8628 15.3529 15.0635 14.2767 15.0331 11.1566C15.0085 8.55476 17.2228 7.27606 17.4128 7.16632C17.4168 7.164 17.4199 7.1622 17.4221 7.16093C16.1229 5.35444 14.0997 5.10636 13.3789 5.07786C12.3258 4.97648 11.3041 5.35932 10.4698 5.67195C9.94005 5.87045 9.48585 6.04065 9.14707 6.04065C8.76909 6.04065 8.30208 5.86469 7.77808 5.66726C7.09198 5.40875 6.30819 5.11343 5.49862 5.1281C3.62152 5.15402 1.89213 6.16446 0.92441 7.76014C-1.02358 10.9733 0.427169 15.7335 2.32554 18.3407C3.25454 19.6153 4.36184 21.0509 5.81591 20.9986C6.46661 20.9743 6.92918 20.7872 7.40746 20.5937C7.95906 20.3705 8.53156 20.1389 9.43767 20.1389C10.3033 20.1389 10.8507 20.3638 11.377 20.5801C11.8797 20.7867 12.3631 20.9853 13.0861 20.9727C14.5925 20.9463 15.5488 19.6717 16.4702 18.3924C17.5016 16.9605 17.9464 15.5727 17.9963 15.4171C17.998 15.4119 17.9992 15.4081 18 15.4056C17.9994 15.4054 17.9979 15.4048 17.9954 15.4039Z" fill="white"/>
</svg>
