<svg width="32" height="32" viewBox="0 0 32 32" fill="none" xmlns="http://www.w3.org/2000/svg">
<path fill-rule="evenodd" clip-rule="evenodd" d="M16 30C23.732 30 30 23.732 30 16C30 8.26801 23.732 2 16 2C8.26801 2 2 8.26801 2 16C2 23.732 8.26801 30 16 30ZM16 32C24.8366 32 32 24.8366 32 16C32 7.16344 24.8366 0 16 0C7.16344 0 0 7.16344 0 16C0 24.8366 7.16344 32 16 32Z" fill="white"/>
<path d="M14.0029 22C14.0029 20.8954 14.8984 20 16.0029 20C17.1075 20 18.0029 20.8954 18.0029 22C18.0029 23.1046 17.1075 24 16.0029 24C14.8984 24 14.0029 23.1046 14.0029 22Z" fill="white"/>
<path d="M14.1989 9.99008C14.0923 8.92457 14.929 8 15.9998 8C17.0707 8 17.9074 8.92457 17.8008 9.99007L17.0994 17.005C17.0429 17.5698 16.5675 18 15.9998 18C15.4322 18 14.9568 17.5698 14.9003 17.005L14.1989 9.99008Z" fill="white"/>
</svg>
