<svg width="33" height="32" viewBox="0 0 33 32" fill="none" xmlns="http://www.w3.org/2000/svg">
<path fill-rule="evenodd" clip-rule="evenodd" d="M16.5 30C24.232 30 30.5 23.732 30.5 16C30.5 8.26801 24.232 2 16.5 2C8.76801 2 2.5 8.26801 2.5 16C2.5 23.732 8.76801 30 16.5 30ZM16.5 32C25.3366 32 32.5 24.8366 32.5 16C32.5 7.16344 25.3366 0 16.5 0C7.66344 0 0.5 7.16344 0.5 16C0.5 24.8366 7.66344 32 16.5 32Z" fill="white"/>
<path fill-rule="evenodd" clip-rule="evenodd" d="M22.4393 9.93934C23.0251 9.35355 23.9748 9.35355 24.5606 9.93934C25.1392 10.5179 25.1463 11.4516 24.5819 12.0389L16.5975 22.0195C16.5859 22.0339 16.5736 22.0476 16.5606 22.0607C15.9748 22.6464 15.0251 22.6464 14.4393 22.0607L9.14637 16.7678C8.56058 16.182 8.56058 15.2322 9.14637 14.6464C9.73216 14.0607 10.6819 14.0607 11.2677 14.6464L15.4547 18.8335L22.3995 9.98421C22.4118 9.96847 22.4251 9.95349 22.4393 9.93934Z" fill="white"/>
</svg>
