<svg width="32" height="32" viewBox="0 0 32 32" fill="none" xmlns="http://www.w3.org/2000/svg">
<path fill-rule="evenodd" clip-rule="evenodd" d="M16 30C23.732 30 30 23.732 30 16C30 8.26801 23.732 2 16 2C8.26801 2 2 8.26801 2 16C2 23.732 8.26801 30 16 30ZM16 32C24.8366 32 32 24.8366 32 16C32 7.16344 24.8366 0 16 0C7.16344 0 0 7.16344 0 16C0 24.8366 7.16344 32 16 32Z" fill="white"/>
<path d="M17.8614 13.1758L13.2794 13.75L13.1153 14.5117L14.0177 14.6758C14.6036 14.8164 14.7208 15.0273 14.5919 15.6133L13.1153 22.5508C12.7286 24.3438 13.3262 25.1875 14.7325 25.1875C15.8223 25.1875 17.088 24.6836 17.6622 23.9922L17.838 23.1602C17.4395 23.5117 16.8536 23.6523 16.4669 23.6523C15.9161 23.6523 15.7169 23.2656 15.8575 22.5859L17.8614 13.1758Z" fill="white"/>
<circle cx="16" cy="9" r="2" fill="white"/>
</svg>
